<?xml version="1.0" encoding="UTF-8" standalone="no"?>
<!-- Created with Inkscape (http://www.inkscape.org/) -->

<svg
   xmlns:dc="http://purl.org/dc/elements/1.1/"
   xmlns:cc="http://creativecommons.org/ns#"
   xmlns:rdf="http://www.w3.org/1999/02/22-rdf-syntax-ns#"
   xmlns:svg="http://www.w3.org/2000/svg"
   xmlns="http://www.w3.org/2000/svg"
   xmlns:sodipodi="http://sodipodi.sourceforge.net/DTD/sodipodi-0.dtd"
   xmlns:inkscape="http://www.inkscape.org/namespaces/inkscape"
   width="167.56944mm"
   height="121.70834mm"
   viewBox="0 0 167.56944 121.70834"
   version="1.1"
   id="svg8"
   inkscape:version="0.92.4 5da689c313, 2019-01-14"
   sodipodi:docname="baby.svg">
  <defs
     id="defs2" />
  <sodipodi:namedview
     id="base"
     pagecolor="#ffffff"
     bordercolor="#666666"
     borderopacity="1.0"
     inkscape:pageopacity="0.0"
     inkscape:pageshadow="2"
     inkscape:zoom="2.8"
     inkscape:cx="179.50871"
     inkscape:cy="287.91424"
     inkscape:document-units="mm"
     inkscape:current-layer="layer1"
     showgrid="false"
     inkscape:window-width="3200"
     inkscape:window-height="1753"
     inkscape:window-x="0"
     inkscape:window-y="0"
     inkscape:window-maximized="0" />
  <metadata
     id="metadata5">
    <rdf:RDF>
      <cc:Work
         rdf:about="">
        <dc:format>image/svg+xml</dc:format>
        <dc:type
           rdf:resource="http://purl.org/dc/dcmitype/StillImage" />
        <dc:title></dc:title>
      </cc:Work>
    </rdf:RDF>
  </metadata>
  <g
     inkscape:label="Layer 1"
     inkscape:groupmode="layer"
     id="layer1"
     transform="translate(-84.236667,-129.39085)">
    <g
       id="g117"
       transform="translate(51.310268,5.7641369)">
      <path
         style="fill:#f07178;stroke-width:0.35277778"
         d="m 32.926399,184.48088 v -60.85417 h 83.784721 83.78472 v 60.85417 60.85417 H 116.71112 32.926399 Z"
         id="path123"
         inkscape:connector-curvature="0" />
      <path
         style="fill:#82aaff;stroke-width:0.35277778"
         d="m 32.926399,184.48088 v -60.85417 h 83.784721 83.78472 v 60.85417 60.85417 H 116.71112 32.926399 Z m 110.753971,14.6659 c 1.43609,-2.01679 2.11921,-4.0225 2.12717,-6.24557 0.007,-1.95559 -0.0964,-2.26486 -1.07872,-3.22522 -1.30732,-1.27814 -3.25651,-1.86917 -7.11469,-2.15729 -2.88264,-0.21527 -2.88758,-0.21734 -3.2111,-1.3491 -0.30261,-1.05866 -0.20064,-1.26833 1.54417,-3.175 2.3296,-2.54573 4.53949,-7.01055 4.82128,-9.74085 0.34505,-3.34321 -0.32963,-4.21778 -4.30181,-5.57635 -1.02689,-0.35122 -3.33221,-0.47202 -8.46666,-0.44365 -7.07397,0.0391 -13.49024,0.80103 -20.56822,2.44252 -3.82007,0.88593 -3.77039,0.90846 -5.35605,-2.42907 -3.126445,-6.58061 -8.455108,-8.90465 -13.776404,-6.00844 -4.521457,2.46089 -7.731552,9.26127 -5.730318,12.13932 1.748702,2.51487 3.85608,3.22764 9.930402,3.35873 2.593841,0.056 4.855414,0.24112 5.025718,0.41142 0.332133,0.33213 1.848569,10.15426 2.259488,14.63495 l 0.249104,2.71619 -2.878991,1.82782 c -3.340248,2.12067 -3.618287,2.91184 -1.077948,3.06733 0.871382,0.0533 3.092453,-0.10541 4.935719,-0.35278 l 3.35139,-0.44975 0.42465,-2.11666 c 0.71989,-3.58825 1.16285,-8.4276 1.16285,-12.7041 v -4.08885 l 1.22339,-0.51117 c 1.77557,-0.74188 3.25902,-0.65853 3.72342,0.2092 0.21204,0.3962 0.49544,2.26152 0.62977,4.14514 l 0.24425,3.42477 1.5592,0.11141 c 2.39757,0.17131 2.90779,-0.0952 4.57725,-2.3906 1.63722,-2.25111 4.22728,-4.24719 5.51102,-4.24719 1.04106,0 2.05207,1.19981 2.05207,2.43529 0,0.61619 -0.69726,2.10466 -1.77435,3.78781 -2.56377,4.00634 -3.28213,5.56584 -3.28213,7.1252 0,1.63415 0.38182,2.01168 2.36532,2.33874 2.02171,0.33336 4.62422,-0.26605 9.27935,-2.13722 5.57937,-2.24268 7.40152,-2.10971 7.40729,0.54052 0.005,2.44903 1.60642,5.66521 2.82026,5.66521 0.36163,0 0.98842,-0.46472 1.39286,-1.03271 z m -52.726233,-4.48953 c 1.45029,-1.09696 2.730429,-2.28918 2.84475,-2.64938 0.24571,-0.77416 -0.506719,-8.58442 -0.937549,-9.73185 -0.259884,-0.69215 -0.548929,-0.79375 -2.258113,-0.79375 -1.459223,0 -2.014622,0.14213 -2.17352,0.55621 -0.117394,0.30592 -0.01333,2.24453 0.231196,4.30802 l 0.444638,3.7518 -0.837487,0.53103 c -1.635513,1.03703 -3.836099,3.46306 -3.836099,4.22911 0,0.8259 1.610893,1.75383 3.089173,1.77947 0.437864,0.008 1.98272,-0.88371 3.433011,-1.98066 z m 55.081333,-10.26997 c 0.56714,-0.37065 1.8936,-2.63492 1.89516,-3.23505 0.002,-0.72477 -1.42061,-2.13941 -2.1513,-2.13941 -0.59356,0 -3.13905,3.67666 -3.13905,4.53398 0,0.21161 0.51594,0.53371 1.14653,0.71579 1.46927,0.42423 1.76522,0.44065 2.24866,0.12469 z"
         id="path121"
         inkscape:connector-curvature="0" />
      <path
         style="fill:#292d3e;stroke-width:0.35277778"
         d="m 99.072231,231.81253 c -0.960614,-0.2941 -1.444008,-0.65866 -1.514151,-1.14192 -0.153617,-1.05833 4.10435,-17.88952 4.60804,-18.215 0.40384,-0.26095 2.81328,-0.0893 4.22662,0.30104 1.45698,0.40243 1.41303,1.25552 -0.44054,8.55219 -0.98145,3.86355 -2.07201,7.87344 -2.42345,8.91085 -0.5955,1.75782 -0.72087,1.89091 -1.8422,1.95553 -0.66176,0.0381 -1.838208,-0.12507 -2.614319,-0.36269 z m 42.599909,-3.49901 c -0.32684,-0.41299 -2.40769,-7.2175 -4.09983,-13.4067 -0.85578,-3.1301 -0.69896,-3.69025 1.23964,-4.42809 2.29577,-0.87378 2.81576,-0.34653 4.68972,4.75521 1.93514,5.2683 3.46463,10.75076 3.30628,11.8514 -0.0609,0.42325 -0.5076,0.96962 -0.99267,1.21415 -1.1388,0.57409 -3.69307,0.58274 -4.14314,0.014 z m -21.12111,-2.65123 c -0.21639,-0.14255 -0.48919,-0.57669 -0.60624,-0.96474 -0.34128,-1.13146 0.66037,-11.72587 1.16626,-12.33542 0.81435,-0.98124 4.27959,-0.463 4.72863,0.70719 0.0944,0.24587 0.028,1.93093 -0.14742,3.74458 -0.17543,1.81364 -0.32327,4.30016 -0.32853,5.52559 -0.0135,3.15798 -0.32707,3.59399 -2.57961,3.58738 -1.01181,-0.003 -2.01671,-0.12203 -2.23309,-0.26458 z m -41.334395,-4.67225 c -1.679445,-1.02395 -1.74092,-1.58096 -0.387946,-3.51509 2.241546,-3.20439 7.542099,-9.20796 8.299298,-9.40004 1.374757,-0.34875 4.006744,1.57479 4.006744,2.92825 0,0.23987 -0.976306,1.59361 -2.169566,3.00831 -1.193264,1.4147 -3.120937,3.72313 -4.283724,5.12983 -2.370906,2.86825 -3.285292,3.17758 -5.464806,1.84874 z m -24.074831,-3.00235 c -1.697632,-1.25247 -1.950137,-1.83688 -1.168657,-2.7048 0.71059,-0.78918 10.307716,-8.46164 14.6851,-11.74005 2.613399,-1.95729 2.791548,-2.03367 3.659642,-1.56908 1.05119,0.56258 2.589064,2.67381 2.589064,3.55432 0,0.32928 -1.230312,1.56071 -2.734027,2.73652 -13.313661,10.4104 -13.593309,10.61212 -14.712374,10.61212 -0.636399,0 -1.630205,-0.38104 -2.318748,-0.88903 z m 110.605426,-2.10915 c -1.55222,-0.86799 -4.8462,-2.62395 -7.31995,-3.90213 -3.60935,-1.86495 -4.54232,-2.50163 -4.72347,-3.22339 -0.31044,-1.23691 1.03574,-3.98742 1.95156,-3.98742 0.8609,0 12.64264,5.92468 14.30858,7.19536 0.97449,0.74328 1.25104,1.20412 1.25001,2.08301 -0.002,1.40976 -1.19295,3.42311 -2.02196,3.41719 -0.3424,-0.002 -1.89255,-0.71463 -3.44477,-1.58262 z m -27.09088,-12.1442 c -1.11686,-0.71939 -2.18676,-1.86694 -3.15158,-3.38032 -0.80339,-1.26016 -1.66606,-2.29119 -1.91704,-2.29119 -0.25098,0 -1.50497,0.3947 -2.78663,0.87711 -5.16266,1.94323 -10.62895,2.40171 -13.12869,1.10116 -2.2762,-1.18424 -3.29947,-3.05214 -3.37428,-6.15952 l -0.0565,-2.34514 -1.29984,-0.10812 c -1.75431,-0.14591 -1.92532,0.26929 -2.36212,5.73519 -0.19935,2.49462 -0.52407,4.69729 -0.7216,4.89482 -0.4166,0.41661 -6.95896,1.42579 -13.05435,2.01367 -4.663641,0.4498 -5.955093,0.23954 -7.736709,-1.25959 -0.580842,-0.48875 -2.060462,-1.07738 -3.572789,-1.42135 -4.423702,-1.00615 -6.695972,-2.37195 -7.618176,-4.57909 -0.79297,-1.89785 -0.102217,-3.32317 3.411513,-7.03942 l 2.001319,-2.11667 -0.181959,-3.6317 -0.181963,-3.63169 -1.098603,-0.56793 c -3.467223,-1.7924 -5.092721,-4.15876 -5.403553,-7.86638 -0.524158,-6.25212 3.121952,-12.04255 9.421875,-14.96297 4.267786,-1.9784 9.95215,-2.15062 13.424175,-0.40672 3.04007,1.52694 5.18015,3.29642 6.89745,5.70301 0.88598,1.24159 1.79538,2.25708 2.02088,2.25665 0.22551,-3.6e-4 3.82314,-0.57059 7.99473,-1.26701 5.59061,-0.93332 9.09551,-1.31626 13.33107,-1.45652 8.71888,-0.28872 13.08354,0.62096 14.99341,3.12493 1.23295,1.61648 1.6412,2.80205 2.13172,6.19052 l 0.41791,2.88697 1.8993,0.99359 c 4.5789,2.39538 5.54051,6.45036 2.66288,11.22913 -0.71287,1.18384 -1.15173,2.29988 -1.0291,2.61704 1.43407,3.70876 0.44634,8.91383 -2.4345,12.82924 -1.16332,1.58109 -3.46789,2.75975 -5.7788,2.95554 -1.81995,0.15419 -2.20254,0.0598 -3.71949,-0.91724 z m 5.02402,-4.58756 c 1.43609,-2.01679 2.11921,-4.0225 2.12717,-6.24557 0.007,-1.95559 -0.0964,-2.26486 -1.07872,-3.22522 -1.30732,-1.27814 -3.25651,-1.86917 -7.11469,-2.15729 -2.88264,-0.21527 -2.88758,-0.21734 -3.2111,-1.3491 -0.30261,-1.05866 -0.20064,-1.26833 1.54417,-3.175 2.3296,-2.54573 4.53949,-7.01055 4.82128,-9.74085 0.34505,-3.34321 -0.32963,-4.21778 -4.30181,-5.57635 -1.02689,-0.35122 -3.33221,-0.47202 -8.46666,-0.44365 -7.07397,0.0391 -13.49024,0.80103 -20.56822,2.44252 -3.82007,0.88593 -3.77039,0.90846 -5.35605,-2.42907 -3.126445,-6.58061 -8.455108,-8.90465 -13.776404,-6.00844 -4.521457,2.46089 -7.731552,9.26127 -5.730318,12.13932 1.748702,2.51487 3.85608,3.22764 9.930402,3.35873 2.593841,0.056 4.855414,0.24112 5.025718,0.41142 0.332133,0.33213 1.848569,10.15426 2.259488,14.63495 l 0.249104,2.71619 -2.878991,1.82782 c -3.340248,2.12067 -3.618287,2.91184 -1.077948,3.06733 0.871382,0.0533 3.092453,-0.10541 4.935719,-0.35278 l 3.35139,-0.44975 0.42465,-2.11666 c 0.71989,-3.58825 1.16285,-8.4276 1.16285,-12.7041 v -4.08885 l 1.22339,-0.51117 c 1.77557,-0.74188 3.25902,-0.65853 3.72342,0.2092 0.21204,0.3962 0.49544,2.26152 0.62977,4.14514 l 0.24425,3.42477 1.5592,0.11141 c 2.39757,0.17131 2.90779,-0.0952 4.57725,-2.3906 1.63722,-2.25111 4.22728,-4.24719 5.51102,-4.24719 1.04106,0 2.05207,1.19981 2.05207,2.43529 0,0.61619 -0.69726,2.10466 -1.77435,3.78781 -2.56377,4.00634 -3.28213,5.56584 -3.28213,7.1252 0,1.63415 0.38182,2.01168 2.36532,2.33874 2.02171,0.33336 4.62422,-0.26605 9.27935,-2.13722 5.57937,-2.24268 7.40152,-2.10971 7.40729,0.54052 0.005,2.44903 1.60642,5.66521 2.82026,5.66521 0.36163,0 0.98842,-0.46472 1.39286,-1.03271 z m -52.726233,-4.48953 c 1.45029,-1.09696 2.730429,-2.28918 2.84475,-2.64938 0.24571,-0.77416 -0.506719,-8.58442 -0.937549,-9.73185 -0.259884,-0.69215 -0.548929,-0.79375 -2.258113,-0.79375 -1.459223,0 -2.014622,0.14213 -2.17352,0.55621 -0.117394,0.30592 -0.01333,2.24453 0.231196,4.30802 l 0.444638,3.7518 -0.837487,0.53103 c -1.635513,1.03703 -3.836099,3.46306 -3.836099,4.22911 0,0.8259 1.610893,1.75383 3.089173,1.77947 0.437864,0.008 1.98272,-0.88371 3.433011,-1.98066 z m 55.081333,-10.26997 c 0.56714,-0.37065 1.8936,-2.63492 1.89516,-3.23505 0.002,-0.72477 -1.42061,-2.13941 -2.1513,-2.13941 -0.59356,0 -3.13905,3.67666 -3.13905,4.53398 0,0.21161 0.51594,0.53371 1.14653,0.71579 1.46927,0.42423 1.76522,0.44065 2.24866,0.12469 z m -89.358009,17.4868 c -0.421845,-0.20208 -1.134514,-1.0602 -1.583707,-1.90694 -0.814877,-1.53606 -0.815136,-1.54106 -0.114952,-2.22219 0.944772,-0.91905 7.186618,-4.27843 10.139851,-5.4573 1.82529,-0.72862 2.541515,-0.86597 3.062273,-0.58727 1.118777,0.59875 2.197088,2.39208 2.075224,3.4513 -0.100069,0.86979 -0.699347,1.26963 -5.756141,3.8405 -6.400014,3.25376 -6.765332,3.38835 -7.822548,2.8819 z m 110.128099,-5.03613 c -2.91041,-0.64514 -5.74808,-1.35145 -6.30591,-1.56959 -0.96801,-0.37853 -1.00645,-0.47787 -0.84301,-2.17881 0.2788,-2.90155 0.32809,-2.91449 6.61976,-1.73816 7.79173,1.45679 7.75015,1.44567 8.14147,2.17687 0.36551,0.68297 0.12551,2.82346 -0.43921,3.9172 -0.42118,0.81575 -0.95714,0.77035 -7.1731,-0.60751 z M 51.953507,184.96727 c -0.479723,-0.89637 -0.133989,-4.33182 0.486164,-4.83087 0.487567,-0.39236 8.995955,-2.07524 12.168675,-2.40685 2.765637,-0.28907 3.243052,0.0654 3.243052,2.408 0,3.20468 0.03023,3.18819 -8.569788,4.67554 -6.362266,1.10034 -6.816619,1.1099 -7.328103,0.15418 z m 110.905373,-3.41204 c -0.99578,-0.62688 -1.60451,-4.34802 -0.79328,-4.84939 0.37735,-0.23321 1.7599,-0.37458 13.70642,-1.40145 5.54476,-0.4766 6.56884,-0.48662 6.98708,-0.0684 0.64248,0.64247 1.03287,4.29891 0.49451,4.63164 -0.2187,0.13516 -3.69148,0.47253 -7.71729,0.74971 -7.48053,0.51503 -10.79061,0.81477 -11.72937,1.06214 -0.29104,0.0767 -0.71767,0.0208 -0.94807,-0.12427 z M 67.821514,169.34034 c -0.338016,-0.0132 -2.822361,-0.48801 -6.091663,-0.90422 -6.300017,-0.80205 -7.428642,-1.07204 -7.726537,-1.84834 -0.266709,-0.69504 0.625523,-3.08419 1.465475,-3.92414 0.677564,-0.67756 0.857563,-0.69174 3.461862,-0.27269 1.510925,0.24312 4.38348,0.67679 6.383455,0.9637 4.690457,0.67289 5.359514,0.9324 5.359514,2.07883 0,2.22651 -1.812181,4.12883 -2.852106,3.90686 z m 91.029386,-1.53459 c -0.21905,-0.73111 -0.34448,-1.80267 -0.27875,-2.38125 0.11447,-1.00748 0.35677,-1.14585 5.73176,-3.27308 3.08672,-1.22162 5.81591,-2.14296 6.06486,-2.04743 0.75434,0.28947 1.60463,1.86679 1.8028,3.34428 0.17957,1.33879 0.13004,1.42482 -1.21524,2.11113 -2.14741,1.09553 -9.57061,3.57565 -10.70221,3.57565 -0.85649,0 -1.0638,-0.19638 -1.40322,-1.3293 z m -10.47761,-9.59715 c -0.83673,-0.37981 -1.67705,-1.07133 -1.90212,-1.5653 -0.49345,-1.083 -0.29394,-1.41189 3.22928,-5.32353 1.39809,-1.55223 3.96317,-4.59494 5.70017,-6.76158 1.737,-2.16665 3.36081,-4.01711 3.60846,-4.11215 0.64353,-0.24694 2.42874,0.69382 3.56278,1.8775 0.70706,0.73802 0.91293,1.23439 0.75876,1.82952 -0.42562,1.64307 -12.15003,14.7708 -13.16762,14.74368 -0.15992,-0.004 -0.96529,-0.31392 -1.78971,-0.68814 z M 68.8733,153.57692 c -8.029922,-5.70837 -8.284041,-6.11661 -5.439506,-8.73861 0.86879,-0.80082 1.672976,-1.45604 1.787081,-1.45604 1.382036,0 12.155523,8.74498 12.155523,9.8668 0,0.85498 -2.718717,3.18598 -3.715904,3.18598 -0.421675,0 -2.575912,-1.28616 -4.787194,-2.85813 z m 62.03712,1.07423 c -0.87282,-0.52004 -0.7895,-1.13098 0.72148,-5.29034 2.5404,-6.99312 3.05736,-7.51305 5.85928,-5.89296 2.00781,1.16093 2.26078,1.73095 1.56633,3.5294 -3.13947,8.1305 -2.93726,7.8347 -5.42494,7.93601 -1.15763,0.0472 -2.3826,-0.0798 -2.72215,-0.28211 z m -19.48606,-1.96576 c -0.31606,-0.31606 -0.49239,-0.78901 -0.39186,-1.05101 0.10054,-0.26199 0.43454,-3.77371 0.74221,-7.80381 0.64097,-8.39568 0.64056,-8.39473 3.47446,-8.07456 2.81671,0.31822 2.83535,0.36235 2.54961,6.03601 -0.13689,2.7179 -0.4376,6.20785 -0.66827,7.75544 -0.36326,2.43724 -0.53742,2.87325 -1.30134,3.25799 -1.26646,0.63786 -3.7136,0.57115 -4.40481,-0.12006 z m -21.470683,-2.51215 c -1.290634,-2.53657 -2.497515,-6.90188 -2.385773,-8.62939 0.05428,-0.83913 3.35642,-1.82679 4.342772,-1.29891 1.208557,0.6468 4.102026,8.44428 3.496846,9.42348 -0.364864,0.59037 -2.703632,1.47496 -3.899623,1.47496 -0.802174,0 -1.180881,-0.23639 -1.554222,-0.97014 z"
         id="path119"
         inkscape:connector-curvature="0"
         sodipodi:nodetypes="ccccccccccssccccccccccccsccsccsscssscsssccscccsccscccccccccscscccsscsccsssccsccsccccccsccsccsscscccccccccscccccccsscssscscccssccccsccccsscccscsscsccccsccccccsscccscccccccsccccscccccccsccccccccccscsssscsscccsccccccsccscsc" />
    </g>
  </g>
</svg>
