<?xml version="1.0" encoding="UTF-8" standalone="no"?>
<!-- Generator: Gravit.io -->
<svg xmlns="http://www.w3.org/2000/svg" xmlns:xlink="http://www.w3.org/1999/xlink" style="isolation:isolate" viewBox="0 0 2560 1440" width="2560pt" height="1440pt"><defs><clipPath id="_clipPath_0rCSnG0VhXBCPOKFM6Jt5xgdSYmLqhJb"><rect width="2560" height="1440"/></clipPath></defs><g clip-path="url(#_clipPath_0rCSnG0VhXBCPOKFM6Jt5xgdSYmLqhJb)"><path d=" M 0 720 L 0 0 L 1280 0 L 2560 0 L 2560 720 L 2560 1440 L 1280 1440 L 0 1440 L 0 720 Z " fill="rgb(166,172,205)"/><g><path d=" M 339 431 L 329 547 L 863 554 L 863 438 L 339 431 Z " fill="rgb(240,113,120)"/><path d=" M 167 962 L 167 1120 L 346 1130 L 346 962 L 167 962 Z " fill="rgb(240,113,120)"/><path d=" M 1285 -33 L 1292 353 L 1897 353 L 1897 -15 L 1285 -33 Z " fill="rgb(240,113,120)"/><path d=" M 1999 1222 L 1999 1507 L 2319 1484 L 2330 1216 L 1999 1222 Z " fill="rgb(240,113,120)"/></g><g><path d=" M 1444 1299 L 1623 1299 L 1619 1466 L 1444 1461 L 1444 1299 Z " fill="rgb(255,203,107)"/><path d=" M 2333 1204 L 2614 1215 L 2607 1345 L 2326 1338 L 2333 1204 Z " fill="rgb(255,203,107)"/><path d=" M -18 1122 L 159 1123 L 159 1470 L -18 1460 L -18 1122 Z " fill="rgb(255,203,107)"/><path d=" M -28 -22 L 344 -22 L 341 106 L -25 106 L -28 -22 Z " fill="rgb(255,203,107)"/><path d=" M 1897 432 L 2179 432 L 2169 614 L 1903 614 L 1897 432 Z " fill="rgb(255,203,107)"/></g><g><path d=" M 1029 816 L 1022 956 L 1290 956 L 1290 816 L 1029 816 Z " fill="rgb(130,170,255)"/><path d=" M 1900 -39 L 1896 131 L 2673 131 L 2629 -87 L 1900 -39 Z " fill="rgb(130,170,255)"/><path d=" M 1626 1220 L 1996 1220 L 1996 1301 L 1615 1301 L 1626 1220 Z " fill="rgb(130,170,255)"/><path d=" M -29 945 L 163 954 L 163 434 L -22 437 L -29 945 Z " fill="rgb(130,170,255)"/></g><path d=" M 147.684 1289.157 C 147.945 1176.557 147.643 1137.843 146.493 1136.457 C 145.204 1134.904 133.113 1134.661 72.476 1134.967 L -0.001 1135.333 L -0.001 1124 L 0 1112.667 L 73.666 1112.667 L 147.333 1112.667 L 147.333 1045.333 L 147.333 978 L 73.666 978 L 0 978 L 0 958.345 L 0 938.689 L 73 938.345 L 146 938 L 146 692 L 146 446 L 73 445.655 L 0 445.311 L 0 434.989 L 0 424.667 L 163 424.667 L 326 424.667 L 326 272 L 326 119.333 L 163 119.333 L 0 119.333 L 0 108 L 0 96.667 L 161.511 97.016 C 282.857 97.278 323.487 96.979 324.892 95.813 C 326.446 94.523 326.698 86.286 326.381 47.13 L 326 -0.001 L 341.333 -0.001 L 356.667 0 L 356.667 212.333 L 356.667 424.667 L 600 424.667 L 843.333 424.667 L 843.333 212.333 L 843.333 0 L 856 0 L 868.667 0 L 868.667 172.333 L 868.667 344.667 L 1070.667 344.667 L 1272.667 344.667 L 1272.667 172.333 L 1272.667 0 L 1286.995 0 L 1301.323 0 L 1301.662 171.667 L 1302 343.333 L 1586.667 343.333 L 1871.333 343.333 L 1871.672 171.667 L 1872.01 0 L 1894.658 0 L 1917.306 0 L 1917.653 61 L 1918 122 L 2239 122.336 L 2560 122.672 L 2560 134.336 L 2560 146 L 2238.333 146 L 1916.667 146 L 1916.667 245.333 L 1916.667 344.667 L 2238.333 344.667 L 2560 344.667 L 2560 356 L 2560 367.333 L 2238.333 367.333 L 1916.667 367.333 L 1916.667 396 L 1916.667 424.667 L 2238.333 424.667 L 2560 424.667 L 2560 434.667 L 2560 444.667 L 2375.667 444.667 L 2191.333 444.667 L 2191.333 584 L 2191.333 723.333 L 2375.667 723.333 L 2560 723.333 L 2560 733.333 L 2560 743.333 L 2375.667 743.333 L 2191.333 743.333 L 2191.333 841.333 L 2191.333 939.333 L 2375.667 939.333 L 2560 939.333 L 2560 958.667 L 2560 978 L 2446.333 978 L 2332.667 978 L 2332.667 1090.667 L 2332.667 1203.333 L 2446.333 1203.333 L 2560 1203.333 L 2560 1217.333 L 2560 1231.333 L 2447.831 1230.978 C 2365.404 1230.716 2335.175 1231.025 2333.83 1232.141 C 2331.121 1234.389 2331.121 1336.278 2333.83 1338.526 C 2335.175 1339.642 2365.404 1339.95 2447.831 1339.689 L 2560 1339.333 L 2560 1349.333 L 2560 1359.333 L 2446.333 1359.333 L 2332.667 1359.333 L 2332.667 1399.667 L 2332.667 1440.001 L 2322.342 1440.001 L 2312.016 1440 L 2311.675 1336.333 L 2311.333 1232.667 L 2160 1232.667 L 2008.667 1232.667 L 2008.325 1336.333 L 2007.984 1440 L 1993.658 1440 L 1979.333 1440 L 1979.333 1373 L 1979.333 1306 L 1806.667 1306 L 1634 1306 L 1634 1373 L 1634 1440 L 1621.333 1440.001 L 1608.667 1440.001 L 1609.037 1374.515 C 1609.308 1326.636 1608.994 1308.532 1607.874 1307.181 C 1605.589 1304.429 1455.744 1304.429 1453.46 1307.181 C 1452.339 1308.532 1452.026 1326.636 1452.296 1374.515 L 1452.667 1440.001 L 1438.667 1440.001 L 1424.667 1440 L 1424.667 1373 L 1424.667 1306 L 1229.333 1306 L 1034 1306 L 1034 1373 L 1034 1440 L 1021.333 1440 L 1008.667 1440 L 1008.667 1335.667 L 1008.667 1231.333 L 854.667 1231.333 L 700.667 1231.333 L 700.667 1335.667 L 700.667 1440 L 688 1440 L 675.333 1440 L 675.333 1287.667 L 675.333 1135.333 L 516 1135.333 L 356.667 1135.333 L 356.667 1287.667 L 356.667 1440 L 341.333 1440 L 326 1440 L 326 1287.667 L 326 1135.333 L 250.667 1135.333 L 175.333 1135.333 L 175.333 1287.667 L 175.333 1440 L 161.333 1440 L 147.333 1440 L 147.684 1289.157 Z  M 1272.667 1260 L 1272.667 1231.333 L 1153.333 1231.333 L 1034 1231.333 L 1033.638 1258.631 C 1033.439 1273.644 1033.571 1286.697 1033.932 1287.638 C 1034.461 1289.015 1057.777 1289.281 1153.628 1289.007 L 1272.667 1288.667 L 1272.667 1260 Z  M 1424.667 1260 L 1424.667 1231.333 L 1362.667 1231.333 L 1300.667 1231.333 L 1300.305 1258.631 C 1300.106 1273.644 1300.239 1286.7 1300.601 1287.644 C 1301.128 1289.016 1313.634 1289.291 1362.963 1289.013 L 1424.667 1288.667 L 1424.667 1260 Z  M 1608.667 1260 L 1608.667 1231.333 L 1530.667 1231.333 L 1452.667 1231.333 L 1452.305 1258.631 C 1452.106 1273.644 1452.24 1286.699 1452.6 1287.641 C 1453.128 1289.016 1468.649 1289.287 1530.962 1289.011 L 1608.667 1288.667 L 1608.667 1260 Z  M 1978 1260 L 1978 1232.667 L 1806.667 1232.667 L 1635.333 1232.667 L 1634.97 1258.627 C 1634.77 1272.906 1634.902 1285.358 1635.264 1286.299 C 1635.794 1287.682 1668.75 1287.945 1806.96 1287.672 L 1978 1287.333 L 1978 1260 Z  M 1008.667 1090.667 L 1008.667 978 L 854.667 978 L 700.667 978 L 700.322 1089.333 C 700.133 1150.567 700.265 1201.419 700.616 1202.339 C 701.123 1203.669 732.699 1203.942 854.96 1203.672 L 1008.667 1203.333 L 1008.667 1090.667 Z  M 1272.667 1090.667 L 1272.667 978 L 1153.333 978 L 1034 978 L 1033.656 1089.333 C 1033.466 1150.567 1033.599 1201.42 1033.95 1202.34 C 1034.457 1203.67 1059.101 1203.944 1153.628 1203.674 L 1272.667 1203.333 L 1272.667 1090.667 Z  M 1424.667 1090.667 L 1424.667 978 L 1362.667 978 L 1300.667 978 L 1300.322 1089.333 C 1300.133 1150.567 1300.266 1201.423 1300.619 1202.347 C 1301.124 1203.671 1314.312 1203.953 1362.963 1203.68 L 1424.667 1203.333 L 1424.667 1090.667 Z  M 1608.667 1090.667 L 1608.667 978 L 1530.667 978 L 1452.667 978 L 1452.322 1089.333 C 1452.133 1150.567 1452.266 1201.422 1452.618 1202.344 C 1453.124 1203.671 1469.507 1203.95 1530.962 1203.677 L 1608.667 1203.333 L 1608.667 1090.667 Z  M 1979.333 1168 L 1979.333 1132.667 L 1806.667 1132.667 L 1634 1132.667 L 1633.643 1166.644 C 1633.447 1185.331 1633.579 1201.383 1633.937 1202.315 C 1634.459 1203.676 1668.528 1203.943 1806.96 1203.672 L 1979.333 1203.333 L 1979.333 1168 Z  M 2126 1168 L 2126 1132.667 L 2066.667 1132.667 L 2007.333 1132.667 L 2006.976 1166.644 C 2006.78 1185.331 2006.913 1201.387 2007.273 1202.324 C 2007.793 1203.678 2020.03 1203.957 2066.963 1203.681 L 2126 1203.333 L 2126 1168 Z  M 2312.667 1090.667 L 2312.667 978 L 2226.667 978 L 2140.667 978 L 2140.323 1089.333 C 2140.133 1150.567 2140.266 1201.421 2140.618 1202.343 C 2141.124 1203.671 2159.106 1203.948 2226.962 1203.677 L 2312.667 1203.333 L 2312.667 1090.667 Z  M 675.333 1045.333 L 675.333 978 L 516 978 L 356.667 978 L 356.32 1044 C 356.129 1080.3 356.261 1110.752 356.613 1111.672 C 357.123 1113.002 389.766 1113.275 516.294 1113.005 L 675.333 1112.667 L 675.333 1045.333 Z  M 1979.333 1045.333 L 1979.333 978 L 1806.667 978 L 1634 978 L 1633.653 1044 C 1633.462 1080.3 1633.594 1110.752 1633.946 1111.672 C 1634.456 1113.002 1669.766 1113.274 1806.96 1113.005 L 1979.333 1112.667 L 1979.333 1045.333 Z  M 2126 1045.333 L 2126 978 L 2066.667 978 L 2007.333 978 L 2006.986 1044 C 2006.796 1080.3 2006.929 1110.756 2007.283 1111.681 C 2007.79 1113.005 2020.447 1113.287 2066.963 1113.014 L 2126 1112.667 L 2126 1045.333 Z  M 324.667 1045.333 L 324.667 979.333 L 250.667 979.333 L 176.667 979.333 L 176.32 1044 C 176.129 1079.567 176.262 1109.422 176.615 1110.345 C 177.124 1111.671 192.71 1111.95 250.962 1111.678 L 324.667 1111.333 L 324.667 1045.333 Z  M 326 692 L 326 444.667 L 250.667 444.667 L 175.333 444.667 L 174.991 690.667 C 174.803 825.967 174.936 937.422 175.287 938.344 C 175.791 939.671 191.64 939.95 250.962 939.678 L 326 939.333 L 326 692 Z  M 550 753.333 L 550 567.333 L 453.333 567.333 L 356.667 567.333 L 356.324 752 C 356.135 853.567 356.268 937.421 356.619 938.342 C 357.124 939.67 377.237 939.947 453.628 939.675 L 550 939.333 L 550 753.333 Z  M 843.333 753.333 L 843.333 567.333 L 709.333 567.333 L 575.333 567.333 L 574.991 752 C 574.802 853.567 574.934 937.42 575.285 938.34 C 575.791 939.669 603.366 939.943 709.627 939.673 L 843.333 939.333 L 843.333 753.333 Z  M 1008.667 882.667 L 1008.667 826 L 938.667 826 L 868.667 826 L 868.318 881.333 C 868.127 911.765 868.26 937.421 868.614 938.344 C 869.123 939.671 883.892 939.951 938.963 939.679 L 1008.667 939.333 L 1008.667 882.667 Z  M 1608.667 882.667 L 1608.667 826 L 1454.667 826 L 1300.667 826 L 1300.318 881.333 C 1300.127 911.765 1300.259 937.418 1300.612 938.338 C 1301.123 939.669 1332.659 939.942 1454.96 939.672 L 1608.667 939.333 L 1608.667 882.667 Z  M 2163.333 882.667 L 2163.333 826 L 1898.667 826 L 1634 826 L 1633.652 881.333 C 1633.46 911.765 1633.592 937.417 1633.944 938.336 C 1634.456 939.668 1688.092 939.938 1898.959 939.67 L 2163.333 939.333 L 2163.333 882.667 Z  M 1271.333 882.667 L 1271.333 827.333 L 1153.333 827.333 L 1035.333 827.333 L 1034.985 881.332 C 1034.793 911.031 1034.926 936.084 1035.279 937.005 C 1035.79 938.337 1060.105 938.611 1153.628 938.341 L 1271.333 938 L 1271.333 882.667 Z  M 1272.667 685.333 L 1272.667 567.333 L 1070.667 567.333 L 868.667 567.333 L 868.323 684 C 868.133 748.167 868.265 801.419 868.616 802.338 C 869.123 803.669 910.296 803.94 1070.96 803.671 L 1272.667 803.333 L 1272.667 685.333 Z  M 1704.667 624 L 1704.667 444.667 L 1502.667 444.667 L 1300.667 444.667 L 1300.324 622.667 C 1300.135 720.567 1300.267 801.419 1300.617 802.338 C 1301.124 803.669 1342.296 803.94 1502.96 803.671 L 1704.667 803.333 L 1704.667 624 Z  M 2163.333 716 L 2163.333 628.667 L 1948 628.667 L 1732.667 628.667 L 1732.321 714.667 C 1732.131 761.967 1732.262 801.418 1732.614 802.337 C 1733.123 803.668 1776.963 803.94 1948.293 803.671 L 2163.333 803.333 L 2163.333 716 Z  M 1872.667 521.333 L 1872.667 444.667 L 1802.667 444.667 L 1732.667 444.667 L 1732.32 520 C 1732.13 561.433 1732.263 596.089 1732.616 597.012 C 1733.124 598.338 1747.91 598.618 1802.963 598.345 L 1872.667 598 L 1872.667 521.333 Z  M 2162.4 597.067 C 2164.709 594.758 2164.709 447.909 2162.4 445.6 C 2160.081 443.281 1919.919 443.281 1917.6 445.6 C 1915.291 447.909 1915.291 594.758 1917.6 597.067 C 1919.919 599.386 2160.081 599.386 2162.4 597.067 Z  M 1272.667 492 L 1272.667 444.667 L 1070.667 444.667 L 868.667 444.667 L 868.315 490.658 C 868.122 515.954 868.254 537.406 868.609 538.329 C 869.123 539.671 909.775 539.941 1070.96 539.671 L 1272.667 539.333 L 1272.667 492 Z  M 842 492 L 842 446 L 600 446 L 358 446 L 357.648 490.657 C 357.455 515.219 357.587 536.07 357.941 536.994 C 358.457 538.338 406.906 538.607 600.293 538.337 L 842 538 L 842 492 Z  M 1272.667 396 L 1272.667 367.333 L 1070.667 367.333 L 868.667 367.333 L 868.305 394.631 C 868.106 409.644 868.238 422.696 868.598 423.635 C 869.127 425.014 908.04 425.277 1070.96 425.004 L 1272.667 424.667 L 1272.667 396 Z  M 1872.667 396 L 1872.667 367.333 L 1586.667 367.333 L 1300.667 367.333 L 1300.305 394.631 C 1300.106 409.644 1300.238 422.696 1300.597 423.634 C 1301.127 425.013 1355.891 425.275 1586.959 425.003 L 1872.667 424.667 L 1872.667 396 Z " fill="rgb(41,45,62)"/></g></svg>