<?xml version="1.0" encoding="UTF-8" standalone="no"?>
<svg
   xmlns:dc="http://purl.org/dc/elements/1.1/"
   xmlns:cc="http://creativecommons.org/ns#"
   xmlns:rdf="http://www.w3.org/1999/02/22-rdf-syntax-ns#"
   xmlns:svg="http://www.w3.org/2000/svg"
   xmlns="http://www.w3.org/2000/svg"
   xmlns:sodipodi="http://sodipodi.sourceforge.net/DTD/sodipodi-0.dtd"
   xmlns:inkscape="http://www.inkscape.org/namespaces/inkscape"
   sodipodi:docname="glizzy-wallpaper.svg"
   inkscape:version="1.0 (4035a4fb49, 2020-05-01)"
   id="svg8"
   version="1.1"
   viewBox="0 0 846.66665 476.25001"
   height="1800"
   width="3200">
  <defs
     id="defs2" />
  <sodipodi:namedview
     inkscape:window-maximized="1"
     inkscape:window-y="0"
     inkscape:window-x="0"
     inkscape:window-height="900"
     inkscape:window-width="1600"
     units="px"
     showgrid="false"
     inkscape:document-rotation="0"
     inkscape:current-layer="layer1"
     inkscape:document-units="mm"
     inkscape:cy="603.96158"
     inkscape:cx="1766.2815"
     inkscape:zoom="0.24748737"
     inkscape:pageshadow="2"
     inkscape:pageopacity="0.0"
     borderopacity="1.0"
     bordercolor="#666666"
     pagecolor="#ffffff"
     id="base" />
  <metadata
     id="metadata5">
    <rdf:RDF>
      <cc:Work
         rdf:about="">
        <dc:format>image/svg+xml</dc:format>
        <dc:type
           rdf:resource="http://purl.org/dc/dcmitype/StillImage" />
        <dc:title></dc:title>
      </cc:Work>
    </rdf:RDF>
  </metadata>
  <g
     id="layer1"
     inkscape:groupmode="layer"
     inkscape:label="Layer 1">
    <rect
       y="-2.8421709e-14"
       x="-1.0172526e-05"
       height="476.25"
       width="846.66669"
       id="rect1522"
       style="fill:#292d3e;fill-opacity:1;stroke-width:1.41216" />
    <path
       id="path837"
       d="m 257.06783,273.84622 c -9.45929,-0.86773 -17.17757,-4.51243 -22.11187,-10.44158 -7.09812,-8.52926 -9.92101,-21.94248 -7.29557,-34.66548 2.74886,-13.32109 11.92694,-22.73812 24.73799,-25.38203 5.52239,-1.1397 19.30904,-1.16825 24.53485,-0.0507 8.03342,1.71781 13.70141,6.04044 17.05043,13.00332 2.30387,4.78998 2.32099,5.4219 0.15728,5.80569 -14.00599,2.48426 -18.59558,3.14616 -18.59558,2.68176 0,-1.4037 -2.93891,-4.57038 -5.36249,-5.7781 -3.18463,-1.58697 -8.64535,-1.79857 -12.5021,-0.48445 -3.27709,1.11662 -6.71283,4.6248 -8.23195,8.40549 -1.08558,2.7017 -1.19831,3.7996 -1.18779,11.56757 0.01,7.46447 0.15217,8.93034 1.09092,11.252 1.54085,3.81086 3.42251,6.04405 6.55528,7.77982 2.55569,1.41605 3.10606,1.51433 8.48006,1.51433 5.66874,0 5.80333,-0.0283 9.88297,-2.08062 l 4.13596,-2.08061 0.15373,-3.51106 0.15374,-3.51106 h -7.30594 -7.30595 v -7.28228 -7.28217 h 16.39276 16.39276 l -0.13781,15.15351 -0.13781,15.15351 -4.5915,2.76952 c -10.41791,6.28398 -21.65469,8.68344 -34.95229,7.46363 z m 53.32792,-35.59869 V 203.137 h 10.6632 10.66319 v 26.52794 26.52795 h 16.64498 16.64499 v 8.58258 8.58256 h -27.30819 -27.30817 z m 66.05978,0 V 203.137 h 10.40312 10.40313 v 35.11053 35.1105 h -10.40313 -10.40312 z m 31.74316,27.69829 0.0138,-7.41222 19.09511,-20.026 19.09513,-20.026 -17.28823,-0.13703 -17.28819,-0.13702 v -7.53527 -7.53524 h 30.16903 30.16905 v 7.02123 7.02121 l -19.45102,20.417 -19.451,20.41699 20.23124,0.13605 20.23125,0.13604 v 7.53623 7.53622 h -32.76982 -32.76981 l 0.0138,-7.41221 z m 70.74119,0 0.0138,-7.41222 19.09513,-20.026 19.0951,-20.026 -17.28821,-0.13703 -17.28821,-0.13702 v -7.53527 -7.53524 h 30.16905 30.16903 v 7.02123 7.02121 l -19.451,20.417 -19.45102,20.41699 20.23125,0.13605 20.23124,0.13604 v 7.53623 7.53622 h -32.76995 -32.76982 l 0.0138,-7.41221 z m 95.69501,-7.28331 V 243.967 L 561.98201,224.98242 C 555.0229,214.5409 548.91015,205.35417 548.39812,204.56744 l -0.93097,-1.43044 h 11.65734 11.65731 l 6.95213,11.72479 c 3.82368,6.44862 7.09047,11.81026 7.25952,11.91475 0.16907,0.10459 3.46667,-5.16736 7.32809,-11.71521 l 7.02076,-11.90516 11.63329,-0.01 11.63327,-0.01 -0.77216,1.17036 c -0.42466,0.64369 -6.53743,9.87702 -13.58386,20.51851 l -12.8117,19.34815 v 14.59199 14.592 H 585.03802 574.63489 Z M 176.19555,230.81455 c 0,-11.77044 0.55208,-14.90456 3.379,-19.18228 1.03635,-1.56821 3.1404,-3.65992 5.05047,-5.02082 3.34785,-2.38534 7.01174,-4.35763 7.3523,-3.95778 0.58074,0.68183 3.98416,7.16474 3.98416,7.58913 0,0.27712 -0.79198,0.88153 -1.75997,1.34311 -3.82882,1.82585 -7.60286,6.40047 -7.60286,9.21566 0,0.99349 0.31461,1.06104 4.9415,1.06104 h 4.94148 v 9.62288 9.6229 h -10.14305 -10.14303 z m 23.92716,0 c 0,-11.77044 0.5521,-14.90456 3.379,-19.18228 1.03637,-1.56821 3.14042,-3.65992 5.05047,-5.02082 3.34787,-2.38534 7.01176,-4.35763 7.3523,-3.95778 0.58074,0.68183 3.98416,7.16474 3.98416,7.58913 0,0.27712 -0.79198,0.88153 -1.75995,1.34311 -3.82884,1.82585 -7.60286,6.40047 -7.60286,9.21566 0,0.99349 0.31459,1.06104 4.94148,1.06104 h 4.94148 v 9.62288 9.6229 h -10.14303 -10.14305 z m 428.09584,5.82521 c -1.19184,-2.17164 -2.09077,-4.01444 -1.99762,-4.0951 0.0932,-0.0806 0.98871,-0.55512 1.99003,-1.05442 4.2737,-2.13102 6.52653,-4.75711 7.47837,-8.71736 l 0.34378,-1.43042 h -4.95137 -4.95142 v -9.62288 -9.62288 h 10.20682 10.20681 l -0.26149,11.0533 c -0.23126,9.77866 -0.39876,11.4432 -1.45226,14.43433 -1.4874,4.22279 -5.96489,8.95343 -10.77031,11.37921 -1.77019,0.89356 -3.32103,1.62468 -3.44639,1.62468 -0.12543,0 -1.20306,-1.7768 -2.39495,-3.94846 z m 23.92716,0 c -1.19184,-2.17164 -2.09077,-4.01444 -1.9976,-4.0951 0.0932,-0.0806 0.98871,-0.55512 1.99001,-1.05442 4.2737,-2.13102 6.52656,-4.75711 7.47839,-8.71736 l 0.34376,-1.43042 h -4.95136 -4.95141 v -9.62288 -9.62288 h 10.2068 10.20681 l -0.26147,11.0533 c -0.23128,9.77866 -0.39875,11.4432 -1.45228,14.43433 -1.4874,4.22279 -5.96489,8.95343 -10.77031,11.37921 -1.77019,0.89356 -3.32102,1.62468 -3.44639,1.62468 -0.12543,0 -1.20306,-1.7768 -2.39495,-3.94846 z"
       style="fill:#f07178;fill-opacity:1;stroke-width:0.520155" />
  </g>
</svg>
