<?xml version="1.0" encoding="UTF-8" standalone="no"?>
<!-- Created with Inkscape (http://www.inkscape.org/) -->

<svg
   xmlns:dc="http://purl.org/dc/elements/1.1/"
   xmlns:cc="http://creativecommons.org/ns#"
   xmlns:rdf="http://www.w3.org/1999/02/22-rdf-syntax-ns#"
   xmlns:svg="http://www.w3.org/2000/svg"
   xmlns="http://www.w3.org/2000/svg"
   xmlns:sodipodi="http://sodipodi.sourceforge.net/DTD/sodipodi-0.dtd"
   xmlns:inkscape="http://www.inkscape.org/namespaces/inkscape"
   width="143.42mm"
   height="96.137329mm"
   viewBox="0 0 143.42 96.137329"
   version="1.1"
   id="svg8"
   inkscape:version="0.92.4 5da689c313, 2019-01-14"
   sodipodi:docname="drawing.svg">
  <defs
     id="defs2" />
  <sodipodi:namedview
     id="base"
     pagecolor="#ffffff"
     bordercolor="#666666"
     borderopacity="1.0"
     inkscape:pageopacity="0.0"
     inkscape:pageshadow="2"
     inkscape:zoom="1"
     inkscape:cx="3.2506737"
     inkscape:cy="119.02611"
     inkscape:document-units="mm"
     inkscape:current-layer="layer1"
     showgrid="false"
     inkscape:window-width="3200"
     inkscape:window-height="1800"
     inkscape:window-x="0"
     inkscape:window-y="0"
     inkscape:window-maximized="0" />
  <metadata
     id="metadata5">
    <rdf:RDF>
      <cc:Work
         rdf:about="">
        <dc:format>image/svg+xml</dc:format>
        <dc:type
           rdf:resource="http://purl.org/dc/dcmitype/StillImage" />
        <dc:title />
      </cc:Work>
    </rdf:RDF>
  </metadata>
  <g
     inkscape:label="Layer 1"
     inkscape:groupmode="layer"
     id="layer1"
     transform="translate(-37.58779,-114.63731)">
    <path
       style="fill:#292d3e;stroke-width:0.35277778"
       d="m 76.175024,210.64139 c -8.343195,-0.12713 -19.684612,-0.35864 -25.203148,-0.51446 l -10.033704,-0.28331 -1.255186,-1.14964 -1.255185,-1.14966 -0.06455,-3.46733 c -0.211311,-11.34972 -0.255559,-24.71847 -0.156266,-47.21178 0.08528,-19.31844 0.0028,-26.22061 -0.344333,-28.82734 -0.35006,-2.62845 -0.362859,-3.82079 -0.05491,-5.11528 0.22085,-0.92836 0.503168,-2.76075 0.627373,-4.07196 0.161491,-1.70483 0.393625,-2.47202 0.814813,-2.6929 1.068473,-0.56033 9.17555,-1.18487 11.975154,-0.92253 5.454014,0.51108 86.270988,0.49873 99.738828,-0.0152 19.12442,-0.72985 23.83959,-0.7614 24.75831,-0.1657 1.194,0.7742 1.56311,2.98327 1.31291,7.85777 -0.16792,3.27167 -0.0838,5.03464 0.34661,7.2657 0.53889,2.79323 0.99207,8.40121 1.4439,17.86804 0.11113,2.32834 0.3637,6.13834 0.56127,8.46667 0.19756,2.32833 0.50767,9.55146 0.68913,16.05139 0.18146,6.49993 0.50332,14.63306 0.71523,18.07364 0.32416,5.26301 0.29736,6.93341 -0.16895,10.5275 -0.30483,2.34956 -0.55424,4.94406 -0.55424,5.76556 0,1.14909 -0.20986,1.69094 -0.9097,2.3489 l -0.9097,0.85524 -11.52572,0.24894 c -16.91097,0.36526 -73.013482,0.52499 -90.547935,0.25779 z m 91.823366,-4.28492 c 5.69458,-0.0815 7.21947,-0.20397 7.46395,-0.59965 1.14359,-1.85085 1.29768,-12.17004 0.39291,-26.31384 -0.18618,-2.91041 -0.50147,-10.21875 -0.70064,-16.24074 -0.19917,-6.022 -0.514,-12.76888 -0.69961,-14.99306 -0.18561,-2.22418 -0.4364,-5.94897 -0.55732,-8.2773 -0.12092,-2.32834 -0.5424,-6.60966 -0.93662,-9.51406 -0.5357,-3.94675 -0.65386,-6.07551 -0.46775,-8.42701 l 0.24902,-3.14629 -6.65587,0.24157 c -3.66074,0.13286 -9.1165,0.41926 -12.12393,0.63645 -5.7918,0.41828 -55.389641,0.48655 -87.665284,0.12068 -9.701389,-0.10997 -18.928861,-0.0995 -20.505492,0.0233 l -2.866603,0.22329 -0.194422,1.64159 c -0.106932,0.90287 -0.234713,1.79545 -0.283959,1.98351 -0.04925,0.18806 0.01618,3.2788 0.145401,6.86832 0.527626,14.65696 0.633095,21.28817 0.549865,34.57222 -0.157013,25.06023 -0.131716,40.15454 0.06763,40.35375 0.107665,0.10759 12.713467,0.3573 28.012895,0.55489 15.299426,0.1976 27.858418,0.40055 27.908868,0.451 0.11551,0.11554 59.218331,-0.0206 68.866961,-0.15866 z M 98.929189,200.76971 C 87.736543,200.25155 83.825462,199.49799 80.189,197.15898 c -3.576941,-2.30073 -5.085055,-5.5603 -6.319672,-13.65905 -1.750882,-11.48529 -2.105035,-16.19275 -2.097913,-27.88569 0.0068,-11.18259 0.321783,-15.30596 1.425635,-18.66334 1.331789,-4.05066 4.317976,-7.49967 8.027575,-9.27175 3.847899,-1.83814 7.590177,-2.10566 26.347625,-1.88348 30.22951,0.35808 37.82619,0.57909 43.67383,1.27061 6.21869,0.7354 7.95993,1.33402 11.37054,3.90906 2.57867,1.94691 4.12933,3.99965 5.24916,6.94876 2.25806,5.94667 2.81435,12.25568 2.83657,32.17028 0.019,17.05166 -0.0881,18.06684 -2.35605,22.32189 -2.78168,5.21898 -5.32441,6.20188 -17.91155,6.92376 -3.39549,0.19474 -9.90424,0.45554 -14.46389,0.57957 -4.55965,0.12402 -9.16341,0.27504 -10.23056,0.33559 -1.06715,0.0606 -4.87715,0.20801 -8.46666,0.3277 -3.58951,0.11968 -7.79639,0.27498 -9.34861,0.34512 -1.55222,0.0701 -5.60035,-0.001 -8.995841,-0.1583 z m 0.86431,-4.87196 c -0.18433,-0.1662 -4.462641,-2.65061 -9.507364,-5.52091 -5.044722,-2.8703 -9.677569,-5.59183 -10.295213,-6.04782 -1.332723,-0.98394 -1.991677,-1.06398 -1.743099,-0.21173 0.09904,0.33955 0.291849,1.41111 0.42847,2.38125 0.502994,3.57174 2.198493,6.27621 4.761417,7.59489 1.279006,0.65807 5.869464,1.62872 8.788703,1.85836 3.396203,0.26715 7.887737,0.23508 7.567086,-0.054 z m 26.608261,0.0817 1.10243,-0.22049 0.005,-4.27743 c 0.003,-2.68617 0.16731,-4.5968 0.44097,-5.13592 0.30963,-0.60999 1.35485,-1.22792 3.61077,-2.13468 5.24473,-2.1081 6.86145,-3.18787 7.94076,-5.30349 0.69843,-1.36904 0.9429,-3.1501 0.43771,-3.18897 -0.14552,-0.0112 -2.02768,-0.1474 -4.18258,-0.30268 -4.66023,-0.33581 -6.28714,-1.00744 -9.40229,-3.88153 -2.28945,-2.11229 -3.43664,-4.01149 -3.43664,-5.68945 0,-1.80936 1.13722,-5.70626 2.10003,-7.19613 1.30709,-2.0226 2.91201,-2.84593 5.49053,-2.81664 2.12435,0.0241 3.21671,0.42413 7.57888,2.77529 0.87313,0.4706 2.42173,0.96084 3.44135,1.08942 l 1.85384,0.23377 -0.70495,-1.64456 c -1.63999,-3.82595 -5.57444,-7.61298 -10.94024,-10.53031 -4.07614,-2.21617 -10.16896,-3.63239 -13.93005,-3.23792 -4.2848,0.44939 -8.39605,1.29583 -10.46507,2.15458 -2.86264,1.18814 -5.58775,3.90882 -6.58505,6.57435 -1.178651,3.15022 -1.160401,3.279 0.45079,3.17955 1.12557,-0.0695 1.71418,-0.39864 3.02955,-1.69423 2.0525,-2.02164 4.67124,-2.84658 7.22184,-2.27498 3.64185,0.81616 7.30523,3.42242 8.61571,6.12953 0.82666,1.70764 0.98755,5.33023 0.32468,7.31007 -1.21779,3.63722 -5.00781,5.82227 -8.47662,4.88701 -1.24658,-0.33611 -2.29371,-0.29532 -5.67188,0.22092 -2.27868,0.34823 -4.34243,0.75817 -4.58611,0.911 -0.33657,0.21107 -0.20522,0.73538 0.54652,2.18149 0.95533,1.83777 3.16766,4.05251 7.35192,7.35998 l 1.76649,1.39633 -0.0748,4.29205 c -0.0411,2.36063 -0.0532,5.36362 -0.0269,6.67331 l 0.0479,2.38125 h 7.01145 c 3.8563,0 7.50755,-0.0992 8.11389,-0.22049 z m 14.3316,-0.80612 c 0.74399,-0.0274 1.58905,-0.53561 2.84519,-1.71105 3.84528,-3.59826 5.05195,-4.6523 8.80722,-7.69322 2.14022,-1.73308 4.96276,-3.84748 6.27232,-4.69866 1.30956,-0.85117 2.33659,-1.58591 2.28231,-1.63274 -0.25848,-0.22297 -11.8031,-2.43452 -14.62571,-2.80178 l -1.47423,-0.19181 -0.58665,2.01801 c -1.51622,5.21561 -3.21521,6.79827 -10.84059,10.09836 l -1.32292,0.57252 v 3.15132 c 0,1.77273 0.15331,3.20275 0.35044,3.2689 0.19274,0.0647 1.8993,0.0144 3.79236,-0.11164 1.89306,-0.12608 3.91817,-0.24677 4.50026,-0.26821 z m 2.77389,-7.17548 c -1.99582,-1.33383 -2.27543,-2.24886 -1.10352,-3.61128 0.76514,-0.88953 0.92586,-0.93349 2.16333,-0.59181 0.73524,0.20301 1.85943,0.76774 2.49821,1.25496 1.408,1.07393 1.34689,2.31731 -0.16686,3.3952 -1.2811,0.91223 -1.37593,0.89973 -3.39116,-0.44707 z m 5.59615,-2.97047 c -0.24718,-0.0994 -0.98572,-0.88314 -1.64121,-1.74161 -1.25373,-1.64196 -1.31982,-2.54618 -0.2744,-3.75458 0.8463,-0.97826 1.75837,-0.73126 3.25672,0.88194 1.57392,1.69457 1.72523,2.5799 0.67019,3.92118 -0.71885,0.91387 -1.11926,1.05184 -2.0113,0.69307 z m 8.63757,9.39377 c 3.81873,-0.60476 4.75566,-1.05867 5.98734,-2.90064 0.6175,-0.92347 1.36374,-2.51057 1.65831,-3.52689 0.60275,-2.07955 1.1436,-6.61035 0.78908,-6.61035 -1.16629,0 -11.30477,7.67965 -15.64263,11.84891 l -2.0386,1.95937 3.52778,-0.21171 c 1.94028,-0.11644 4.5137,-0.36785 5.71872,-0.55869 z m -51.05676,-5.20939 -0.006,-4.82988 -1.00105,-0.70555 c -3.94639,-2.78147 -7.155901,-6.47928 -8.190651,-9.4368 -0.26462,-0.75636 -0.69689,-1.32445 -1.00934,-1.32649 -0.300572,-0.002 -2.689618,0.32005 -5.308993,0.71559 -2.619375,0.39553 -6.746875,0.99245 -9.172223,1.32649 -4.153076,0.57197 -4.416548,0.65553 -4.526989,1.43569 -0.07836,0.55356 0.154693,1.02169 0.702522,1.41111 1.607146,1.14243 6.785289,4.34328 8.164999,5.04715 0.771839,0.39376 1.579411,0.86111 1.794602,1.03855 0.695696,0.57366 11.941543,7.20493 15.031533,8.86356 1.64924,0.88527 3.11768,1.53778 3.2632,1.45002 0.14552,-0.0878 0.26184,-2.33301 0.25849,-4.98944 z m -12.462842,-4.24029 c -0.755505,-0.83482 -0.735803,-1.39109 0.117606,-3.32036 0.945395,-2.13722 1.508294,-2.56105 2.879225,-2.16787 1.80641,0.51807 2.1373,1.38733 1.37742,3.61856 -0.35493,1.0422 -0.86165,2.03196 -1.12602,2.19946 -0.8342,0.52852 -2.637128,0.34547 -3.248231,-0.32979 z m -5.0096,-3.39577 c -0.47625,-0.47625 -0.86591,-1.16567 -0.86591,-1.53204 0,-0.85241 4.214985,-5.36459 5.010485,-5.36378 1.004048,0.001 2.372011,0.77457 2.59123,1.46527 0.317828,1.00139 -0.156002,2.06517 -1.737829,3.90156 -1.256566,1.45879 -2.748114,2.3949 -3.815898,2.3949 -0.173895,0 -0.705828,-0.38966 -1.182078,-0.86591 z m 77.375342,-9.276 -0.10097,-3.43913 -2.82223,-0.4197 c -2.65693,-0.39512 -10.69144,-1.80901 -14.99305,-2.63845 -1.06715,-0.20577 -2.89278,-0.61438 -4.05695,-0.90803 -1.16416,-0.29365 -3.35127,-0.80745 -4.86022,-1.14178 -1.78871,-0.39631 -3.26686,-0.98367 -4.24715,-1.68766 -2.10373,-1.51078 -4.88012,-2.3865 -5.87616,-1.85344 -0.96762,0.51786 -2.12619,3.19318 -2.12619,4.90974 0,1.00423 0.30323,1.67262 1.27263,2.80514 1.85557,2.16781 3.56936,2.90858 7.52955,3.25456 6.85798,0.59913 13.64988,1.36019 15.3631,1.72149 6.97601,1.47115 13.53318,2.76089 14.21208,2.7954 0.79432,0.0404 0.805,-0.0111 0.70556,-3.39814 z m -80.534308,-2.55052 c 5.464715,-0.65559 21.275108,-3.58647 22.101258,-4.09706 0.1799,-0.11118 1.08527,-0.008 2.01193,0.22966 2.16833,0.55573 4.77345,0.18325 5.70397,-0.81554 0.84888,-0.91117 0.9459,-3.57375 0.19564,-5.36935 -0.56354,-1.34875 -2.31732,-2.41458 -4.94033,-3.00241 -2.14857,-0.48151 -3.72098,0.1692 -4.9701,2.05676 -0.51408,0.77682 -1.19929,1.51565 -1.52269,1.64184 -0.32341,0.12619 -2.65176,0.3768 -5.174121,0.55691 -10.565978,0.75446 -16.650439,1.6099 -21.325482,2.99824 l -1.867172,0.55449 0.152065,2.89721 c 0.08364,1.59346 0.257087,3.06714 0.385452,3.27483 0.164681,0.26646 1.041235,0.24811 2.977593,-0.0624 1.509314,-0.24199 4.331709,-0.63044 6.271987,-0.86321 z M 166.30975,161.303 c 0,-9.26357 -1.36188,-19.72869 -2.98397,-22.92972 -0.99132,-1.95628 -3.28683,-4.33918 -5.28245,-5.48355 -2.56497,-1.47086 -8.40797,-1.99612 -25.07108,-2.25376 -25.4742,-0.39388 -43.06824,-0.29434 -45.81186,0.25917 -4.486536,0.90515 -8.651889,4.59074 -10.013721,8.86035 -0.511161,1.6026 -0.628555,3.41932 -0.674529,10.43876 -0.03062,4.67417 0.05067,8.67054 0.180644,8.88084 0.167149,0.27046 0.854512,0.23766 2.348717,-0.11206 3.062372,-0.71675 10.153587,-1.84028 13.248213,-2.09905 l 2.669138,-0.2232 0.945579,-2.90354 c 1.952758,-5.99623 5.535529,-9.75346 11.150979,-11.69398 5.13759,-1.77539 15.12231,-2.03695 20.42181,-0.53498 5.27261,1.49434 12.8425,6.12221 15.68162,9.58699 2.51022,3.06339 4.26656,6.50585 4.65368,9.12133 0.0902,0.60941 1.08907,0.8686 9.54139,2.47583 3.29848,0.62721 6.31473,1.26917 6.70278,1.42658 0.38806,0.15741 1.06275,0.29626 1.49931,0.30856 0.7655,0.0215 0.79375,-0.0896 0.79375,-3.12457 z m -13.91472,-4.3399 c -0.72346,-1.03288 -0.69612,-2.15728 0.0682,-2.80388 1.07704,-0.91118 6.4407,-2.80799 7.61729,-2.69379 0.88676,0.0861 1.2442,0.37458 1.75253,1.4146 0.77125,1.57797 0.38241,2.63086 -1.08972,2.95068 -0.52798,0.11471 -1.85294,0.59283 -2.94435,1.0625 -2.57565,1.10838 -4.65769,1.13531 -5.40394,0.0699 z m -66.871395,-3.62749 c -2.425347,-1.02817 -4.727222,-2.004 -5.115278,-2.16851 -0.536624,-0.22749 -0.7311,-0.69547 -0.812253,-1.95455 -0.09339,-1.44902 0.0066,-1.72966 0.801712,-2.25065 0.850142,-0.55703 1.026683,-0.55745 2.752528,-0.006 2.763255,0.88223 8.032704,3.7983 8.855767,4.9007 0.713531,0.9557 0.714456,0.98751 0.06383,2.19565 -0.447699,0.83133 -0.897784,1.21419 -1.398386,1.18954 -0.406009,-0.02 -2.722573,-0.87758 -5.147921,-1.90575 z m 61.224395,-2.41944 c -0.29541,-0.22053 -0.63431,-0.8961 -0.75311,-1.50127 -0.25237,-1.28564 -0.009,-1.56198 4.25929,-4.84576 3.66466,-2.81905 5.69836,-4.1081 6.48129,-4.1081 0.84408,0 2.16591,1.44927 2.16591,2.37471 0,0.53284 -1.30237,1.7564 -4.62445,4.34459 -4.65413,3.62598 -6.46944,4.52673 -7.52893,3.73583 z m -57.146149,-3.94009 c -3.647546,-3.24527 -4.431023,-4.21134 -4.431023,-5.4637 0,-1.03382 1.211505,-2.1116 2.368839,-2.10736 0.851591,0.003 7.864701,6.83377 7.850498,7.64626 -0.01753,1.00208 -1.612611,2.58199 -2.606799,2.58199 -0.107226,0 -1.538908,-1.19574 -3.181515,-2.65719 z m 52.142029,-1.28312 c -0.41434,-0.20063 -0.95638,-0.74416 -1.20453,-1.20783 -0.49589,-0.92658 -0.33986,-1.38854 1.23999,-3.67131 2.44273,-3.52956 2.68076,-3.65463 4.64499,-2.44067 1.3508,0.83484 1.47384,1.55564 0.58519,3.42834 -0.73699,1.55308 -3.32315,4.31287 -4.01086,4.28012 -0.27579,-0.0131 -0.84044,-0.18802 -1.25478,-0.38865 z m -44.583461,-2.50911 c -0.29371,-0.23636 -0.79291,-0.82663 -1.109332,-1.31169 -0.31642,-0.48507 -1.544002,-1.9932 -2.72796,-3.35139 -1.183954,-1.3582 -2.153193,-2.71959 -2.15386,-3.02531 -0.0019,-0.84923 1.518641,-2.08997 2.561206,-2.08997 0.661913,0 1.213862,0.37938 1.917541,1.31801 0.54345,0.72491 1.384965,1.76931 1.870035,2.32088 1.34243,1.52648 2.822231,3.81665 2.822231,4.36773 0,0.62562 -1.584641,2.22755 -2.188831,2.21272 -0.25136,-0.006 -0.69732,-0.20461 -0.99103,-0.44098 z m -39.186631,56.73291 c -2.044946,-0.75287 -3.583861,-1.63406 -4.257163,-2.43765 -2.066768,-2.46673 -2.252938,-7.0165 -0.382348,-9.34417 2.25973,-2.81189 6.841241,-4.0142 9.989581,-2.62154 2.200967,0.97359 4.443192,3.30039 4.944028,5.13051 0.768282,2.80741 0.590249,4.95518 -0.546747,6.59586 -1.539166,2.22102 -3.458048,3.19896 -6.217418,3.16864 -1.244133,-0.0137 -2.832604,-0.23492 -3.529933,-0.49165 z m 5.389863,-4.65764 c 0.790144,-0.71507 0.82215,-2.27395 0.07885,-3.84034 -0.754963,-1.59097 -1.310043,-1.99218 -2.75619,-1.99218 -3.226272,0 -4.42755,1.16182 -3.932076,3.80292 0.20389,1.08683 0.485598,1.37641 2.067299,2.12508 1.988906,0.94143 3.429824,0.91113 4.542121,-0.0955 z M 57.65419,181.87916 c -1.466516,-0.63522 -3.04537,-2.06747 -3.735661,-3.3888 -0.276104,-0.5285 -0.497672,-1.94986 -0.497672,-3.19257 0,-2.9904 1.15829,-4.86461 3.770515,-6.10102 2.363608,-1.11873 4.06077,-1.08906 6.375759,0.11148 2.941752,1.52559 4.563734,3.31424 4.842337,5.33992 0.454914,3.30762 -0.740215,5.44027 -3.950252,7.04906 -1.783351,0.89376 -4.965237,0.97883 -6.805026,0.18193 z m 5.42048,-4.40206 c 2.000616,-1.57368 0.566077,-4.5605 -2.190362,-4.5605 -1.615024,0 -2.746274,0.80795 -3.074702,2.19598 -0.18232,0.77054 -0.0157,1.17301 0.839765,2.02847 1.297945,1.29795 3.034776,1.42984 4.425299,0.33605 z M 49.536761,166.16009 c -0.911105,-0.55407 -1.013746,-0.77717 -0.823043,-1.78895 0.434486,-2.30517 0.237032,-2.26183 10.163706,-2.23052 9.993874,0.0315 9.90892,0.0118 10.295104,2.39156 0.346902,2.13771 -0.379889,2.29999 -10.205899,2.27892 -7.426675,-0.0159 -8.508351,-0.0906 -9.429868,-0.65101 z m -0.322876,-7.13592 c -0.760704,-0.33934 -1.258948,-1.93613 -0.92875,-2.97649 0.47743,-1.50425 1.450246,-1.62376 10.224998,-1.25616 5.888241,0.24668 8.411931,0.47918 8.812835,0.8119 0.354846,0.2945 0.561778,1.02633 0.561778,1.98677 0,1.22482 -0.141147,1.56533 -0.725781,1.75089 -1.053617,0.3344 -17.121105,0.0507 -17.94508,-0.31691 z m 5.637163,-6.53981 -6.154531,-0.20526 -0.656497,-1.12527 c -0.607414,-1.04113 -0.615148,-1.20522 -0.103444,-2.19474 l 0.553052,-1.06949 8.551031,0.20051 c 9.476908,0.22221 10.221685,0.39826 10.406826,2.45998 0.204735,2.27993 -0.230111,2.3467 -12.596437,1.93427 z m 7.389253,-7.68748 c -0.80769,-0.29698 -1.701234,-1.14204 -3.57815,-3.38401 -1.547903,-1.84896 -1.713517,-2.21719 -1.713517,-3.80988 0,-2.73511 1.729658,-5.27711 4.3211,-6.35052 2.351314,-0.97395 6.593399,1.53602 8.062345,4.77034 0.77807,1.71316 0.864363,4.69968 0.182917,6.33061 -0.815332,1.95136 -2.10037,2.698 -4.588242,2.66588 -1.186507,-0.0153 -2.395411,-0.1154 -2.686453,-0.22242 z m 3.522578,-5.30597 c -0.01067,-2.71498 -1.997615,-4.46688 -3.511895,-3.09648 -1.053141,0.95308 -0.884243,1.71607 0.695889,3.14362 1.909749,1.72534 2.822913,1.71006 2.816006,-0.0472 z m -18.766814,3.63513 c -1.813657,-1.25802 -3.805764,-3.95809 -3.805764,-5.15826 0,-3.36483 1.83753,-6.68261 4.001987,-7.22585 1.413897,-0.35487 3.885657,0.46194 5.450051,1.801 1.594252,1.36462 3.258416,4.77336 3.340962,6.84336 0.09587,2.40424 -1.964389,4.03665 -5.583462,4.42396 -1.875364,0.2007 -2.231134,0.12918 -3.403774,-0.68421 z m 4.603597,-4.31396 c 0.499712,-0.89293 -0.219098,-2.52676 -1.374534,-3.12425 -1.349668,-0.69794 -1.351716,-0.69716 -1.95624,0.74967 -0.475217,1.13735 -0.472523,1.35562 0.02613,2.11667 0.678844,1.03604 2.777512,1.19984 3.30464,0.25791 z"
       id="path309"
       inkscape:connector-curvature="0" />
    <path
       style="stroke-width:0.35714287"
       d=""
       id="path240"
       inkscape:connector-curvature="0"
       transform="scale(0.26458333)" />
    <path
       style="fill:#f07178;stroke-width:0.5"
       d="m 243.14336,59.653493 c -18.44132,0.304123 -36.9925,-0.505169 -55.33887,1.712891 -14.83256,2.612939 -27.51842,13.141523 -35.04101,25.901367 -6.33757,11.01768 -5.28654,24.266059 -5.85724,36.497939 0.046,14.25672 -0.5464,28.57327 0.64142,42.79015 -0.11902,1.87761 1.56274,2.6922 3.19433,2.06054 20.17516,-3.66367 40.34506,-7.6353 60.81152,-9.32031 1.60651,-0.43365 3.8229,0.02 5.19239,-0.8125 4.45832,-13.09874 8.75373,-26.8635 18.49023,-37.14551 11.39753,-12.89592 28.22875,-19.55267 45.03316,-21.549523 19.19647,-2.42789 38.99376,-2.779214 57.92875,1.656953 18.46672,5.30803 35.4869,15.08604 50.53418,26.91992 12.03637,9.51308 20.56614,22.9662 25.91211,37.22363 1.53368,2.81219 0.42282,7.87863 4.31836,8.87988 16.34209,4.55859 33.19533,7.02581 49.74707,10.71875 5.33838,0.70482 10.47374,3.01508 15.86914,3.06836 2.51982,-0.47706 1.56335,-4.01759 2.00489,-5.81347 0.34212,-21.41575 -1.21581,-42.87249 -4.13413,-64.08411 C 480.19416,104.7105 478.15888,89.635859 467.88359,79.395681 461.93148,73.067407 454.8998,67.048192 446.03563,65.592193 429.7392,61.983933 412.91066,62.077695 396.31454,61.19804 345.27853,59.555198 294.19975,59.662966 243.14336,59.653493 Z m -30.78418,11.555664 c 4.95907,0.358642 7.20324,5.808717 10.34317,8.905888 4.85419,6.464043 10.6466,12.51258 13.89511,19.992545 0.73306,3.61681 -3.12859,5.96467 -5.42774,8.09864 -5.66919,3.79111 -9.27183,-5.43302 -12.48857,-8.410776 -5.19312,-6.922011 -11.72483,-13.00633 -15.78877,-20.687859 0.005,-3.644186 3.85394,-6.075726 6.84668,-7.416016 0.83973,-0.301618 1.7241,-0.496657 2.62012,-0.482422 z m 192.98828,16.206055 c 3.63505,0.614515 7.2617,2.801971 9.48437,5.774414 1.97354,4.795816 -1.83293,9.648264 -4.12792,13.605154 -3.29557,4.70943 -7.12634,9.4286 -12.3877,11.99446 -4.69503,-0.71737 -9.2375,-4.11532 -9.99414,-8.98145 1.1381,-5.9302 5.74767,-10.524022 8.96095,-15.449676 2.19936,-2.590316 4.25278,-6.683224 8.06444,-6.942902 z m -217.37207,6.493164 c 4.85763,1.040184 8.08519,5.570616 11.78126,8.568004 6.00698,6.02663 12.58597,11.66111 17.67772,18.49254 2.11917,3.66457 -2.1037,6.9099 -4.48245,9.09793 -1.58349,1.45098 -4.23669,2.90731 -5.97458,0.822 -8.55523,-7.17168 -17.30858,-14.34231 -24.48633,-22.93165 -2.91334,-3.12243 -3.34752,-8.353356 -0.005,-11.332027 1.55399,-1.277571 3.40381,-2.666075 5.48926,-2.716797 z m 262.11719,3.974609 c 4.21878,0.589066 7.99051,4.779115 8.11425,9.024415 -2.70664,4.9424 -7.86001,8.01805 -11.96679,11.71973 -8.7078,6.60655 -17.00474,14.2372 -27.16114,18.55859 -3.29945,1.53184 -7.78117,0.15517 -8.58593,-3.68848 -1.55207,-3.52287 -0.41779,-7.63184 2.65234,-9.93554 10.75716,-9.0832 21.86457,-18.02162 34.2597,-24.793766 0.85294,-0.378816 1.74803,-0.833797 2.68757,-0.884949 z M 165.81133,120.88299 c 9.26214,1.42229 17.6409,6.23038 25.88672,10.45996 5.54075,3.41426 12.11068,6.33691 15.58984,12.09765 0.65908,2.6709 -1.75914,5.09021 -2.79102,7.41504 -1.49847,2.58598 -4.85609,3.03045 -7.28515,1.47656 -12.29741,-4.73318 -24.70585,-9.39825 -36.47949,-15.31347 -2.06457,-3.4813 -2.34,-8.06366 -1.50391,-11.97461 1.27662,-2.24953 4.03883,-3.89602 6.58301,-4.16113 z m 296.65234,18.56543 c 5.11601,-0.30806 7.57217,5.45698 8.25781,9.67187 0.78558,3.88561 -3.31891,5.77774 -6.34203,6.75102 -8.64608,2.63557 -17.21869,7.81646 -26.54078,6.53707 -5.64291,-1.49183 -7.94688,-10.67264 -2.29297,-13.61426 7.96094,-4.62988 16.91516,-7.63415 25.94629,-9.28906 0.32299,-0.0316 0.6472,-0.0507 0.97168,-0.0566 z"
       id="path73"
       inkscape:connector-curvature="0"
       transform="matrix(0.26458333,0,0,0.26458333,37.58779,114.63731)" />
    <path
       style="fill:#f07178;stroke-width:0.5"
       d="m 222.01836,220.34392 c -20.97067,2.19026 -41.78833,5.74806 -62.6105,9.05144 -2.64363,0.96097 -7.0662,0.0246 -8.41978,3.11067 -0.63241,2.43016 0.14346,5.14135 2.5752,6.2334 15.66944,11.35712 33.01907,20.06095 49.27142,30.5123 17.50358,10.29371 34.84136,20.96102 53.01237,30.04839 1.40928,0.29557 4.02034,2.92288 4.77578,0.49986 0.70585,-12.05587 0.56751,-24.15502 0.78125,-36.22168 -13.63931,-9.32127 -26.66611,-20.83824 -33.85059,-35.99707 -1.32427,-2.33847 -1.81771,-5.74773 -4.28808,-7.16797 -0.40827,-0.0935 -0.83141,-0.0801 -1.24707,-0.0693 z m -10.97266,6.8252 c 4.43694,0.25874 10.22846,3.22734 9.56836,8.41797 -1.37633,6.49796 -6.51606,11.46834 -11.2373,15.80468 -2.84752,2.1557 -6.28826,4.85858 -10.03614,4.51563 -3.41537,-1.72633 -6.3875,-5.04506 -7.27734,-8.78516 2.46246,-5.63765 7.39176,-9.85368 11.45269,-14.36782 2.27883,-1.92187 4.44044,-5.02145 7.52973,-5.5853 z m 11.24121,17.76855 c 3.98934,0.11542 9.89095,2.04944 9.42188,7.0166 -0.42323,5.33173 -2.19912,10.88558 -5.65821,15.02442 -3.22254,1.39515 -7.3205,1.0715 -10.50586,-0.37696 -4.23909,-2.08413 -3.54875,-7.50463 -1.7998,-11.04199 1.69743,-3.57306 2.98786,-7.96636 6.38769,-10.28222 0.6892,-0.26577 1.42118,-0.33735 2.1543,-0.33985 z"
       id="path75"
       inkscape:connector-curvature="0"
       transform="matrix(0.26458333,0,0,0.26458333,37.58779,114.63731)" />
    <path
       style="fill:#f07178;stroke-width:0.5"
       d="m 405.46367,233.52361 c -3.5421,10.07036 -5.72186,21.66834 -14.10156,29.17285 -9.77159,8.59332 -22.20095,13.24261 -33.86133,18.61817 0.15765,7.92616 -0.35792,15.93538 0.42871,23.81347 2.33446,1.54924 5.68328,0.3936 8.36133,0.69043 8.83561,-0.58106 17.84607,-0.32206 26.53418,-2.13574 6.5107,-3.3737 11.29256,-9.28805 16.88267,-13.92172 17.04442,-15.75288 35.48701,-29.89829 54.44056,-43.26072 0.50941,-0.52049 2.97208,-1.85672 0.92384,-2.03924 -19.3624,-4.33641 -38.91095,-7.94091 -58.53258,-10.8847 -0.35658,-0.0348 -0.717,-0.0833 -1.07582,-0.0528 z m 12.75879,9.79004 c 4.74916,0.79968 7.86221,5.18901 10.82617,8.61426 2.72611,3.06249 3.02933,7.83405 0.13737,10.91354 -1.4398,2.31172 -3.80738,4.21851 -6.68327,3.40872 -3.64756,-1.58483 -5.76802,-5.50587 -8.19724,-8.5049 -2.7145,-3.38432 -3.68006,-8.65979 -0.25295,-11.93357 1.05868,-1.24732 2.39591,-2.57126 4.16992,-2.49805 z m -16.37793,17.73437 c 5.15391,1.30568 10.79932,3.30137 14.18262,7.62989 2.46078,3.25757 0.80224,7.87776 -2.56739,9.75976 -2.23529,1.76117 -5.38576,3.95547 -8.12793,1.82422 -4.14501,-2.88223 -9.84182,-5.28878 -11.49121,-10.46582 -0.59292,-3.84889 3.17174,-6.52519 5.40625,-9.05566 0.86589,0.10254 1.73177,0.20507 2.59766,0.30761 z"
       id="path77"
       inkscape:connector-curvature="0"
       transform="matrix(0.26458333,0,0,0.26458333,37.58779,114.63731)" />
    <path
       style="fill:#ffcb6b;stroke-width:0.5"
       d="m 307.8289,112.63689 c -13.43512,0.66108 -26.84303,2.99069 -39.73623,6.82165 -14.82675,4.46774 -27.14962,16.6624 -31.29083,31.6472 -0.39291,2.0046 -2.31677,5.29705 -0.0843,6.80752 5.36713,1.15844 10.76322,-1.68209 14.41079,-5.49845 7.3229,-7.25805 18.10123,-11.9199 28.41928,-9.18222 12.15829,3.05735 23.7145,10.19262 30.72754,20.72852 4.70708,8.00611 4.52149,17.89063 3.25098,26.79981 -2.54824,12.32649 -14.09764,22.33218 -26.85645,22.00488 -5.14893,-0.23461 -10.17019,-2.00403 -15.38964,-1.24317 -9.59467,0.85111 -19.25988,2.17523 -28.52149,4.83887 -2.24124,0.56493 -1.4094,3.05127 -0.49511,4.41699 5.53883,12.81031 17.14807,21.31775 27.48352,30.0674 2.86903,2.32147 5.75039,4.62765 8.62487,6.94237 -0.039,16.89847 -0.15917,33.83041 -0.14746,50.70801 19.38109,-0.3584 38.80027,0.11179 58.1543,-1.02246 3.30764,0.26915 3.80117,-1.89168 3.3674,-4.72549 0.51743,-10.25244 -0.19897,-20.68773 1.72733,-30.80283 1.46955,-4.2632 6.718,-5.26153 10.21484,-7.27539 10.11041,-4.82065 21.65956,-7.94504 29.69336,-16.16211 4.04086,-4.5195 7.04105,-10.77557 6.20019,-16.94239 -1.05811,-1.5692 -3.83906,-0.53074 -5.42964,-1.15598 -12.89126,-1.41699 -27.20126,-0.56566 -38.18364,-8.63406 -7.45874,-5.71009 -14.84446,-12.18048 -19.35449,-20.54687 -3.60411,-7.61781 -0.71028,-16.3104 1.38309,-23.94294 2.63301,-8.89273 7.92608,-18.6642 17.76339,-20.75921 7.14875,-0.66659 14.79346,-1.03208 21.3271,2.49804 9.76679,4.27823 18.93208,10.56348 29.80181,11.67286 1.46649,0.0105 3.6072,1.01149 4.82227,0.30371 -6.01646,-18.486 -21.25936,-32.10973 -37.29494,-42.12835 C 346.16712,118.84944 326.94,112.95317 307.82886,112.63689 Z"
       id="path83"
       inkscape:connector-curvature="0"
       transform="matrix(0.26458333,0,0,0.26458333,37.58779,114.63731)" />
    <path
       style="fill:#ffcb6b;stroke-width:0.5"
       d="m 272.07597,158.35759 c -7.14442,0.0514 -11.69121,6.35835 -15.63964,11.43164 -1.9143,2.84578 -5.20523,3.79805 -8.4795,3.78253 -33.97215,3.37934 -68.67618,4.14974 -101.45605,14.63154 -0.38478,7.58872 0.25629,15.27323 1.33984,22.77734 1.20053,2.91263 5.27386,1.18556 7.55931,1.20437 36.2107,-4.70174 72.38703,-10.10909 108.00029,-18.26372 3.41459,-1.32852 6.86968,-1.20331 10.3492,-0.20143 7.14912,1.22184 15.81096,2.27078 21.74355,-2.82613 4.04351,-4.43092 3.37075,-11.18832 2.42382,-16.65918 -1.18537,-7.79077 -8.74012,-12.2279 -15.68164,-14.23731 -3.2884,-0.97936 -6.70512,-1.7815 -10.15918,-1.63965 z"
       id="path85"
       inkscape:connector-curvature="0"
       transform="matrix(0.26458333,0,0,0.26458333,37.58779,114.63731)" />
    <path
       style="fill:#ffcb6b;stroke-width:0.5"
       d="m 349.92461,171.62908 c -4.10507,0.40887 -5.91342,5.09544 -7.5291,8.31164 -2.28828,5.55721 -4.20287,12.40768 -0.4709,17.81726 4.81598,8.05669 13.25802,13.83926 22.66894,14.84961 23.38244,3.34292 47.12854,3.98853 70.32662,8.70775 16.29398,2.9632 32.46376,6.68109 48.78615,9.42848 1.67016,0.45014 4.00743,0.0162 3.89309,-2.1704 0.40957,-7.84237 0.026,-15.87125 -0.55078,-23.62208 -35.77521,-5.90326 -71.69333,-11.63714 -106.71582,-21.18945 -9.93381,-2.71135 -17.60189,-11.2492 -28.1709,-12.09961 -0.74441,-0.0508 -1.49172,-0.0534 -2.2373,-0.0332 z"
       id="path87"
       inkscape:connector-curvature="0"
       transform="matrix(0.26458333,0,0,0.26458333,37.58779,114.63731)" />
    <path
       style="fill:#ffcb6b;stroke-width:0.5"
       d="m 485.0785,252.39863 c -7.1205,3.26531 -13.28614,8.39108 -19.7041,12.85156 -16.18504,12.11322 -31.9477,25.02415 -46.30762,39.18848 15.763,-0.73717 31.74702,-1.36253 47.08398,-5.35059 8.94773,-2.61697 13.24186,-11.95691 16.14816,-20.01509 2.55058,-8.3955 4.6426,-17.31566 3.7913,-26.11967 -0.136,-0.42878 -0.57991,-0.65338 -1.01172,-0.55469 z"
       id="path89"
       inkscape:connector-curvature="0"
       transform="matrix(0.26458333,0,0,0.26458333,37.58779,114.63731)" />
    <path
       style="fill:#ffcb6b;stroke-width:0.5"
       d="m 154.48084,260.38691 c -2.42241,0.522 -0.19193,3.77427 -0.38281,5.24707 1.69445,10.97798 4.20995,22.91096 13.05176,30.50489 7.52086,6.92773 18.32972,7.71072 27.86426,9.80175 13.16421,2.14847 26.65785,2.76353 39.93554,1.60157 0.34985,-0.99381 -2.02437,-1.51832 -2.56445,-2.19532 -25.12572,-14.74544 -50.53444,-29.01087 -75.47363,-44.06836 -0.76968,-0.35207 -1.54825,-0.91107 -2.43067,-0.8916 z"
       id="path95"
       inkscape:connector-curvature="0"
       transform="matrix(0.26458333,0,0,0.26458333,37.58779,114.63731)" />
    <path
       style="fill:#ffcb6b;stroke-width:0.5"
       d="m 86.020882,282.53437 c -5.100934,0.17909 -11.732574,1.29595 -13.554687,6.88965 -1.105317,3.83249 -0.594348,8.38003 1.522461,11.76465 4.062394,3.63024 9.493072,5.81527 14.856445,6.55664 5.021222,0.44702 10.735374,-2.78574 10.889648,-8.27051 0.201886,-5.43027 -2.098174,-11.00558 -5.772461,-14.95117 -2.205169,-1.74531 -5.221691,-2.08447 -7.941406,-1.98926 z"
       id="path97"
       inkscape:connector-curvature="0"
       transform="matrix(0.26458333,0,0,0.26458333,37.58779,114.63731)" />
    <path
       style="fill:#ffcb6b;stroke-width:0.5"
       d="m 87.201546,220.26484 c -6.180486,-0.52896 -12.29926,5.54813 -10.947265,11.75196 2.749552,5.10898 8.458981,9.41638 14.545898,8.14355 5.5943,-0.68905 10.527491,-6.5 8.766601,-12.23828 -1.65787,-5.16415 -7.076133,-8.18627 -12.365234,-7.65723 z"
       id="path99"
       inkscape:connector-curvature="0"
       transform="matrix(0.26458333,0,0,0.26458333,37.58779,114.63731)" />
    <path
       style="fill:#ffcb6b;stroke-width:0.5"
       d="m 97.351937,80.326366 c -4.543201,0.174809 -8.907184,6.322078 -5.073242,10.025391 3.352927,3.345307 6.730109,8.087808 11.822265,8.521484 3.11211,-0.446528 2.26922,-4.648357 2.2929,-6.837483 -0.22799,-4.992367 -3.47307,-11.404258 -9.041923,-11.709392 z"
       id="path103"
       inkscape:connector-curvature="0"
       transform="matrix(0.26458333,0,0,0.26458333,37.58779,114.63731)" />
    <path
       style="fill:#ffcb6b;stroke-width:0.5"
       d="m 43.470101,77.849804 c -2.637958,0.939622 -2.86043,4.574941 -4.02258,6.771442 -1.919272,4.290358 2.706113,8.652182 6.759885,9.105511 3.776183,0.961592 8.673654,-2.139365 7.319336,-6.399414 -1.24042,-4.559807 -5.253363,-8.84632 -10.056641,-9.477539 z"
       id="path105"
       inkscape:connector-curvature="0"
       transform="matrix(0.26458333,0,0,0.26458333,37.58779,114.63731)" />
    <path
       style="fill:#82aaff;stroke-width:0.35355338"
       d="m 509.47558,15.792167 c -24.85757,0.705077 -49.69285,2.021518 -74.51778,3.435423 -37.36985,0.99952 -74.75988,0.772622 -112.13973,0.973056 -66.30976,0.217134 -132.62009,0.01542 -198.92737,-0.592465 -30.815988,-0.09524 -61.640841,-0.666439 -92.452162,0.06077 -3.815277,0.172744 -7.710409,0.303394 -11.443803,0.934861 -1.308644,7.689316 -1.992571,15.471995 -1.65834,23.274399 0.54837,30.142039 2.3756,60.255009 2.192336,90.410259 0.295599,68.33658 -0.114525,136.67549 0.371217,205.01102 0.244206,1.27567 -0.345546,3.06703 0.374346,4.10616 11.65876,1.01115 23.4023,0.84405 35.09803,1.21122 57.290796,1.04453 114.590176,1.61322 171.879806,2.69227 82.49101,0.1949 164.98326,0.0498 247.47352,-0.34476 13.8111,-0.23503 27.65862,-0.0204 41.43557,-1.12115 1.94264,-0.12831 4.33871,-0.64573 4.72602,-2.92786 3.36286,-11.27484 2.52452,-23.22586 2.77165,-34.84503 0.18226,-19.17541 -0.28206,-38.35118 -1.55373,-57.48671 -2.50697,-40.37638 -2.96192,-80.84984 -5.49068,-121.22319 -1.7753,-22.88687 -2.51921,-45.86871 -5.64275,-68.635593 -1.27113,-9.613775 -2.476,-19.267639 -1.99825,-28.986865 0.0139,-5.299757 0.72818,-10.562847 0.91288,-15.848445 -0.36713,-0.266434 -0.99048,0.0027 -1.41078,-0.09737 z M 232.39262,42.176089 c 51.70562,0.258256 103.41284,0.941888 155.10095,2.33124 19.93522,0.780409 40.00842,1.502384 59.6306,5.335423 15.21669,2.918845 28.37899,12.704365 37.84192,24.675294 6.9493,9.543827 10.20585,21.17778 12.66403,32.571064 4.98465,26.47071 4.66525,53.55843 5.10895,80.39371 0.16465,26.12313 0.66758,52.28723 -0.75299,78.38001 -0.47154,8.82211 -2.28756,17.66779 -6.62803,25.44288 -4.04957,8.17482 -9.36107,16.49935 -17.94461,20.45827 -10.67879,5.03506 -22.70746,5.76453 -34.28304,6.97988 -41.06526,3.21111 -82.29052,3.30146 -123.4232,5.20908 -20.27291,0.69846 -40.5416,1.61776 -60.81879,2.1355 -23.35157,-0.46688 -46.80914,-0.97198 -69.93516,-4.49318 -14.3773,-2.16778 -29.24412,-7.76656 -38.39443,-19.61543 -7.92124,-10.64564 -10.06596,-24.17695 -12.40359,-36.91013 -4.44217,-26.94933 -8.03326,-54.11816 -8.35386,-81.46949 -0.32202,-23.58355 -0.54756,-47.19111 0.4682,-70.76096 0.64203,-14.518735 2.95119,-29.562842 11.01124,-41.982522 8.86107,-14.331417 24.22147,-24.350427 40.92895,-26.570809 15.4882,-2.264253 31.21339,-1.912123 46.82894,-2.110971 1.11797,3.81e-4 2.23595,7.61e-4 3.35392,0.0011 z M 39.272371,60.846055 c 7.518409,0.34126 14.901544,3.960862 19.957124,9.525916 4.663454,5.809434 8.016837,12.731405 9.694406,19.970933 0.254558,3.744435 0.711554,7.965509 -1.867897,11.087216 -4.927781,6.53682 -13.685461,8.1867 -21.354761,8.88993 -3.615629,0.59685 -7.233987,-0.57205 -10.064533,-2.84154 -5.750092,-4.43296 -10.888019,-10.078224 -13.689145,-16.834534 -1.420779,-6.15529 0.615653,-12.604517 3.083924,-18.26186 2.040037,-4.524203 5.457318,-8.664578 9.9575,-10.863479 1.364001,-0.537475 2.832547,-0.673852 4.283382,-0.672582 z m 54.773156,1.407998 c 8.008433,0.298371 15.181323,5.208545 20.497143,10.929212 4.48042,4.764033 7.23532,11.043399 7.53646,17.592795 0.55606,7.250684 -0.53522,15.68138 -6.39641,20.65782 -5.23245,3.85181 -12.1832,3.2194 -18.311514,2.94561 -3.14268,-0.08 -6.256272,-1.07565 -8.421218,-3.43642 -5.070252,-4.84318 -9.759116,-10.15923 -13.771233,-15.916273 -2.386666,-3.89993 -1.659608,-8.744241 -1.287153,-13.058688 1.062166,-5.989297 4.669202,-11.277841 9.371434,-15.049195 2.996199,-2.61149 6.710426,-4.681637 10.782491,-4.664861 z M 49.390075,126.0373 c 17.280093,0.63013 34.613157,0.40946 51.849355,1.87505 3.58122,0.59142 8.24694,0.60931 10.41885,4.02556 1.14248,2.73975 1.63699,6.20404 0.241,8.92929 -2.43408,2.51306 -6.39751,2.03318 -9.59148,2.48102 -11.6486,0.72947 -23.317064,-0.29347 -34.971269,-0.43208 -8.466819,-0.33878 -16.966702,-0.36125 -25.408366,-0.99587 -1.27712,-2.8538 -3.643241,-5.45715 -3.895992,-8.65446 0.601717,-2.6594 2.14383,-4.99601 3.289013,-7.44948 2.68963,0.0737 5.379259,0.14731 8.068889,0.22097 z m 8.215974,25.36814 c 16.887166,0.22503 33.818117,0.70711 50.608541,2.54738 2.13672,0.21488 4.84778,0.66503 5.38548,3.17439 0.60113,3.26813 0.56953,6.73144 0.0566,10.00998 -1.00072,2.44305 -4.33795,1.62059 -6.39421,1.87644 -19.560874,0.0962 -39.160616,0.37839 -58.687925,-0.91108 -2.347936,-0.34523 -5.595673,2.4e-4 -6.709229,-2.66891 -1.987683,-3.68158 -2.597878,-9.24199 0.970891,-12.15616 4.391478,-2.41394 9.941406,-1.63731 14.769832,-1.87204 z m 24.110683,28.30154 c 10.517626,0.184 21.123268,-0.13972 31.565128,1.19439 3.21468,0.43827 5.56179,3.2925 5.74442,6.48435 0.0259,1.97685 0.82942,4.3558 -0.33215,6.1126 -3.10733,2.93217 -7.82932,2.72554 -11.81365,3.07702 -17.752856,0.37329 -35.543401,0.71934 -53.282291,-0.1243 -4.246102,-0.0568 -9.315777,-1.17016 -11.591303,-5.12445 0.05398,-3.16454 0.379888,-6.82587 2.562572,-9.31875 3.028515,-2.25123 7.196926,-1.59493 10.751614,-1.99496 8.795429,-0.256 17.596967,-0.29609 26.39566,-0.3059 z m 4.092794,23.8172 c 7.095014,-0.32415 13.449697,3.67301 19.118124,7.46744 5.5425,4.02984 10.91845,9.57087 11.40417,16.79033 0.98766,6.7375 -0.58113,14.13357 -5.69345,18.93444 -5.58267,5.9173 -13.597196,9.25381 -21.717988,9.21035 -6.273837,0.32264 -12.757423,-0.91908 -17.838692,-4.80651 -5.096956,-3.62673 -10.066245,-8.68675 -10.495579,-15.28862 -1.128075,-8.17949 -0.634653,-17.51301 5.42719,-23.77035 4.074151,-3.98346 9.388879,-6.68278 14.869267,-8.10894 1.620848,-0.33855 3.271349,-0.42506 4.926958,-0.42814 z m 0.314192,62.43878 c 8.228453,-0.35481 15.876312,3.83178 21.598022,9.48082 4.58186,4.25861 8.18974,9.77903 9.00368,16.06341 0.75945,5.59246 1.09165,11.58843 -0.99161,16.94225 -3.89663,8.50824 -12.40562,15.05601 -21.942438,15.27519 -9.331939,0.97321 -18.814715,-1.48745 -26.818669,-6.31244 -7.948265,-3.97824 -11.82355,-13.17076 -11.918426,-21.70087 -0.326475,-6.84616 0.914979,-14.27651 5.924922,-19.33076 6.467015,-6.71912 15.90695,-10.31086 25.144519,-10.4176 z"
       id="path111"
       inkscape:connector-curvature="0"
       transform="matrix(0.26458333,0,0,0.26458333,37.58779,114.63731)" />
  </g>
</svg>
