<?xml version="1.0" encoding="UTF-8" standalone="no"?>
<svg
   xmlns:dc="http://purl.org/dc/elements/1.1/"
   xmlns:cc="http://creativecommons.org/ns#"
   xmlns:rdf="http://www.w3.org/1999/02/22-rdf-syntax-ns#"
   xmlns:svg="http://www.w3.org/2000/svg"
   xmlns="http://www.w3.org/2000/svg"
   xmlns:sodipodi="http://sodipodi.sourceforge.net/DTD/sodipodi-0.dtd"
   xmlns:inkscape="http://www.inkscape.org/namespaces/inkscape"
   inkscape:export-ydpi="96"
   inkscape:export-xdpi="96"
   inkscape:export-filename="/home/ruwix/image2.png"
   inkscape:version="1.0 (4035a4fb49, 2020-05-01)"
   sodipodi:docname="wave.svg"
   viewBox="0 0 3200 1800"
   height="1800"
   width="3200"
   id="svg2"
   version="1.1">
  <metadata
     id="metadata8">
    <rdf:RDF>
      <cc:Work
         rdf:about="">
        <dc:format>image/svg+xml</dc:format>
        <dc:type
           rdf:resource="http://purl.org/dc/dcmitype/StillImage" />
        <dc:title></dc:title>
      </cc:Work>
    </rdf:RDF>
  </metadata>
  <defs
     id="defs6" />
  <sodipodi:namedview
     units="px"
     inkscape:pagecheckerboard="true"
     inkscape:current-layer="g10"
     inkscape:window-maximized="0"
     inkscape:window-y="0"
     inkscape:window-x="0"
     inkscape:cy="1179.276"
     inkscape:cx="3243.5545"
     inkscape:zoom="0.42038422"
     showgrid="false"
     id="namedview4"
     inkscape:window-height="900"
     inkscape:window-width="1600"
     inkscape:pageshadow="2"
     inkscape:pageopacity="1"
     guidetolerance="10"
     gridtolerance="10"
     objecttolerance="10"
     borderopacity="1"
     bordercolor="#666666"
     pagecolor="#292d3e" />
  <g
     id="g10"
     inkscape:label="Image"
     inkscape:groupmode="layer">
    <rect
       y="0"
       x="0"
       height="1800"
       width="3200"
       id="rect4028"
       style="fill:#292d3e;fill-opacity:1;stroke:#000000;stroke-opacity:0" />
    <g
       transform="matrix(1.7847165,0,0,1.7847165,-490.77025,-74.884905)"
       id="g4008">
      <path
         style="fill:#ffffff;fill-opacity:1"
         d="m 1191.9413,764.28967 c 0.5131,0 3.3058,3.9375 6.207,8.75 6.5565,10.87613 14.9995,23.40424 19.543,29 5.3918,6.64048 2.196,4.98269 -3.8555,-2 -2.9791,-3.4375 -7.0157,-8.725 -8.9687,-11.75 -14.0662,-21.78623 -15.257,-24 -12.9258,-24 z"
         id="path3939" />
      <path
         style="fill:#ffffff;fill-opacity:1"
         d="m 1288.3104,749.91272 c 0.639,0.0154 1.459,0.85158 2.5254,2.55468 2.405,3.84079 4.2898,5.95582 16.5508,18.57227 4.9442,5.0875 8.4523,9.25 7.7949,9.25 -0.6573,0 -4.7805,-3.42517 -9.1621,-7.61133 -10.7627,-10.28268 -19.6191,-21.18164 -18.291,-22.50976 0.1752,-0.1752 0.369,-0.26101 0.582,-0.25586 z"
         id="path3937" />
      <path
         style="fill:#ffffff;fill-opacity:1"
         d="m 1199.0389,749.28967 c 0.5673,0 1.3313,0.7875 1.6973,1.75 0.9523,2.50405 8.9599,16.12836 16.1289,27.44141 3.3781,5.33072 6.1426,9.94322 6.1426,10.25 0,1.15371 -1.7424,0.49499 -3.1504,-1.19141 -1.4778,-1.77 -8.7611,-13.36642 -17.2266,-27.42969 -4.5448,-7.55018 -5.6304,-10.82031 -3.5918,-10.82031 z"
         id="path3935" />
      <path
         style="fill:#80cbc4;fill-opacity:1"
         d="m 1357.3085,743.91858 c 2.1925,2.15599 8.2885,6.37109 9.2148,6.37109 0.682,0 1.7178,-0.57639 2.3027,-1.28125 0.8265,-0.99585 -0.3616,-1.72755 -5.3281,-3.2832 -3.5152,-1.10108 -6.2995,-1.91491 -6.1894,-1.80664 z"
         id="path3933" />
      <path
         style="fill:#80cbc4;fill-opacity:1"
         d="m 1288.1971,735.28967 c -2.0002,0 -2.1894,0.50067 -2.1894,5.76562 0,5.97383 -2.1625,11.50572 -6.2246,15.92579 l -2.0137,2.1914 2.1719,2.8086 c 4.0765,5.27383 27.4367,30.30859 28.2812,30.30859 0.4632,0 3.4177,-1.31398 6.5645,-2.91992 5.8359,-2.97829 14.1343,-8.83442 10.9824,-7.75 -0.9559,0.32888 -1.6579,0.27747 -1.5605,-0.11524 0.097,-0.3927 -3.5024,-4.52194 -8,-9.17578 -5.6111,-5.8059 -7.8553,-8.78537 -7.1485,-9.49218 0.7068,-0.70682 1.3063,-0.58263 1.9102,0.39453 0.4841,0.78326 4.5583,5.11765 9.0527,9.63281 l 8.1719,8.20898 3.1855,-2.11523 3.1875,-2.11524 -3.2812,-2.88085 c -1.804,-1.58389 -3.2793,-3.28238 -3.2793,-3.7754 0,-1.80698 2.4862,-0.81689 5.6504,2.25 l 3.248,3.14649 4.9629,-3.78516 4.9629,-3.78515 -3.1621,-2.53711 c -8.8529,-7.10419 -14.8637,-14.18555 -12.041,-14.18555 0.3415,0 3.4288,2.7261 6.8613,6.05859 10.5042,10.1982 9.367,10.01025 17.9844,2.96875 4.1008,-3.35089 7.7066,-6.49924 8.0137,-6.99609 0.307,-0.49685 -2.3754,-2.99605 -5.961,-5.55469 -3.5856,-2.55864 -6.5195,-5.01415 -6.5195,-5.45703 0,-1.41624 -3.2058,-2.09213 -4.5664,-0.96289 -2.211,1.83493 -0.5164,3.77766 6.1679,7.06836 3.5188,1.73228 6.3985,3.53722 6.3985,4.01172 0,2.49174 -14.3558,-0.35468 -23.4238,-4.64453 -2.8977,-1.37082 -5.588,-2.49219 -5.9766,-2.49219 -0.3886,0 -2.298,1.08186 -4.2441,2.4043 l -3.5391,2.40429 4.8809,3.84571 c 2.6839,2.11506 5.9422,4.54538 7.2402,5.40039 1.298,0.85501 2.1801,2.07541 1.9609,2.71289 -0.2374,0.69049 -2.5248,-0.46459 -5.6582,-2.85742 -2.9187,-2.22888 -5.769,-3.70119 -6.4043,-3.3086 -0.68,0.42028 -0.8733,0.26628 -0.4746,-0.3789 0.7966,-1.2889 -3.0612,-4.22266 -5.5527,-4.22266 -0.9842,0 -1.538,-0.54543 -1.2696,-1.25 0.262,-0.6875 -1.102,-2.50702 -3.0312,-4.04297 -4.3542,-3.46662 -4.4324,-2.468 -0.2324,2.96289 4.4785,5.79109 10.641,10.65249 15.5644,12.27735 2.2882,0.75516 4.1602,1.97592 4.1602,2.71289 0,1.95241 -2.5175,1.65188 -8.875,-1.0586 -3.0938,-1.319 -7.1777,-2.9864 -9.0762,-3.70508 -2.0483,-0.77541 -7.9688,-5.8989 -14.5605,-12.60156 -7.4487,-7.57404 -11.8303,-11.29492 -13.2989,-11.29492 z"
         id="path3931" />
      <path
         style="fill:#ffffff;fill-opacity:1"
         d="m 1046.4003,734.19787 c 0.7798,-0.15367 2.7043,3.53895 5.6211,10.8418 2.3614,5.9125 5.3564,12.8875 6.6562,15.5 2.7999,5.62753 1.5022,6.39037 -1.7012,1 -2.7396,-4.60998 -10.9687,-24.04016 -10.9687,-25.89844 0,-0.91492 0.1326,-1.39213 0.3926,-1.44336 z"
         id="path3929" />
      <path
         style="fill:#80cbc4;fill-opacity:1"
         d="m 1044.0077,724.39709 -0.059,3.19727 c -0.073,3.9307 -6.1355,15.09453 -11.1895,20.60742 -4.7441,5.17493 -6.0919,5.26537 -5.0468,0.33789 1.5712,-7.4086 0.9,-15.59241 -1.5625,-19.05078 -1.2532,-1.75978 -2.6451,-3.19922 -3.0938,-3.19922 -0.4487,0 -1.8279,2.49245 -3.0644,5.53906 -2.5415,6.26163 -4.2497,6.59802 -4.9844,0.98242 -0.3401,-2.59898 -1.3448,-4.44952 -3.1406,-5.78515 -2.305,-1.71425 -3.0955,-1.8127 -6.2149,-0.78321 -7.16447,2.36451 -20.83621,15.35483 -20.57224,19.54688 0.0346,0.55 3.45447,3.925 7.59961,7.5 4.14512,3.575 9.79273,8.525 12.55073,11 2.7581,2.475 6.3311,5.34359 7.9395,6.375 l 2.9238,1.875 -2.6367,-5.875 c -3.1732,-7.07074 -9.5393,-26.6169 -8.8828,-27.27344 0.9862,-0.98623 2.3216,1.72745 5.3613,10.89844 1.7318,5.225 4.5597,12.97924 6.2852,17.23242 3.471,8.55585 4.5109,9.5056 19.082,17.4043 9.1157,4.94146 9.0159,6.1752 1.082,-13.41797 -2.9578,-7.30445 -5.3769,-13.49195 -5.3769,-13.75 0,-0.25804 0.6139,-0.46875 1.3652,-0.46875 0.7853,0 2.495,3.08251 4.0196,7.25 1.4587,3.9875 4.3524,11.525 6.4316,16.75 3.7647,9.46085 3.8055,9.51406 9.7324,12.72266 3.2733,1.77204 6.2459,3.23454 6.6055,3.25 0.5913,0.0254 -8.0455,-19.58691 -12.9766,-29.4668 -1.0964,-2.19683 -1.78,-4.34099 -1.5176,-4.76563 1.1856,-1.91824 2.5974,0.62182 12.6465,22.75977 6.4148,14.13164 7.2024,14.83362 21.8867,19.50195 5.6682,1.80199 10.9817,3.51487 11.8067,3.80664 1.2182,0.43082 1.186,0.17023 -0.1699,-1.38867 -3.8491,-4.42526 -22.1709,-39.39042 -21.1719,-40.4043 0.8434,-0.85599 3.9306,4.00183 9.7734,15.38282 9.4798,18.46543 14.6936,26.5269 18.4571,28.54101 0.9938,0.53189 5.5876,1.92044 10.2089,3.08594 4.6214,1.16549 9.0964,2.31279 9.9454,2.54883 1.0905,0.30319 0.2792,-2.22148 -2.7657,-8.59961 -4.4361,-9.29233 -5.4611,-12.74748 -3.8535,-12.98633 0.5078,-0.0754 2.5506,3.60916 4.541,8.1875 5.6807,13.06654 6.6998,14.64206 9.7754,15.10742 5.4979,0.83186 6.2388,0.67977 7.7246,-1.58789 2.3161,-3.5347 3.8307,-20.98313 2.4043,-27.69531 -1.0224,-4.81127 -1.2591,-5.17661 -1.8886,-2.91406 -1.047,3.7623 -3.5166,7.19477 -7.0625,9.8164 -3.9292,2.90497 -5.918,1.55452 -3.3907,-2.30273 1.0281,-1.56902 1.766,-4.79975 1.8438,-8.07617 0.2435,-10.25563 -6.8052,-12.66708 -9.5235,-3.25782 -1.3455,4.65756 -6.467,13.27021 -9.4746,15.9336 -2.8569,2.53001 -5.0868,0.84491 -3.0761,-2.32422 2.6367,-4.15597 3.0029,-8.52329 1.1269,-13.43555 -2.6796,-7.01639 -8.263,-9.01423 -16.7422,-5.99023 -4.9755,1.77449 -5.448,0.63594 -3.2968,-7.92774 2.0794,-8.27848 2.0405,-13.17186 -0.1368,-17.49023 -1.447,-2.87012 -2.8665,-3.86489 -8.2343,-5.77148 -7.609,-2.70258 -8.4962,-3.45518 -10.3223,-8.76172 -1.3149,-3.82094 -1.8246,-4.18261 -11.5332,-8.19336 z"
         id="path3927" />
      <path
         style="fill:#ffffff;fill-opacity:1"
         d="m 1195.578,720.90881 c 0.8052,-0.1537 2.3942,2.13622 4.3184,6.43945 1.7267,3.86185 5.3608,10.60451 8.0761,14.98243 5.0862,8.20054 5.3645,10.01555 0.7969,5.20898 -2.7965,-2.94286 -13.7617,-22.75479 -13.7617,-24.86523 0,-1.11966 0.2043,-1.69577 0.5703,-1.76563 z"
         id="path3925" />
      <path
         style="fill:#ffffff;fill-opacity:1"
         d="m 1097.5096,720.83655 c 2.3363,0.0938 4.7088,1.96454 7.1739,5.63671 2.4558,3.65849 3.5342,4.40225 7.0742,4.87891 3.9034,0.52558 7.6889,2.78031 9.5488,5.6875 0.4398,0.6875 2.0583,1.25 3.5957,1.25 2.8688,0 5.2689,2.01091 6.4961,5.44336 0.6288,1.75877 0.8402,1.6635 2.2149,-1 2.4252,-4.69913 3.1523,-5.01867 5.7793,-2.55078 2.2808,2.14271 2.5729,2.18107 5.4121,0.71289 2.6346,-1.36242 3.151,-1.37286 4.2207,-0.084 0.6702,0.80757 1.277,3.26999 1.3496,5.47266 0.073,2.20267 0.2369,4.00558 0.3633,4.00586 1.1306,0.002 4.2695,-8.79186 4.2695,-11.96093 0,-2.81859 0.4277,-4.03906 1.416,-4.03906 0.7791,0 2.3469,-1.2375 3.4824,-2.75 1.7379,-2.31494 2.2216,-2.51269 3.0664,-1.25 0.552,0.825 1.0111,2.5125 1.0196,3.75 0.01,1.2375 0.4656,2.25 1.0156,2.25 0.55,0 1,-0.675 1,-1.5 0,-1.99134 2.6213,-1.92792 3.3926,0.082 1.5798,4.11696 0.024,14.10006 -2.8008,17.96289 -2.0594,2.81643 -3.0051,1.15647 -1.2617,-2.21484 0.8123,-1.57086 1.8038,-5.03464 2.2031,-7.69727 0.686,-4.57489 0.6197,-4.78429 -1.207,-3.80664 -2.2131,1.18442 -3.6681,0.49463 -4.67,-2.21289 -0.6717,-1.81531 -0.7728,-1.81763 -2.6777,-0.0937 -1.1577,1.04767 -1.9802,3.07441 -1.9824,4.88477 -0.01,5.6614 -7.0031,14.66375 -9.6738,12.44726 -0.8515,-0.70665 -0.9313,-1.74855 -0.2676,-3.49414 0.5202,-1.3682 0.9453,-3.63125 0.9453,-5.0293 0,-2.02863 -0.3534,-2.39723 -1.75,-1.82226 -4.0158,1.65321 -5.4148,1.65671 -7.2324,0.0117 -1.8396,-1.66479 -1.9968,-1.60186 -3.9629,1.62304 -1.1262,1.84721 -2.058,4.03438 -2.0723,4.85938 -0.045,2.59367 -3.3864,6.19559 -4.6113,4.9707 -0.6475,-0.64747 -0.817,-2.56382 -0.4199,-4.77539 1.077,-5.99938 -0.013,-8.64573 -3.7168,-9.00781 -2.0757,-0.20292 -4.3198,-1.51104 -6.4317,-3.75 -2.4438,-2.59088 -4.0701,-3.4375 -6.5996,-3.4375 -3.3925,0 -5.6237,-1.78003 -10.8281,-8.63672 -1.9134,-2.5208 -2.3829,-2.68165 -4.7149,-1.61914 -3.4148,1.5559 -4.4488,-0.18053 -1.3261,-2.22656 1.0518,-0.68921 2.106,-1.01337 3.1679,-0.9707 z"
         id="path3923" />
      <path
         style="fill:#80cbc4;fill-opacity:1"
         d="m 1188.703,709.46545 c -3.1021,-0.007 -5.7731,1.76433 -7.3535,5.54688 -2.0646,4.94122 -1.2673,11.28099 2.0469,16.28906 3.3203,5.01741 5.711,11.9843 5.5644,16.21875 -0.062,1.79876 0.4122,8.86074 1.0547,15.69531 0.6425,6.83458 0.9674,13.79149 0.7227,15.45899 -0.5648,3.84761 3.4827,13.78149 9.4179,23.11523 5.1719,8.13329 7.217,12.5 5.8555,12.5 -0.5241,0 -1.6136,-1.27872 -2.4219,-2.8418 -0.8083,-1.56309 -3.6584,-6.17559 -6.334,-10.25 -2.6755,-4.07442 -5.4542,-8.8666 -6.1738,-10.64843 -1.0722,-2.65485 -1.7176,-3.13541 -3.5801,-2.66797 -1.8296,0.45921 -2.4744,0.0171 -3.3047,-2.26172 -0.5751,-1.57871 -1.0673,-2.08943 -1.1113,-1.15625 -0.1201,2.5464 -4.9991,7.82617 -7.2324,7.82617 -1.0873,0 -2.8211,-0.45047 -3.8516,-1.00195 -1.2524,-0.67028 -2.0779,-0.67028 -2.4922,0 -1.1614,1.87931 -5.1613,1.07861 -6.2363,-1.24805 -1.0172,-2.20178 -1.0526,-2.18571 -1.6973,0.75 -2.1833,9.94302 -4.1665,13.95679 -13.705,27.72852 -1.8863,2.72336 -1.8856,2.72846 0.457,3.3164 6.2307,1.56382 24.6797,2.95354 24.6797,1.85938 0,-0.3276 -0.8187,-1.7901 -1.8203,-3.25 -1.0016,-1.4599 -2.6004,-4.757 -3.5528,-7.32618 -0.9523,-2.56917 -2.3836,-5.21042 -3.1796,-5.87109 -1.5961,-1.32459 -1.984,-4.95703 -0.5293,-4.95703 1.1774,0 4.2679,5.18322 6.6875,11.2168 1.0401,2.59393 3.0272,6.10695 4.416,7.80859 2.323,2.84633 2.9452,3.07047 7.7773,2.78516 l 5.252,-0.31055 -2.8887,-3.5 c -3.2324,-3.91468 -11.1621,-18.09473 -11.1621,-19.96094 0,-2.75549 2.4413,-0.0277 5.9961,6.70117 5.5871,10.57585 10.9557,17.16498 14.0293,17.2168 4.2697,0.072 19.4297,-2.0303 20.2109,-2.80273 0.4054,-0.40078 -0.3093,-2.28676 -1.5879,-4.19141 -5.5447,-8.26004 -7.8614,-12.96289 -6.3886,-12.96289 0.797,0 3.8297,3.825 6.7402,8.5 2.9104,4.675 5.4233,8.5 5.584,8.5 0.8124,0 13.4793,-3.16486 17.291,-4.32031 l 4.375,-1.32617 -2.9766,-3.42774 c -4.2743,-4.92106 -13.2734,-17.75454 -13.2734,-18.92969 0,-2.72407 2.4922,-0.10765 8.3398,8.75391 9.2206,13.97286 8.8641,13.73594 17.5371,11.64258 4.7373,-1.1434 6.8339,-2.07631 6.2989,-2.80274 -0.4412,-0.59893 -3.0841,-4.01484 -5.8731,-7.58984 -8.1298,-10.42097 -23.3027,-35.47863 -23.3027,-38.48438 0,-3.05916 1.9161,-1.37891 4.2578,3.73438 2.7783,6.06681 17.5106,28.60958 24.1191,36.90625 l 4.5059,5.6582 4.3086,-0.95898 c 4.8164,-1.07175 14.8086,-5.38954 14.8086,-6.39844 0,-0.35906 -4.1837,-4.99582 -9.2969,-10.30469 -5.1131,-5.30886 -12.2572,-13.47734 -15.8769,-18.15234 -6.3323,-8.17824 -17.8262,-27.27674 -17.8262,-29.62109 0,-0.62384 -0.6694,-1.68948 -1.4883,-2.36914 -1.4194,-1.17804 -1.2139,-3.00977 0.3379,-3.00977 0.402,0 3.6364,5.41734 7.1894,12.03906 6.7123,12.50953 17.0107,26.04318 30.4083,39.96094 3.9708,4.125 7.656,8.2992 8.1894,9.27539 1.0106,1.84944 1.2399,1.8127 11.1367,-1.76953 0.7932,-0.28707 -0.7206,-2.44739 -4.0136,-5.73242 -10.4766,-10.45092 -33.7598,-40.66798 -33.7598,-43.8125 0,-2.3583 2.2313,-0.52115 5.7187,4.70703 2.0794,3.11735 4.858,7.27985 6.1739,9.25 1.3159,1.97016 5.1409,6.78931 8.5,10.70898 3.3591,3.91966 9.1966,10.78216 12.9726,15.25 3.7761,4.46783 7.2186,8.12305 7.6504,8.12305 0.4318,0 3.0869,-1.06564 5.9004,-2.36914 l 5.1152,-2.37109 -9.7656,-10.09961 c -12.051,-12.46326 -19.2656,-20.70457 -19.2656,-22.00586 0,-0.54319 -0.543,-1.16927 -1.207,-1.39063 -0.9207,-0.30689 -0.8317,-2.04692 0.3769,-7.33203 1.6101,-7.04101 1.7439,-12.1225 0.4258,-16.18164 -0.9499,-2.92509 -2.4123,-2.86279 -3.5586,0.15234 -1.8627,4.89923 -5.2781,4.13889 -6.3906,-1.42382 -0.7776,-3.88796 -1.7485,-3.72796 -3.9297,0.65234 -1.9907,3.99769 -2.3465,3.16059 5.1601,12.14258 6.301,7.53932 4.0564,7.95533 -2.5507,0.47265 -3.0335,-3.43548 -6.0753,-6.24609 -6.7579,-6.24609 -0.6825,0 -1.9871,-2.68776 -2.9003,-5.97266 -1.9263,-6.9282 -4.8568,-9.14432 -11.5801,-8.75976 -2.2424,0.12825 -4.0792,0.34092 -4.0821,0.47461 0,0.1337 1.9949,4.39681 4.4395,9.47265 2.4446,5.07584 4.2139,9.45994 3.9316,9.74219 -0.8196,0.81964 -3.9136,-3.79754 -7.4707,-11.15039 -2.1794,-4.50516 -3.8757,-6.80664 -5.0175,-6.80664 -0.9488,0 -2.4367,-0.27357 -3.3067,-0.60742 -1.0691,-0.41025 -1.582,-0.0419 -1.582,1.13476 0,3.26279 -2.3121,9.47266 -3.5274,9.47266 -0.6958,0 -1.4307,-1.93344 -1.7246,-4.54102 -0.6977,-6.19043 -2.8404,-8.3621 -7.8789,-7.98632 -2.4582,0.18334 -4.5091,1.00998 -5.3652,2.16211 -1.9821,2.66762 -4.3758,0.91722 -7.75,-5.66993 -4.5193,-8.82265 -10.8884,-13.77675 -16.0586,-13.78906 z"
         id="path3921" />
      <path
         style="fill:#ffffff;fill-opacity:1"
         d="m 1062.9979,702.83069 c 1.7872,0.0344 3.0872,1.69195 5.1446,5.7246 1.5139,2.96762 2.3937,3.73092 3.6777,3.18946 3.2226,-1.35895 5.9572,-1.63779 6.5566,-0.66797 0.3315,0.53638 0.7218,3.05364 0.8672,5.59375 0.1455,2.54012 0.3564,4.61884 0.4707,4.61914 0.1143,3e-4 1.3953,-2.025 2.8457,-4.5 2.2707,-3.87462 4.4473,-5.7994 4.4473,-3.93359 0,2.09207 -7.5556,12.43359 -9.084,12.43359 -0.5038,0 -0.916,-2.62565 -0.916,-5.83398 0,-6.75092 -0.5055,-7.62471 -3.2852,-5.67774 -2.7394,1.91874 -5.1725,0.49632 -7.7324,-4.52148 -2.1819,-4.2768 -4.2474,-4.94269 -7.1601,-2.30664 -1.0092,0.91329 -2.1011,1.3931 -2.4278,1.0664 -0.9519,-0.95195 0.5008,-2.62168 3.7403,-4.29687 1.1303,-0.58452 2.0431,-0.9043 2.8554,-0.88867 z"
         id="path3919" />
      <path
         style="fill:#80cbc4;fill-opacity:1"
         d="m 1397.9393,679.51428 c -0.3094,-0.008 -0.4997,0.0114 -0.5508,0.0625 -0.3957,0.39571 7.9351,2.78079 16.1192,4.61523 2.2,0.49312 4.1125,0.9428 4.25,0.99805 0.1375,0.0553 0.25,-0.33253 0.25,-0.86133 0,-0.5288 -1.6875,-1.36617 -3.75,-1.85937 -6.194,-1.48115 -14.1521,-2.89752 -16.3184,-2.95508 z"
         id="path3917" />
      <path
         style="fill:#80cbc4;fill-opacity:1"
         d="m 1372.9237,674.41272 c -0.3474,-0.0143 -0.7426,0.0489 -1.1035,0.19336 -0.7977,0.31922 -0.5614,0.55748 0.6035,0.60547 1.0542,0.0434 1.6448,-0.19311 1.3125,-0.5254 -0.1661,-0.16614 -0.4651,-0.25913 -0.8125,-0.27343 z"
         id="path3915" />
      <path
         style="fill:#ffffff;fill-opacity:1"
         d="m 1132.9471,668.28967 c 0.5168,0 1.0793,1.68427 1.25,3.74219 0.2274,2.74064 0.8192,3.8371 2.2129,4.10156 1.0465,0.19859 2.3075,-0.35872 2.8008,-1.24023 2.1337,-3.81272 5.9966,-0.56271 8.2813,6.96875 0.8221,2.71007 1.5155,6.05273 1.541,7.42773 l 0.045,2.5 1.4062,-2.5 c 0.7734,-1.375 1.7125,-4.88175 2.086,-7.79297 0.6649,-5.18234 2.6034,-6.7599 3.2265,-2.625 0.8839,5.86434 1.2288,6.45176 3.4824,5.90039 1.6192,-0.39613 3.0021,0.28283 5.0625,2.48633 1.5592,1.66736 3.5088,3.03125 4.3321,3.03125 1.2133,0 1.1033,-0.63705 -0.584,-3.36719 -2.4772,-4.00822 -2.8172,-9.63281 -0.582,-9.63281 1.0249,0 1.5013,1.02944 1.5039,3.25 0,3.38029 2.9951,9.33472 5.7793,11.50391 1.1891,0.92645 1.3171,1.5462 0.4883,2.375 -1.2776,1.27756 -9.1943,-2.01491 -12.9473,-5.38477 -1.1968,-1.0746 -2.6871,-1.6365 -3.3125,-1.25 -0.6254,0.3865 -2.0089,-0.0867 -3.0742,-1.05078 -1.6008,-1.44867 -1.9375,-1.4949 -1.9375,-0.26172 0,2.23333 -7.8899,12.81836 -9.5547,12.81836 -0.7947,0 -1.4296,-0.3375 -1.4102,-0.75 0.02,-0.4125 0.6789,-1.875 1.4649,-3.25 1.7434,-3.04981 1.8926,-8.53839 0.3555,-13.10156 -1.6284,-4.8337 -2.8334,-6.1615 -4.4024,-4.85938 -0.7043,0.58456 -2.4512,1.27361 -3.8828,1.53321 -2.0961,0.3801 -2.7937,-0.0314 -3.5859,-2.11524 -1.2493,-3.28582 -1.2771,-8.45703 -0.045,-8.45703 z"
         id="path3913" />
      <path
         style="fill:#80cbc4;fill-opacity:1"
         d="m 1320.1757,659.33459 c -1.0637,-0.0866 1.3121,1.07537 7.332,3.35547 3.85,1.45823 9.475,3.63179 12.5,4.83008 8.4873,3.36211 30.7961,8.23362 28.8652,6.30273 -0.2572,-0.25724 -7.1366,-2.30429 -15.289,-4.54687 -8.1525,-2.24258 -19.3033,-5.57789 -24.7793,-7.41211 -4.8931,-1.63896 -7.8016,-2.46193 -8.6289,-2.5293 z"
         id="path3911" />
      <path
         style="fill:#80cbc4;fill-opacity:1"
         d="m 1309.2401,654.60608 c -0.8245,-0.0897 -0.8622,0.38541 -0.4941,1.79297 0.3747,1.4331 -0.03,2.6301 -1.1719,3.46484 -1.5818,1.15662 -1.2929,1.6085 3.0937,4.82617 2.6616,1.95233 5.7399,3.56778 6.8399,3.58984 1.1,0.0221 2.6209,0.43398 3.3789,0.91407 2.4517,1.55287 0.1234,3.0957 -4.6699,3.0957 h -4.6739 l 3.4825,2.35352 c 7.979,5.39092 28.1795,15.63181 37.6894,19.10742 5.6136,2.0516 10.7298,4.36205 11.3711,5.13476 1.6897,2.03594 0.5311,1.79914 -10.5781,-2.1582 -13.0283,-4.64094 -37.6251,-17.66044 -43.5,-23.02539 -2.1971,-2.0064 -7.1504,-4.51568 -14.836,-7.51563 l -2.3378,-0.9121 2.1523,3.48046 c 1.356,2.19405 2.0346,4.69529 1.8359,6.75977 -0.3318,3.44805 -2.0665,4.14938 -2.666,1.07812 -0.5623,-2.88116 -4.8051,-7.92616 -8.6758,-10.31835 -3.4604,-2.1387 -3.6309,-2.15067 -5.58,-0.38672 -1.1977,1.08388 -3.3003,1.74494 -5.2012,1.63476 l -3.1914,-0.18554 2.2969,1.72656 c 1.2634,0.94971 4.5742,3.52656 7.3574,5.72656 14.5492,11.50046 29.0451,20.12969 59.8496,35.63086 10.1734,5.11936 17.7897,9.45133 16.9258,9.62695 -2.2052,0.44829 -15.2564,-5.29623 -32.6309,-14.36328 -23.8186,-12.42998 -34.3152,-19.05768 -44.5469,-28.125 -5.6336,-4.99251 -10.7553,-7.85945 -11.6347,-6.51367 -1.1864,1.81536 -4.813,3.13635 -7.2051,2.625 -8.0122,-1.71274 25.6789,21.61191 48.0879,33.29102 17.3438,9.03926 20.3598,10.87056 38.7949,23.56054 1.812,1.24731 5.412,3.87556 8,5.83985 5.5448,4.20849 10.8189,6.4135 16.2969,6.8125 0.8759,0.0638 5.4292,-4.05496 10.1172,-9.15235 l 8.5234,-9.26758 -5.6172,-1.82617 c -3.0889,-1.00422 -12.9282,-5.6144 -21.8652,-10.24414 -8.937,-4.62974 -18.387,-9.13208 -21,-10.00586 -2.613,-0.87378 -6.7924,-2.60281 -9.2891,-3.84179 -2.4966,-1.23899 -6.2091,-2.80302 -8.25,-3.47657 -2.1296,-0.70284 -3.7109,-1.87612 -3.7109,-2.7539 0,-1.02807 0.5737,-1.32643 1.75,-0.90625 9.5937,3.42684 25.9816,10.76922 41.6973,18.67968 10.4785,5.27436 19.9527,9.88024 21.0527,10.23438 1.1,0.35415 3.0056,1.08306 4.2344,1.62109 2.0186,0.88392 2.814,0.21709 8.25,-6.92383 3.3087,-4.34657 6.0086,-8.26792 6,-8.71289 -0.01,-0.44497 -5.9712,-2.73651 -13.25,-5.09375 -10.9538,-3.54734 -35.829,-12.95291 -45.6368,-17.25586 -1.4862,-0.65205 -2.0459,-1.41109 -1.4687,-1.98828 0.9245,-0.92447 6.6821,1.01135 23.7969,8 4.3593,1.78011 14.8205,5.65311 23.2461,8.60547 l 15.3183,5.36719 1.4141,-2.2207 c 0.7776,-1.22203 3.013,-5.13799 4.9668,-8.70118 l 3.5527,-6.47851 -5.7129,-1.24609 c -5.2107,-1.13656 -26.2321,-5.21416 -53.2109,-10.32227 -16.8836,-3.19671 -52.357,-17.79648 -43.75,-18.00586 1.5185,-0.0369 -0.7551,-1.42243 -3.918,-2.38867 -0.4641,-0.1418 -0.8248,-0.23377 -1.0996,-0.26367 z"
         id="path3909" />
      <path
         style="fill:#ffffff;fill-opacity:1"
         d="m 1383.3827,652.28967 c 0.7562,0 1.6233,1.2375 1.9258,2.75 0.3025,1.5125 1.7087,4.45799 3.125,6.54492 2.8543,4.20598 3.0212,4.70508 1.5859,4.70508 -0.5431,0 -2.0466,-1.6875 -3.3418,-3.75 -4.9885,-7.9437 -5.7297,-10.25 -3.2949,-10.25 z"
         id="path3907" />
      <path
         style="fill:#c792ea;fill-opacity:1"
         d="m 1435.7069,645.77795 c -1.01,0.19889 -5.448,5.93265 -11.9687,15.48828 -5.0399,7.38559 -5.5562,8.56535 -4.0079,9.15625 4.1663,1.58998 5.6393,0.29452 10.4903,-9.22656 2.6359,-5.17353 4.5594,-10.02599 4.2734,-10.7832 -0.286,-0.75721 9e-4,-2.00486 0.6387,-2.77344 0.6378,-0.76858 0.9666,-1.59194 0.7305,-1.82813 -0.036,-0.0365 -0.089,-0.0465 -0.1563,-0.0332 z"
         id="path3905" />
      <path
         style="fill:#ffffff;fill-opacity:1"
         d="m 1428.162,643.87756 c 0.053,-0.0119 0.092,-0.008 0.1133,0.0137 0.7004,0.70045 -16.1089,18.39841 -17.4746,18.39841 -0.4367,0 -0.793,-0.34751 -0.793,-0.77148 0,-1.31502 16.4952,-17.27254 18.1543,-17.64063 z"
         id="path3903" />
      <path
         style="fill:#ffffff;fill-opacity:1"
         d="m 1343.3436,642.25842 c 0.3692,0.15326 0.618,1.72328 0.6328,4.78125 0.024,5.01089 -0.2775,6.25 -1.5293,6.25 -1.2921,0 -1.4444,-0.8188 -0.8769,-4.75 0.6255,-4.33352 1.2987,-6.47829 1.7734,-6.28125 z"
         id="path3901" />
      <path
         style="fill:#c792ea;fill-opacity:1"
         d="m 1426.3143,640.97912 c -0.8471,-0.0257 -2.3019,1.09506 -5.5117,3.94141 -3.0205,2.6785 -8.9363,7.75415 -13.1445,11.2793 -4.2082,3.52515 -7.6504,6.9661 -7.6504,7.64648 0,0.68037 1.591,2.63286 3.5351,4.33984 2.6291,2.30834 4.4868,3.09464 7.25,3.06641 3.1898,-0.0326 4.1078,-0.6068 6.4922,-4.05273 1.5275,-2.20746 2.468,-4.55178 2.0899,-5.21094 -0.3781,-0.65916 -0.3461,-0.89167 0.072,-0.51563 0.4184,0.37605 3.7253,-3.22395 7.3476,-8 3.6224,-4.77604 7.0635,-9.01389 7.6485,-9.41797 0.5849,-0.40408 -0.6016,-0.74158 -2.6367,-0.75 -2.359,-0.01 -4.0276,-0.602 -4.6055,-1.63476 -0.2409,-0.43038 -0.5017,-0.67973 -0.8867,-0.69141 z"
         id="path3899" />
      <path
         style="fill:#ffffff;fill-opacity:1"
         d="m 1100.951,640.28967 c 1.5054,0 1.3257,1.0494 -0.9433,5.5 -1.1,2.15759 -2,5.19122 -2,6.74219 0,3.11606 2.2652,4.61366 4.3555,2.8789 1.9813,-1.64435 2.6403,-0.3477 2.6894,5.29493 l 0.043,5.08398 1.8555,-3.5 c 3.557,-6.71217 17.0566,-16.24682 17.0566,-12.04688 0,0.52427 -1.9125,1.81492 -4.25,2.86915 -5.8748,2.6496 -11.043,8.71757 -13.1406,15.42773 -0.897,2.86947 -2.4464,1.99805 -3.5567,-2 -0.5728,-2.0625 -1.0438,-4.73262 -1.0469,-5.93359 0,-1.63698 -0.6942,-2.26278 -2.7558,-2.5 -2.4581,-0.28284 -2.7827,-0.76549 -3.0567,-4.54493 -0.3237,-4.46661 2.8277,-13.27148 4.75,-13.27148 z"
         id="path3897" />
      <path
         style="fill:#ffffff;fill-opacity:1"
         d="m 1364.9452,633.17639 c 0.5003,0.12183 1.161,2.00854 2.1914,6.11328 1.0354,4.125 2.9824,9.6375 4.3281,12.25 3.0373,5.89654 1.5324,6.30294 -1.8515,0.5 -3.1814,-5.45553 -6.1193,-16.01599 -5.1231,-18.41406 0.1392,-0.33497 0.2883,-0.48983 0.4551,-0.44922 z"
         id="path3895" />
      <path
         style="fill:#ffffff;fill-opacity:1"
         d="m 1441.455,628.10998 c -1.0659,0.055 -2.7518,0.52138 -5.1973,1.21094 -7.7519,2.18577 -17.3503,5.85264 -15.5,5.92187 0.6875,0.0257 1.25,0.96269 1.25,2.08204 0,1.70225 0.3157,1.86584 1.9336,1 2.7829,-1.4894 5.7604,-1.27408 6.4277,0.46484 0.3365,0.87686 1.8354,1.5 3.6074,1.5 1.6673,0 3.0313,0.47613 3.0313,1.05859 0,2.40585 2.0043,-0.45355 3.9355,-5.61523 2.1975,-5.8733 2.8566,-7.74394 0.5118,-7.62305 z"
         id="path3893" />
      <path
         style="fill:#ffffff;fill-opacity:1"
         d="m 1121.2264,624.48889 c 0.1895,-0.014 0.3446,0.0321 0.4571,0.14453 0.3654,0.36546 -0.2895,1.68099 -1.4571,2.92383 -2.4696,2.62878 -5.2187,8.77985 -5.2187,11.67773 0,1.60557 0.8526,1.08354 4.2422,-2.59375 3.5887,-3.89335 14.1555,-10.35156 16.9355,-10.35156 1.3948,0 0.9088,2.68287 -0.7324,4.04492 -0.855,0.70961 -2.025,2.16857 -2.5996,3.24219 -0.9588,1.79142 -0.6973,1.7575 3.1699,-0.41602 2.3177,-1.30261 5.5393,-3.87857 7.1602,-5.72461 3.0961,-3.5263 4.7314,-3.71127 2.9218,-0.33007 -2.3588,4.40754 -11.8783,10.42439 -18.3476,11.5957 -4.646,0.84119 -5.268,-1.39938 -0.8516,-3.06641 1.5937,-0.60155 3.4209,-2.07238 4.0606,-3.26758 1.1396,-2.12943 1.062,-2.12165 -3.8379,0.36133 -3.6698,1.85962 -6.2372,4.26643 -9.6485,9.04688 -4.892,6.85553 -4.8468,6.80741 -5.6503,6.0039 -0.7921,-0.79206 1.9667,-14.18319 3.5546,-17.2539 1.5259,-2.95076 4.5157,-5.9388 5.8418,-6.03711 z"
         id="path3891" />
      <path
         style="fill:#c792ea;fill-opacity:1"
         d="m 1335.7753,615.22912 -3.5039,2.67383 c -1.9277,1.47029 -7.1638,3.9798 -11.6348,5.57813 -7.3995,2.64517 -8.8022,2.83757 -15.6289,2.14257 -10.7964,-1.09915 -12.4225,-0.89718 -23.3965,2.88477 l -9.8984,3.41016 6.5175,3.3789 6.5196,3.38086 6.1992,-3.69531 c 6.6252,-3.9466 7.0586,-4.12372 7.0586,-2.9043 0,0.43379 -2.5049,2.30661 -5.5664,4.16211 l -5.5664,3.37305 3.0078,1.26562 c 5.6092,2.35851 6.3936,2.06078 13.2129,-5.02148 3.6235,-3.76328 7.098,-6.66808 7.7207,-6.45508 0.6227,0.21299 -2.0264,3.61269 -5.8867,7.55469 -6.3866,6.52169 -6.8261,7.22762 -4.8848,7.84375 2.2554,0.71582 3.1995,0.062 12.1894,-8.42774 2.5999,-2.45517 5.0313,-4.16017 5.4024,-3.78906 0.3711,0.37111 -2.3664,3.51202 -6.082,6.98047 -7.338,6.84989 -7.3361,6.81455 -0.3399,9.97656 l 3.707,1.67578 2.8165,-3.41796 c 1.5491,-1.8794 4.6948,-7.18774 6.9902,-11.79688 3.7774,-7.58509 7.2793,-12.41309 7.2793,-10.03711 0,1.46251 -9.5805,19.08489 -12.3477,22.71289 l -2.5097,3.29102 6.4961,2.29297 c 4.0047,1.41381 6.8504,1.93669 7.4238,1.36328 0.8186,-0.81861 2.8184,-8.26675 5.5723,-20.75977 0.4757,-2.15823 1.3355,-4.07813 1.9101,-4.26562 1.137,-0.37095 -2.8776,21.67501 -4.4629,24.50781 -0.7877,1.40766 0.029,1.9896 5.2422,3.72852 l 6.1758,2.06054 0.7637,-2.55469 c 0.4195,-1.40438 1.0494,-6.71523 1.4003,-11.80273 0.3509,-5.0875 1.0854,-9.25 1.6329,-9.25 0.6442,0 0.7511,4.3978 0.3027,12.46875 l -0.6934,12.46875 2.7969,0.62109 c 1.5382,0.34073 4.9632,1.30059 7.6113,2.13282 2.6482,0.83223 4.9938,1.33239 5.2129,1.11328 0.2191,-0.21911 -0.2577,-2.85214 -1.0605,-5.85157 -2.0909,-7.81227 -3.1122,-19.4699 -1.625,-18.55078 0.637,0.39368 1.1582,2.19154 1.1582,3.9961 0,4.42898 3.7359,18.77928 5.2695,20.24218 0.6772,0.64601 4.3927,1.81086 8.2578,2.58985 l 7.0274,1.41797 -3.7051,-7.07422 c -3.7453,-7.14957 -7.8496,-19.96162 -7.8496,-24.50391 0,-4.37252 1.651,-0.86727 3.8945,8.27149 2.2092,8.99887 6.7146,19.25944 9.459,21.53711 2.2968,1.90618 6.5594,2.9398 12.5176,3.03515 l 5.3711,0.0859 -6.5703,-6.96484 c -3.6138,-3.83082 -8.3959,-9.77537 -10.627,-13.20899 -3.992,-6.14355 -8.5637,-16.64138 -7.6465,-17.55859 1.0503,-1.05025 2.4239,0.98058 4.4805,6.62109 1.1932,3.27242 3.0021,6.97796 4.0195,8.23438 l 1.8496,2.2832 6.8223,-2.95313 c 3.7519,-1.62445 7.1826,-3.10377 7.625,-3.2871 0.4424,-0.18334 0.8047,0.11919 0.8047,0.67187 0,0.55267 -3.1561,2.4602 -7.0137,4.23828 l -7.0137,3.23242 1.6465,2.59571 c 0.9054,1.42758 2.5356,3.57774 3.6231,4.77734 l 1.9765,2.17969 8.6778,-7.17969 c 4.7728,-3.9496 10.2362,-8.41965 12.1406,-9.93164 1.9044,-1.512 3.0129,-2.69549 2.4629,-2.63086 -2.8472,0.33455 -3.7033,-0.23762 -3.2051,-2.14258 0.4946,-1.89125 0.1938,-1.9831 -4.6328,-1.41406 -5.4716,0.64508 -14.004,2.91228 -16.8984,4.49023 -2.4871,1.35589 -4.7637,1.16725 -4.7637,-0.39449 0,-0.7414 3.2417,-2.58787 7.25,-4.13086 3.9875,-1.53498 8.539,-3.35419 10.1152,-4.04296 l 2.8672,-1.25196 -3.3965,-1.12109 c -1.8681,-0.61653 -5.7844,-2.69503 -8.7031,-4.61719 -2.9187,-1.92217 -5.4821,-3.49414 -5.6953,-3.49414 -0.2133,0 -0.1292,1.29561 0.1875,2.87891 0.8459,4.22967 -0.9994,4.58541 -5.7871,1.11718 l -4.2422,-3.07226 -1.3301,2.53906 c -1.3823,2.63834 -4.6189,3.39407 -5.8691,1.37109 -0.4839,-0.78289 -1.4564,-0.24231 -2.961,1.64454 -2.9872,3.74633 -5.0074,2.81691 -7.6367,-3.50977 l -2.1015,-5.05273 -2.8516,2.73046 c -1.5683,1.50255 -2.5115,2.98467 -2.0977,3.29297 1.0405,0.77506 1.3958,24.06055 0.3672,24.06055 -0.9516,0 -2.1152,-9.72962 -2.1152,-17.68359 v -5.38868 l -3.7324,2.53711 c -4.6933,3.18917 -5.622,3.17035 -8.2403,-0.1582 -1.5353,-1.95191 -2.0367,-3.80975 -1.8222,-6.75 0.2856,-3.91641 0.1832,-4.06686 -2.9512,-4.36914 -2.4886,-0.23999 -3.3926,-0.89031 -3.8672,-2.78125 z"
         id="path3889" />
      <path
         style="fill:#ffffff;fill-opacity:1"
         d="m 1127.33,597.78967 0.957,2.85156 c 0.8202,2.44666 1.3508,2.77203 3.7363,2.29492 2.3918,-0.47836 2.9573,-0.12587 4.0547,2.52344 0.9547,2.30494 1.0123,4.0699 0.2266,7.01367 l -1.0508,3.9336 2.2969,-2.15625 c 1.2627,-1.18626 3.2445,-4.36271 4.4043,-7.0586 1.1597,-2.69589 2.5849,-4.90234 3.1679,-4.90234 1.533,0 0.076,7.64921 -2.3789,12.49219 -3.2458,6.40198 0.62,2.43383 4.4942,-4.61328 1.7773,-3.23297 3.7452,-5.87891 4.373,-5.87891 0.6278,0 1.4242,1.77761 1.7715,3.94922 0.3472,2.17161 1.7832,5.20911 3.1894,6.75 2.0307,2.22514 2.3383,2.352 1.4961,0.61719 -1.2537,-2.58262 -1.4417,-8.15192 -0.2285,-6.76563 0.4573,0.5225 1.3824,2.88684 2.0567,5.25586 0.6742,2.36902 2.146,5.22808 3.2695,6.35156 1.4926,1.49259 1.7439,2.34011 0.9355,3.14844 -1.5386,1.53864 -10.7069,-7.60654 -12.2187,-12.1875 l -1.1485,-3.47656 -1.7675,3.44726 c -2.3416,4.56412 -6.1897,8.30823 -11.7012,11.38868 -4.4983,2.51416 -6.2578,3.05529 -6.2578,1.92382 0,-0.32848 2.25,-2.6193 5,-5.09179 2.75,-2.47249 5,-4.86944 5,-5.32617 0,-0.45673 -1.3161,0.4841 -2.9238,2.09179 -2.7939,2.79382 -6.0762,3.90072 -6.0762,2.04883 0,-0.48085 0.6807,-2.80516 1.5137,-5.16602 1.9359,-5.48703 1.1653,-8.34622 -2.0352,-7.54296 -1.4305,0.35904 -2.9209,-10e-4 -3.8496,-0.92969 -1.2772,-1.27723 -1.6414,-1.29678 -2.3223,-0.125 -1.2341,2.12413 -7.3164,6.96095 -7.9531,6.32422 -0.3095,-0.30952 1.0809,-2.00594 3.0918,-3.77149 2.0108,-1.76555 4.382,-4.60665 5.2676,-6.3125 z"
         id="path3887" />
      <path
         style="fill:#ffffff;fill-opacity:1"
         d="m 1355.9471,594.5592 c -1.173,0.0239 -2.5836,0.43235 -5.0605,1.24219 -7.2845,2.38169 -9.8219,3.74752 -17.8613,9.61328 -6.2782,4.58072 -25.428,13.875 -28.5879,13.875 -0.7219,0 -1.621,0.49928 -1.9981,1.10938 -1.6568,2.68079 11.9599,-1.15209 28.3086,-7.96876 6.1618,-2.5692 7.4444,-2.81343 8.6211,-1.63671 0.7604,0.76039 1.1757,2.46898 0.9219,3.79687 -0.4129,2.15989 -0.031,2.48336 3.6269,3.06836 l 4.0899,0.6543 v 5.98828 c 0,3.55093 0.432,5.98828 1.0605,5.98828 0.583,0 3.3955,-2.18896 6.25,-4.86328 2.8546,-2.67432 6.1989,-5.38771 7.4336,-6.03125 2.0133,-1.04932 2.4513,-0.83237 4.2461,2.11133 1.1007,1.80536 2.0038,3.81957 2.0059,4.47461 0.01,2.43194 2.04,2.34269 2.9804,-0.13086 1.1288,-2.9689 2.6268,-3.23081 5.1954,-0.90625 1.7186,1.55538 1.8281,1.52353 1.8281,-0.53125 0,-3.01535 2.7619,-3.7952 6.2812,-1.77539 l 2.9453,1.68945 -0.6406,-2.76953 c -0.3517,-1.52259 -2.3692,-4.34258 -4.4844,-6.26758 -14.0364,-12.77435 -20.6258,-18.28334 -23.5253,-19.66602 -1.5271,-0.72818 -2.4637,-1.08837 -3.6368,-1.06445 z"
         id="path3885" />
      <path
         style="fill:#ffffff;fill-opacity:1"
         d="m 1183.0721,578.77209 c -0.043,0.005 -0.065,0.0195 -0.065,0.0449 0,0.82733 5.9058,16.17362 9.418,24.47266 3.8828,9.17491 10.6225,20.79427 19.4316,33.5 8.5833,12.37983 30.6426,33.45875 48.6504,46.48828 3.3,2.38771 7.8707,6.03654 10.1563,8.10938 7.8107,7.08381 34.5155,23.53289 36.3574,22.39453 0.5703,-0.35244 0.9128,-0.11081 0.7617,0.53711 -0.3397,1.45647 23.3491,13.72323 28.1973,14.60156 1.9404,0.35154 5.5523,1.68411 8.0273,2.95898 5.1121,2.63323 5,2.58919 5,1.88672 0,-1.263 -20.9378,-13.98828 -36.5,-22.18359 -23.6166,-12.43695 -42.1967,-24.77549 -51.9492,-34.5 -5.8301,-5.8134 -7.5964,-8.14719 -6.6211,-8.75 0.8119,-0.50176 2.6308,-0.0555 4.668,1.14648 4.234,2.49813 6.3163,2.0797 8.3965,-1.68945 1.3875,-2.51417 2.3624,-3.05099 6.0195,-3.31641 2.6416,-0.19172 4.8488,-0.98117 5.5938,-2 1.0249,-1.40169 1.7048,-1.49502 4.0625,-0.55664 6.7282,2.67801 7.0297,2.72606 4.6054,0.7168 -1.2494,-1.03551 -1.9066,-2.34386 -1.5,-2.98633 0.4992,-0.78865 3.8719,0.37495 10.8653,3.75196 5.577,2.69308 11.652,5.16472 13.5,5.49218 3.1289,0.55444 2.9467,0.31324 -2.6407,-3.49609 -6.2274,-4.24565 -7.4241,-6.3218 -4,-6.93945 6.1228,-1.10443 2.1124,-5.62988 -8.5351,-9.63282 -10.8981,-4.09715 -26.0486,-12.83785 -35.3418,-20.38867 -9.6396,-7.83224 -10.3184,-8.41016 -22.8418,-19.44336 -12.31,-10.84517 -16.8451,-13.94411 -27.6054,-18.86912 -4.7722,-2.18422 -10.4758,-4.79761 -12.6758,-5.80664 -7.4301,-3.40784 -12.7941,-5.61566 -13.4356,-5.54297 z"
         id="path3883" />
      <path
         style="fill:#ffffff;fill-opacity:1"
         d="m 920.00769,560.28967 c 0.55,0 1.0039,2.3625 1.00781,5.25 0.004,2.8875 0.29391,8.2875 0.64453,12 0.76368,8.08602 -1.04978,9.44345 -2.0039,1.5 -0.97201,-8.09233 -0.77237,-18.75 0.35156,-18.75 z"
         id="path3881" />
      <path
         style="fill:#ffffff;fill-opacity:1"
         d="m 971.48816,546.51428 c 0.29113,0.0758 0.51953,2.89718 0.51953,6.57422 0,3.92216 0.89776,11.75901 1.99609,17.41601 2.38543,12.28616 2.36264,11.78516 0.56641,11.78516 -0.79082,0 -1.3987,-0.7875 -1.35156,-1.75 0.0471,-0.9625 -0.69404,-6.58495 -1.64649,-12.49414 -1.56834,-9.7302 -1.63814,-20.01616 -0.14453,-21.50977 0.0199,-0.0199 0.0411,-0.0265 0.0606,-0.0215 z"
         id="path3879" />
      <path
         style="fill:#ffffff;fill-opacity:1"
         d="m 1120.6796,528.28772 c -4.806,0.002 -10.2099,4.89704 -21.25,15.79687 -7.0777,6.98766 -16.564,15.92775 -21.0801,19.86719 -4.5161,3.93945 -10.8269,9.63436 -14.0254,12.6543 -5.4327,5.12936 -14.8254,12.885 -22.625,18.68359 -1.8495,1.375 -5.1243,3.9806 -7.2774,5.79102 -10.6802,8.98084 -31.5995,20.11566 -41.6601,22.17382 -9.75061,1.99475 -28.10582,1.57058 -36.75391,-0.84961 -4.125,-1.15439 -11.55,-3.22605 -16.5,-4.60351 -11.06194,-3.07826 -20.23957,-3.2673 -26.25,-0.53906 -2.3375,1.06103 -4.25,2.30134 -4.25,2.75586 0,0.82625 7.97087,24.53665 11.99219,35.67187 2.06801,5.72645 7.70759,17.59961 8.35937,17.59961 0.17739,0 2.71637,-3.63747 5.64258,-8.08398 5.6436,-8.57572 8.75653,-10.80645 12.62695,-9.04297 1.19831,0.54598 2.71549,2.61892 3.3711,4.60547 0.92585,2.80535 2.07384,3.9651 5.13867,5.1914 6.11039,2.4449 8.1709,8.08302 5.36523,14.67969 -0.70132,1.64896 -0.56684,1.71178 1.24219,0.58203 2.74849,-1.71647 5.26172,-6.17571 5.26172,-9.33594 0,-2.96369 2.02075,-3.43042 4.42773,-1.02343 1.76552,1.76552 1.82524,2.21025 2.03711,15.42773 0.1964,12.25287 3.09332,19 8.15625,19 3.07644,0 8.83312,-5.1852 12.08789,-10.88672 1.44831,-2.53707 4.16181,-6.52578 6.02933,-8.86328 4.1866,-5.24037 7.9754,-5.75023 11.1465,-1.5 l 2.0527,2.75 0.031,-2.75 c 0.026,-2.24763 0.4815,-2.75 2.4961,-2.75 3.1227,0 4.938,3.23744 4.1172,7.3418 -0.9693,4.84625 1.1565,1.89946 3.1738,-4.39844 l 1.7442,-5.44336 4.4609,-0.25 c 3.1238,-0.17472 4.7112,0.19987 5.2989,1.25 0.4615,0.82473 1.4913,1.5 2.289,1.5 0.7977,0 2.3076,0.8564 3.3535,1.90234 1.8689,1.86892 1.9307,1.79569 3.5723,-4.25 0.9187,-3.38344 2.3376,-8.81217 3.1543,-12.0625 1.82,-7.24367 3.7625,-11.14332 5.9746,-11.99218 2.5286,-0.97033 6.3841,2.09028 7.0918,5.6289 0.58,2.90015 0.687,2.97126 1.4336,0.95313 0.4439,-1.19995 0.5473,-2.85798 0.2305,-3.6836 -0.9806,-2.5553 0.5901,-6.54211 2.9199,-7.41211 2.6022,-0.97176 6.691,0.30871 8.4707,2.65235 1.0715,1.41109 1.25,1.11924 1.25,-2.04492 0,-7.56876 4.8133,-4.02385 16.0351,11.80859 8.3898,11.83676 11.9758,15.87964 17.3477,19.56055 4.4489,3.04847 6.6172,6.82694 6.6172,11.53125 v 3.7832 l 2.9062,-2.78516 c 4.4019,-4.21723 6.4379,-2.98336 8.5469,5.18164 2.603,10.0775 4.7417,15.12983 7.8262,18.48243 2.9159,3.16937 3.0593,4.19766 0.4472,3.19531 -3.5893,-1.37738 -7.9203,-10.29733 -10.7812,-22.19922 -0.5619,-2.3375 -1.5234,-4.25 -2.1367,-4.25 -0.6133,0 -2.7776,1.8 -4.8086,4 -2.1098,2.28531 -4.6153,4 -5.8457,4 -2.5119,0 -2.7816,-1.23454 -0.6543,-3 0.964,-0.80004 1.5,-3.01519 1.5,-6.19922 0,-5.31824 0.44,-4.69374 -10.1016,-14.31445 -2.4192,-2.20793 -8.3536,-9.52043 -13.1875,-16.25 -4.8339,-6.72957 -9.1764,-12.23633 -9.6504,-12.23633 -0.4739,0 -1.2611,1.68537 -1.748,3.74414 -0.9801,4.14424 -4.3125,5.96112 -4.3125,2.35156 0,-2.41393 -4.3243,-5.56823 -6.4922,-4.73632 -1.0699,0.41055 -1.5078,2.05264 -1.5078,5.6582 0,5.42471 -1.5379,9.3491 -4.834,12.33203 -2.6836,2.42862 -4.9549,1.18114 -2.5957,-1.42578 3.2565,-3.59844 -0.3887,-13.97897 -3.8887,-11.07422 -0.7799,0.64731 -2.2073,4.43361 -3.1738,8.41406 -2.3048,9.49217 -6.3584,21.85049 -7.6934,23.45899 -1.8851,2.2715 -3.6775,1.39172 -4.0019,-1.96485 -0.2246,-2.32341 -0.8791,-3.33847 -2.3125,-3.58398 -1.1,-0.1884 -2.4512,-0.91262 -3.002,-1.60938 -0.5508,-0.69676 -2.1258,-1.18487 -3.5,-1.08398 -1.9825,0.14557 -2.8294,1.09616 -4.0996,4.60156 -1.8714,5.16446 -7.1011,10.91797 -9.9258,10.91797 -2.4684,0 -2.4648,-0.73703 0.027,-4.5 2.1024,-3.17452 2.7294,-9.5 0.9415,-9.5 -0.5825,0 -0.7687,0.4692 -0.4141,1.04297 0.8433,1.36451 -4.5127,8.37987 -5.5664,7.29101 -0.4442,-0.45902 -0.955,-2.18398 -1.1348,-3.83398 -0.2619,-2.40292 -0.856,-3.06194 -2.9883,-3.30859 -2.1831,-0.25254 -3.2176,0.50096 -5.75,4.18164 -1.6983,2.46846 -3.08785,4.7919 -3.08785,5.16406 0,1.09626 -7.91714,10.7153 -10.04688,12.20703 -1.13211,0.79295 -3.74541,1.24047 -6.20507,1.0625 -4.00026,-0.28946 -4.39333,-0.59927 -6.73047,-5.30664 -2.09309,-4.21581 -2.56361,-6.88206 -3,-17 l -0.51758,-12 -1.86719,3.5 c -2.47501,4.63988 -5.60419,8.00812 -8.46679,9.11328 -3.68813,1.42388 -4.26119,0.15947 -2.28516,-5.04101 2.43984,-6.42113 1.06696,-10.07604 -4.64453,-12.36133 -2.91532,-1.16647 -4.17961,-2.35149 -4.69336,-4.39844 -0.96815,-3.85747 -2.3755,-5.3125 -5.13863,-5.3125 -1.84341,0 -3.63727,1.91196 -8.29688,8.8418 l -5.94531,8.83984 7.35547,11.91016 c 11.68176,18.91519 13.26865,20.9867 34.32812,44.79687 l 10.34766,11.69727 2.77344,-4.29297 c 4.63427,-7.17423 15.48151,-16.07398 21.09371,-17.30664 3.4967,-0.768 9.6439,2.55804 10.8946,5.89453 0.6931,1.84908 0.9579,1.57874 2.0781,-2.13086 1.5011,-4.97137 2.6406,-5.24612 6.2207,-1.5 4.3936,4.59728 6.6839,10.91253 6.0566,16.69922 l -0.5468,5.05078 2.707,-3.5 c 3.1444,-4.06396 7.3173,-12.68996 8.1484,-16.8457 0.4791,-2.39534 0.068,-3.24194 -2.4472,-5.03321 -3.2462,-2.31147 -10.1719,-11.16647 -10.1719,-13.00586 0,-0.61381 0.675,-1.11523 1.5,-1.11523 0.825,0 1.5,0.46985 1.5,1.04297 0,0.57312 1.4625,2.99336 3.25,5.37891 3.4592,4.61656 9.2148,8.01994 23.1094,13.66406 6.9486,2.82259 8.0221,3.60974 9.2734,6.80273 2.3317,5.94984 2.6692,6.26105 9.3945,8.69141 10.6941,3.86457 13.232,9.18711 10.8614,22.78125 l -1.4473,8.29883 4.5293,-0.86133 c 5.4245,-1.03063 7.8048,-0.55004 11.4414,2.31055 3.3142,2.60691 4.7234,5.77781 5.5078,12.39062 l 0.5938,5 3.3183,-8 c 3.2918,-7.93633 6.0354,-11.5 8.8555,-11.5 0.8064,0 2.8334,1.36665 4.5039,3.03711 2.8737,2.87367 3.0144,3.3852 2.625,9.5 -0.2263,3.55454 -0.3288,6.46289 -0.2285,6.46289 0.9589,0 3.9416,-6.41542 4.8183,-10.36328 0.6075,-2.73535 1.5737,-5.12935 2.1465,-5.32031 1.2778,-0.42592 4.088,7.57198 4.8086,13.68359 0.5059,4.29052 -0.5348,18.33607 -1.9394,26.17188 -0.6233,3.47677 -0.5067,3.69095 2.2089,4.03515 1.5776,0.19994 3.1883,0.22056 3.5782,0.0449 0.3899,-0.17563 3.2423,-4.20694 6.3398,-8.95898 7.0315,-10.78732 7.5226,-11.98714 8.8692,-21.71289 0.603,-4.35542 1.5677,-8.07533 2.1445,-8.26758 0.5767,-0.19224 2.0999,1.52054 3.3848,3.80664 l 2.3359,4.15625 1.791,-2.375 1.793,-2.375 2.4707,2.32227 c 1.9564,1.838 2.8746,2.10927 4.3926,1.29687 2.0478,-1.09598 4.2695,-7.1248 4.2695,-11.58398 0,-4.58331 3.3017,-2.8354 4.6269,2.44922 1.1206,4.46841 1.1286,4.47527 1.9043,1.55078 0.6368,-2.40053 -0.1471,-16.28579 -2.041,-36.10547 -0.3223,-3.37358 -2.2685,-7.90389 -5.9941,-13.95508 -3.9045,-6.34177 -2.9047,-17.18123 2.041,-22.12695 5.2413,-5.24126 16.9928,-1.38987 22.3066,7.31054 1.2822,2.09932 3.2904,5.39141 4.461,7.31641 1.959,3.2216 2.1552,3.32103 2.4804,1.25 0.2516,-1.60146 1.0368,-2.25 2.7247,-2.25 1.3042,0 2.6753,0.48997 3.0449,1.08789 0.4465,0.72248 1.0055,0.75229 1.6679,0.0898 1.7124,-1.71235 6.4653,0.69588 8.1622,4.13672 l 1.5703,3.18555 0.022,-3.19141 c 0.028,-3.993 1.5699,-5.02853 4.0898,-2.74804 1.6089,1.45602 2.3766,1.55804 4.4844,0.59765 1.3986,-0.63726 4.9299,-1.1582 7.8476,-1.1582 6.947,0 11.7189,3.03379 13.0274,8.2832 0.5095,2.04401 1.2166,3.7168 1.5703,3.7168 0.3537,0 1.2875,-1.4625 2.0742,-3.25 1.8892,-4.29213 5.7922,-4.52344 7.7403,-0.45898 l 1.3378,2.79101 1.9239,-2.44726 c 4.3541,-5.53543 7.9027,-0.29447 7.9629,11.76367 0.033,6.6628 0.1238,6.94736 1.4648,4.60156 0.83,-1.4519 1.4443,-5.27792 1.4648,-9.12695 0.067,-12.44694 5.0904,-11.47389 19.4043,3.75976 4.8782,5.19164 10.2691,10.16384 11.9805,11.04883 l 3.1133,1.60938 -3.3633,-3.83008 c -3.294,-3.75167 -7.0346,-10.73294 -7.0781,-13.21094 -0.038,-2.14821 1.972,-1.3816 5.7695,2.20117 2.0122,1.89835 4.6948,4.00599 5.961,4.6836 2.0101,1.07577 2.4998,0.95131 3.8515,-0.97852 0.8514,-1.21557 2.0766,-2.12673 2.7227,-2.02539 0.6461,0.10135 1.9227,-0.14446 2.8379,-0.54688 1.0229,-0.4498 4.2974,0.42183 8.5,2.26368 3.7598,1.64782 8.1859,3.32172 9.8359,3.71875 l 3,0.7207 -2.8633,-2.70117 c -2.2774,-2.14852 -2.7476,-3.28517 -2.2929,-5.5586 0.5623,-2.81176 0.3911,-2.93548 -10.5547,-7.52734 -20.1479,-8.45219 -39.1635,-19.05076 -58.4532,-32.58008 -4.6133,-3.23571 -5.4543,-3.51178 -5.0859,-1.66992 0.4626,2.31286 -5.6196,1.98789 -9.291,-0.49609 -6.1844,-4.18421 -6.2787,-4.21928 -5.0586,-1.93946 2.2857,4.27096 0.2944,5.85031 -2.7402,2.17383 -1.9335,-2.34241 -16.4953,-8.20324 -17.0039,-6.84375 -0.1893,0.50567 0.4158,2.07796 1.3437,3.49414 2.2779,3.47647 0.6302,5.14808 -2.8359,2.87695 -2.46,-1.6118 -8.5026,-8.4002 -11.7207,-13.16796 l -1.5567,-2.30664 -1.3008,3.73046 c -1.7855,5.11603 -3.982,8.41042 -5.1328,7.69922 -0.5278,-0.32623 -0.683,-1.69881 -0.3437,-3.05078 0.651,-2.59407 -1.238,-8.41986 -2.7305,-8.41986 -0.4833,0 -0.8789,0.45 -0.8789,1 0,0.55 -0.9963,1 -2.2129,1 -1.4196,0 -4.6648,-2.5074 -9.0606,-7 -5.3237,-5.44105 -7.486,-7 -9.7109,-7 -1.6204,0 -4.1977,-1.12425 -5.9394,-2.58984 l -3.0762,-2.58789 v 2.60937 c 0,2.97033 3.5099,8.90992 7.3808,12.49219 2.8887,2.67323 3.409,4.40053 1.1758,3.90039 -2.739,-0.61341 -19.8488,-17.2416 -23.3125,-22.65625 l -3.4726,-5.42774 -2.1348,5.30469 c -1.1748,2.91776 -2.6248,5.46402 -3.2207,5.6582 -0.5959,0.19417 -1.6593,-1.57012 -2.3633,-3.91992 l -1.2793,-4.27148 -1.4629,3.66601 c -2.1448,5.3775 -3.9853,5.55665 -8.7734,0.85743 -4.8662,-4.77577 -7.8012,-5.11446 -11.7227,-1.35743 -4.0692,3.89859 -4.7905,1.923 -0.8007,-2.19335 4.5386,-4.68269 7.3332,-4.54153 12.6054,0.63281 2.307,2.26417 4.6734,3.81942 5.2598,3.45703 0.5863,-0.36239 1.5467,-2.44041 2.1328,-4.61719 0.5861,-2.17678 1.5132,-3.95703 2.0606,-3.95703 0.5473,0 1.9919,1.6875 3.2109,3.75 l 2.2168,3.75 0.918,-4.75 c 0.5046,-2.6125 1.3204,-4.75 1.8144,-4.75 2.1893,0 4.9092,2.35364 6.6816,5.7832 1.0565,2.04411 3.985,5.72521 6.5079,8.17969 l 4.5879,4.46289 -0.5801,-4.92969 c -0.3189,-2.71145 -0.7789,-5.252 -1.0215,-5.64453 -0.2426,-0.39253 0.078,-1.03446 0.7109,-1.42578 0.6747,-0.41697 2.7736,1.0476 5.0723,3.53711 3.205,3.47098 4.411,4.15515 6.5918,3.73828 2.2714,-0.43422 3.7859,0.59272 10.1699,6.89453 7.6619,7.5632 9.3946,8.54571 10.4082,5.9043 0.9481,-2.47067 2.3905,-1.72755 4.9395,2.54688 l 2.4121,4.04687 1.2734,-4.54687 c 0.7002,-2.501 1.7785,-4.53568 2.3945,-4.52149 0.6161,0.0142 1.8974,1.70169 2.8497,3.75 0.9522,2.04831 3.5028,5.74961 5.6679,8.22461 l 3.9375,4.5 -0.5488,-4.25 c -0.6115,-4.72811 0.5045,-5.45368 3.7441,-2.43555 1.0708,0.99761 4.5384,2.62221 7.7071,3.61133 3.1687,0.98911 6.3245,2.25325 7.0117,2.8086 0.9686,0.78282 1.1091,0.30713 0.625,-2.11329 -0.7284,-3.64191 0.4971,-4.02739 3.2207,-1.01367 2.5551,2.82728 8.4308,6.97045 6.5371,4.60938 -0.7524,-0.93809 -1.137,-2.59366 -0.8535,-3.67774 0.4087,-1.56297 -1.3893,-3.40835 -8.6875,-8.91797 -12.7674,-9.63842 -15.5786,-12.10969 -27.791,-24.42773 -12.1383,-12.24328 -14.6359,-15.48057 -24.666,-31.96875 -7.4563,-12.25711 -14.5623,-27.07515 -18.1758,-37.9043 -1.1598,-3.47565 -2.685,-7.22031 -3.3907,-8.32031 -0.7056,-1.1 -2.0651,-4.7 -3.0214,-8 -0.9564,-3.3 -2.3225,-7.125 -3.0352,-8.5 -0.7127,-1.375 -2.0738,-4.3805 -3.0234,-6.67773 -1.9615,-4.74467 -5.7294,-8.71882 -9.6797,-10.21094 -1.4803,-0.55913 -6.2053,-1.33098 -10.5,-1.71485 l -7.8086,-0.69921 -8.3301,-8.34766 c -5.3834,-5.39527 -8.7601,-8.35342 -12.498,-8.35156 z"
         id="path3877" />
      <path
         style="fill:#ffffff;fill-opacity:1"
         d="m 995.33386,524.62561 c 0.77736,-0.0822 1.24793,3.32108 2.72266,18.66406 0.6608,6.875 1.82023,14.8845 2.57618,17.79883 1.6187,6.2403 1.6158,6.20117 0.5332,6.20117 -0.463,0 -1.33813,-1.6875 -1.94532,-3.75 -2.60798,-8.85886 -5.63044,-37.87482 -4.04687,-38.85352 0.0549,-0.034 0.10833,-0.0551 0.16015,-0.0605 z"
         id="path3875" />
      <path
         style="fill:#ffffff;fill-opacity:1"
         d="m 1186.7362,521.29553 c 0.4972,0.10027 0.5072,3.05624 0.7227,16.99414 0.1781,11.5231 0.6641,16.62197 1.8945,19.875 1.8963,5.01399 2.0266,6.125 0.7246,6.125 -0.511,0 -1.5964,-2.3625 -2.4121,-5.25 -0.8158,-2.8875 -1.8286,-7.725 -2.252,-10.75 -1.0133,-7.24028 -0.5805,-25.22613 0.6368,-26.44336 0.3,-0.30008 0.5198,-0.5842 0.6855,-0.55078 z"
         id="path3873" />
      <path
         style="fill:#ffffff;fill-opacity:1"
         d="m 1018.0077,516.28967 c 0.6113,0 1.007,4.76158 1.0176,12.25 0.015,10.83492 1.4342,21.76969 3.5039,27 0.4576,1.15639 0.2235,1.75 -0.6895,1.75 -0.9243,0 -1.9524,-2.73044 -3.1074,-8.25 -2.3203,-11.0887 -2.7997,-32.75 -0.7246,-32.75 z"
         id="path3871" />
      <path
         style="fill:#ffffff;fill-opacity:1"
         d="m 1065.4999,508.69592 c 0.2092,-0.0188 0.5195,0.18862 0.9511,0.54687 2.0729,1.72029 2.037,9.3839 -0.059,12.58204 -2.1884,3.34017 -3.3847,3.0982 -3.3847,-0.6836 v -3.14648 l -2.25,3.32031 c -2.4321,3.58947 -4.2111,4.6535 -5.1739,3.0957 -0.3343,-0.54102 -0.1507,-1.26586 0.4083,-1.61132 1.5135,-0.93541 1.2273,-6.76264 -0.4493,-9.15625 -0.8056,-1.15013 -1.1785,-2.37616 -0.83,-2.72461 1.1704,-1.17041 4.295,2.65376 4.3105,5.27539 0.011,1.91035 0.2495,2.22303 0.9063,1.18554 0.4906,-0.77512 0.6795,-1.96668 0.4179,-2.64843 -0.6895,-1.79685 1.5077,-2.81351 3.1446,-1.45508 0.7678,0.63729 1.5932,1.91338 1.8339,2.83594 0.2408,0.92256 0.2411,-0.53635 0,-3.24219 -0.2651,-3.00085 -0.2885,-4.13245 0.1719,-4.17383 z"
         id="path3869" />
      <path
         style="fill:#80cbc4;fill-opacity:1"
         d="m 1132.6991,506.14709 -1.3301,3.82031 c -0.7318,2.10182 -1.3374,6.90249 -1.3457,10.66797 l -0.016,6.84766 5.75,6.5625 5.75,6.5625 0.2441,-3.41016 c 0.134,-1.8749 0.7166,-6.7832 1.295,-10.9082 0.5783,-4.125 1.275,-8.66315 1.5488,-10.08398 0.4516,-2.34309 0.1997,-2.58204 -2.7012,-2.58204 -2.4926,0 -3.8601,-0.82501 -6.1972,-3.73828 z"
         id="path3867" />
      <path
         style="fill:#80cbc4;fill-opacity:1"
         d="m 1109.2889,500.10803 -0.5761,4.83984 c -1.0376,8.70191 -0.8761,25.3418 0.2461,25.3418 0.5769,0 1.0488,-0.36769 1.0488,-0.81641 0,-0.44872 1.8438,-1.85241 4.0976,-3.11914 3.1506,-1.77071 5.1157,-2.18811 8.5,-1.80664 l 4.4024,0.4961 v -4.34571 c 0,-3.49096 -0.3016,-4.22969 -1.5313,-3.75781 -1.2763,0.48976 -1.4239,-0.0755 -0.8925,-3.39844 0.386,-2.4139 0.1626,-4.87212 -0.5664,-6.23437 -1.076,-2.01049 -1.7126,-2.1815 -5.9961,-1.61328 -4.5634,0.60535 -4.886,0.48599 -6.7618,-2.47657 z"
         id="path3865" />
      <path
         style="fill:#80cbc4;fill-opacity:1"
         d="m 1092.0331,495.46155 c -0.1373,-0.002 -0.2719,0.007 -0.4004,0.0254 -1.8707,0.26688 -2.1614,1.0541 -2.4238,6.57226 -0.3587,7.5409 2.134,27.63924 4.3554,35.11524 l 1.6016,5.38476 4.8125,-4.74023 4.8125,-4.74024 0.082,-8.14453 c 0.091,-8.88047 0.8599,-18.09515 1.75,-20.9668 0.5325,-1.71818 0.3922,-1.73248 -2.4746,-0.25 -3.4544,1.78631 -10.1406,2.11564 -10.1406,0.5 0,-0.58928 0.675,-1.74531 1.5,-2.57031 0.825,-0.825 1.5,-1.88599 1.5,-2.35742 0,-1.63925 -2.9157,-3.80549 -4.9747,-3.82812 z"
         id="path3863" />
      <path
         style="fill:#ffffff;fill-opacity:1"
         d="m 1148.9354,493.23108 c 0.1881,-0.0199 0.359,0.043 0.4981,0.20898 0.7374,0.88014 1.3943,10.84961 0.7148,10.84961 -0.4212,0 -2.0243,-1.31442 -3.5625,-2.91992 -1.5382,-1.60551 -3.8728,-3.1876 -5.1875,-3.51758 -1.3147,-0.32997 -2.3906,-1.04251 -2.3906,-1.58203 0,-1.4968 3.2859,-1.16891 5.7773,0.57617 2.0745,1.45303 2.2227,1.42323 2.2227,-0.44141 0,-1.45597 1.1128,-3.08772 1.9277,-3.17382 z"
         id="path3861" />
      <path
         style="fill:#ffffff;fill-opacity:1"
         d="m 1196.8319,484.77209 c 0.085,-0.007 0.1697,0.0136 0.252,0.0645 0.4349,0.26877 0.1133,2.47348 -0.7129,4.89843 -0.8263,2.42494 -1.8368,9.95463 -2.2461,16.73242 -0.474,7.84969 -1.0441,11.65667 -1.5703,10.48829 -2.1105,-4.68606 1.6481,-31.96191 4.2773,-32.1836 z"
         id="path3859" />
      <path
         style="fill:#80cbc4;fill-opacity:1"
         d="m 1069.3846,484.28967 c -0.8414,0 -2.8688,1.33762 -4.5039,2.97266 -4.2214,4.22145 -2.7907,6.29137 6.3692,9.21679 5.8127,1.85641 7.5001,2.86345 8.5801,5.1211 0.7394,1.54591 1.0904,3.47439 0.7792,4.28515 -0.4954,1.29103 -0.856,1.28477 -2.9003,-0.0547 -1.9715,-1.29177 -2.6189,-1.3217 -4.17,-0.1875 -2.8013,2.0484 -1.058,3.52616 3.4473,2.92187 4.3545,-0.58407 9.0215,1.61386 9.0215,4.24805 0,1.6636 -2.5517,2.01093 -3.5,0.47656 -0.8783,-1.42111 -2.1153,-1.24022 -3.9277,0.57227 -2.0906,2.09056 -1.9858,2.7674 0.6132,3.9414 3.4282,1.54855 3.2159,3.1889 -0.5039,3.88672 -1.8734,0.35146 -4.1482,1.45737 -5.0547,2.45899 -1.5352,1.69646 -1.5024,2.17198 0.4805,6.94335 2.4878,5.98629 2.007,9.42137 -1.6543,11.82032 -3.0058,1.96949 -4.1319,1.22435 -2.8262,-1.86914 1.5259,-3.61508 0.4959,-6.63913 -2.8496,-8.36914 l -3.08,-1.59375 0.5839,4.85546 c 0.7144,5.92554 7.5981,27.35352 8.7871,27.35352 0.471,0 3.2365,-1.9508 6.1446,-4.33594 l 5.2871,-4.33789 -0.3184,-9.56055 c -0.2016,-6.04388 0.074,-9.80508 0.75,-10.22265 0.6323,-0.39075 1.0684,0.21942 1.0684,1.49414 0,1.18531 0.7284,4.66244 1.6191,7.72656 l 1.6192,5.57031 1.8593,-2.41601 c 2.2568,-2.93567 2.2646,-3.1554 0.3594,-9.41797 -2.4945,-8.19961 -4.4488,-22.38391 -4.4531,-32.31836 0,-9.2145 -0.029,-9.30855 -2.2539,-8.57617 -4.5091,1.4841 -6.2683,1.06049 -5.9961,-1.44531 0.5658,-5.20877 -4.434,-11.16014 -9.377,-11.16014 z"
         id="path3857" />
      <path
         style="fill:#ffffff;fill-opacity:1"
         d="m 1114.91,471.5924 c -0.3998,0.017 -0.7675,0.11396 -1.0761,0.30469 -1.2781,0.7899 -0.9756,4.16582 0.4238,4.73047 0.6875,0.27741 2.4778,0.54056 3.9785,0.58399 2.5292,0.0732 2.649,-0.0991 1.6289,-2.3379 -0.8741,-1.91846 -3.2225,-3.35503 -4.9551,-3.28125 z"
         id="path3855" />
      <path
         style="fill:#ffffff;fill-opacity:1"
         d="m 1186.3964,469.66858 c 0.3586,0.007 0.6113,0.38518 0.6113,1.0039 0,0.825 -0.45,1.77727 -1,2.11719 -0.55,0.33992 -1,-0.0578 -1,-0.88281 0,-0.825 0.45,-1.77727 1,-2.11719 0.1375,-0.085 0.2691,-0.12339 0.3887,-0.12109 z"
         id="path3853" />
      <path
         style="fill:#ffffff;fill-opacity:1"
         d="m 1100.0663,469.28967 c 0.5824,0 0.7813,0.45 0.4414,1 -0.3399,0.55 -0.8161,1 -1.0586,1 -0.2425,0 -0.4414,-0.45 -0.4414,-1 0,-0.55 0.4761,-1 1.0586,-1 z"
         id="path3851" />
      <path
         style="fill:#ffffff;fill-opacity:1"
         d="m 1085.3553,468.93225 c 0.93,-0.008 2.3718,0.44849 4.4239,1.36719 2.4164,1.08187 4.4296,1.47522 4.7656,0.93164 0.9995,-1.61719 2.2803,-1.0576 5.9297,2.59179 3.4911,3.49113 5.0282,3.77672 1.9355,0.35938 -1.7517,-1.9356 -1.1416,-3.89258 1.2149,-3.89258 0.825,0 1.2797,0.35808 1.0097,0.79492 -0.27,0.43684 0.3789,2.73616 1.4414,5.10938 1.0626,2.37322 1.9317,4.71514 1.9317,5.20508 0,1.56626 -2.2996,0.95629 -4.6211,-1.22461 l -2.252,-2.11329 0.5528,2.11329 c 0.9433,3.60742 -2.4942,2.49275 -4.0899,-1.32618 -1.4968,-3.58235 -7.5741,-7.55859 -11.5508,-7.55859 -1.1219,0 -2.039,-0.42387 -2.039,-0.94141 0,-0.93645 0.4177,-1.40797 1.3476,-1.41601 z"
         id="path3849" />
      <path
         style="fill:#80cbc4;fill-opacity:1"
         d="m 964.17761,468.77209 c -3.4341,0.0466 -6.27402,0.28769 -6.74804,0.76172 -1.01294,1.01292 -1.09136,13.44761 -0.14844,23.50586 0.45342,4.83677 0.39882,8.25 -0.13282,8.25 -1.41176,0 -2.11735,-4.47222 -2.80273,-17.78516 -0.40361,-7.83997 -1.00892,-12.15783 -1.67578,-11.93554 -0.57468,0.19156 -2.78603,2.40174 -4.91211,4.91015 -6.44095,7.59919 -8.49996,19.5622 -4.83789,28.10547 2.3958,5.58918 6.09903,9.06855 11.99609,11.26758 8.349,3.11337 9.80848,6.22888 6.28907,13.42578 -1.90551,3.89661 -6.74142,6.86796 -8.42969,5.17969 -0.71332,-0.71332 -0.16468,-1.78299 1.76562,-3.44336 3.45062,-2.9681 2.8234,-5.72461 -1.30273,-5.72461 -5.68068,0 -6.84726,4.52927 -2.73047,10.5957 2.83132,4.17219 3.19827,7.57986 1.01172,9.39453 -1.20519,1.00022 -1.60626,0.92904 -2.10742,-0.37695 -0.74899,-1.95185 -6.28693,-2.18525 -8.62891,-0.36328 -0.88372,0.6875 -1.75751,2.11355 -1.94141,3.16797 -0.49853,2.85845 -2.69598,3.07851 -3.7246,0.37305 -1.42342,-3.74384 -3.60976,-5.12944 -6.04493,-3.82618 -2.33686,1.25065 -2.6056,3.89438 -0.88086,8.66407 0.90136,2.49266 0.90656,3.87984 0.0215,5.82226 -1.54194,3.3842 -4.66271,3.50677 -3.82032,0.15039 0.65777,-2.62075 -1.80444,-6.36282 -4.38476,-6.66406 -3.45007,-0.40277 -4.89099,0.24297 -8.10938,3.63477 -1.86474,1.96522 -5.0061,4.62605 -6.98047,5.91211 l -3.58984,2.33789 0.40234,8.33984 c 0.44251,9.19454 2.73726,28.36797 4.38672,36.64844 1.05363,5.28929 1.07119,5.30825 4.22461,4.64453 4.66748,-0.98238 5.04297,-1.78197 3.34571,-7.11524 -2.87689,-9.04002 -4.93933,-33.33984 -2.83009,-33.33984 0.46691,0 1.12977,4.3875 1.47265,9.75 0.63949,10.00109 2.86152,20.62649 5.33399,25.5 1.31907,2.60004 1.77224,2.75 8.30469,2.75 3.80007,0 8.06381,0.43822 9.47461,0.97461 1.41081,0.53639 2.56037,0.64889 2.55468,0.25 -0.006,-0.39889 -0.9057,-5.84169 -2,-12.0957 -2.23971,-12.80006 -2.70436,-34.69454 -0.85351,-40.23047 1.62034,-4.84646 3.3597,-6.31636 2.24609,-1.89844 -2.29523,9.10561 1.56956,47.43711 5.5293,54.83594 0.67715,1.26527 2.98528,2.21149 7.28906,2.98633 3.46402,0.62365 8.19741,1.68247 10.51758,2.35351 2.32016,0.67105 4.4149,1.01799 4.6543,0.77149 0.23941,-0.2465 -0.43409,-4.94727 -1.4961,-10.44727 -4.38499,-22.70928 -6.10012,-44.82641 -3.87695,-50 1.10374,-2.56854 1.25457,-1.54148 1.0293,7 -0.16746,6.34967 3.90604,33.49489 7.27734,48.5 1.16188,5.17133 1.44359,5.53627 4.71484,6.11719 3.3619,0.59702 9.98996,0.31457 16.72852,-0.71289 1.7875,-0.27254 3.25,-0.8138 3.25,-1.20313 0,-0.38932 -0.87741,-3.77357 -1.94922,-7.52148 -2.14886,-7.51417 -4.02106,-33.67969 -2.41016,-33.67969 0.51205,0 1.46937,5.9625 2.12696,13.25 1.05881,11.73378 4.04016,25.03223 6.0332,26.91016 1.01242,0.95394 10.19923,-3.30885 10.19923,-4.73243 0,-0.65926 -1.7691,-6.98696 -3.9317,-14.0625 -4.40258,-14.40468 -6.39839,-24.0321 -5.33198,-25.73046 0.4029,-0.64167 1.00794,0.38515 1.39258,2.36523 1.2578,6.47493 6.8418,24.18552 9.4766,30.05664 l 2.6132,5.82031 4.7598,-2.6582 4.7617,-2.6582 -1.7148,-4.0293 c -6.2127,-14.59241 -11.0852,-38.17763 -10.9551,-53.03125 0.077,-8.7503 1.7332,-7.92199 1.8594,0.92969 0.039,2.71095 0.4896,6.31095 1.0019,8 0.5123,1.68905 1.4493,6.22031 2.0821,10.07031 1.2127,7.37854 8.47,30.82023 10.4277,33.68164 1.0661,1.55828 1.3825,1.53151 4.3535,-0.34961 1.7624,-1.11589 3.2051,-2.39948 3.2051,-2.85351 0,-0.83587 -0.7513,-4.64333 -3.4883,-17.67579 -1.748,-8.32312 -1.9396,-13.30273 -0.5117,-13.30273 0.55,0 1.0077,1.0125 1.0176,2.25 0.01,1.2375 1.352,7.2 2.9824,13.25 1.6303,6.05 2.9726,11.32285 2.9824,11.7168 0.035,1.38968 7.0176,-3.43405 7.0176,-4.84766 0,-0.78834 -0.6544,-2.99659 -1.4531,-4.9082 -4.1884,-10.02412 -6.7814,-24.88075 -7.295,-41.78125 -0.3231,-10.63376 -0.1412,-17.19079 0.4942,-17.82617 0.6734,-0.67338 1.246,4.54721 1.7363,15.82031 0.5407,12.43372 1.3457,19.25983 3.0859,26.15234 2.4225,9.59457 6.7014,20.19888 8.127,20.14258 0.884,-0.0349 2.279,-1.04663 7.2812,-5.2793 l 3.3223,-2.8125 -1.7324,-8.1875 c -0.953,-4.50379 -2.1461,-10.07676 -2.6504,-12.38281 -1.1788,-5.39092 -1.1936,-10.00385 -0.029,-8.75586 0.4875,0.5225 1.8132,4.99922 2.9453,9.94922 1.1322,4.95 2.6552,10.6975 3.3848,12.77148 l 1.3262,3.76954 4.4062,-4.49024 4.4082,-4.49023 -1.1777,-5.28125 c -0.6473,-2.90405 -2.404,-10.5668 -3.9043,-17.0293 l -2.7285,-11.75 h -3.75 c -2.9176,0 -4.1216,-0.56624 -5.4219,-2.55078 -1.1689,-1.78396 -1.9895,-2.23513 -2.7246,-1.5 -0.5783,0.57824 -1.8101,1.05078 -2.7383,1.05078 -1.386,0 -1.6618,-0.93621 -1.5488,-5.23438 l 0.1367,-5.23242 -4,-0.55078 c -6.017,-0.8298 -6.5,-1.43 -6.5,-8.07226 0,-4.25075 -0.412,-6.13171 -1.4277,-6.52149 -1.7918,-0.68756 -8.6237,2.30428 -15.9063,6.96289 -5.8342,3.7321 -7.1768,3.53136 -6.0645,-0.90039 0.658,-2.62138 0.643,-2.62915 -2.2187,-1.16601 -1.5851,0.81042 -4.3453,1.78888 -6.1328,2.17382 -2.59031,0.55782 -3.25001,0.37995 -3.25001,-0.8789 0,-0.86871 0.41281,-1.58008 0.91797,-1.58008 1.49694,0 5.34074,-12.83148 4.65824,-15.55078 -0.373,-1.48608 -1.8263,-2.95314 -3.6739,-3.70703 -1.6817,-0.68621 -6.08328,-4.84441 -9.77926,-9.24024 -3.69598,-4.39584 -7.42082,-8.12802 -8.27735,-8.29297 -1.91275,-0.36836 -2.59693,4.79731 -3.48437,26.29102 -0.48582,11.76634 -0.23879,17.47914 1.14453,26.5 2.19739,14.32956 2.20536,14.43777 1.01562,14.78711 -3.1196,0.916 -5.49565,-36.92332 -3.52929,-56.20899 1.00229,-9.83033 1.02563,-12.96069 0.10156,-13.88476 -0.82508,-0.82508 -8.20032,-1.28857 -13.92383,-1.21094 z"
         id="path3847" />
      <path
         style="fill:#ffffff;fill-opacity:1"
         d="m 1049.5526,465.28967 c 2.7474,0 6.1088,3.47794 4.3887,4.54102 -0.6852,0.42346 -1.5897,0.0387 -2.1153,-0.9004 -0.5049,-0.90221 -1.5244,-1.64062 -2.2656,-1.64062 -0.9961,0 -1.4386,2.20519 -1.6992,8.45117 -0.3267,7.83049 -1.5185,11.54988 -3.1699,9.89844 -0.3759,-0.37583 -0.6836,-2.16649 -0.6836,-3.98047 0,-2.23733 -0.6215,-3.63175 -1.9336,-4.33398 -2.932,-1.56915 -4.2737,-1.2627 -3.6113,0.82422 0.6932,2.18419 -1.7686,4.61873 -3.8594,3.8164 -0.7865,-0.30181 -1.6792,0.0964 -1.9824,0.88672 -1.0863,2.83082 -4.4011,1.60867 -5.6153,-2.07031 -2.2469,-6.80825 -6.4635,-6.19476 -9.084,1.32226 -0.6106,1.75179 -1.5155,3.18555 -2.0117,3.18555 -3.0511,0 2.1953,-10.78456 5.9043,-12.13672 1.8054,-0.65818 2.8377,-0.31074 4.75,1.60156 1.3438,1.34382 2.4434,3.45151 2.4434,4.68164 0,2.12707 0.066,2.14567 1.3555,0.38282 0.7764,-1.06187 2.0116,-1.60292 2.8906,-1.26563 1.1027,0.42317 1.6985,-0.23471 2.1191,-2.33789 0.4663,-2.33145 1.1117,-2.92578 3.1758,-2.92578 1.4249,0 3.4616,0.46581 4.5254,1.03516 1.7561,0.93982 1.9336,0.68108 1.9336,-2.80078 0,-4.32212 1.3944,-6.23438 4.5449,-6.23438 z"
         id="path3845" />
      <path
         style="fill:#ffffff;fill-opacity:1"
         d="m 1002.8417,458.42639 c 0.4191,-0.0108 1.0797,0.34923 1.8965,1.16601 1.1018,1.10187 1.344,2.02311 0.7011,2.66602 -0.6429,0.64291 -1.4282,0.26475 -2.2754,-1.0918 -1.0466,-1.67597 -1.0208,-2.7223 -0.3222,-2.74023 z"
         id="path3843" />
      <path
         style="fill:#ffffff;fill-opacity:1"
         d="m 1192.1249,442.28967 c 1.2731,0 1.0882,1.26232 -0.5215,3.56055 -2.5385,3.62422 -9.7366,26.31436 -9.4102,29.66406 0.2393,2.45534 -0.1135,3.3016 -1.4961,3.58008 -1.586,0.31944 -1.7274,-0.11065 -1.1289,-3.46875 1.8318,-10.27785 10.5171,-33.33594 12.5567,-33.33594 z"
         id="path3841" />
      <path
         style="fill:#ffffff;fill-opacity:1"
         d="m 1276.6092,431.29162 c 0.5737,-0.009 1.5993,1.13414 2.3008,3.14649 1.1858,3.40163 1.4417,11.9639 0.4668,15.60156 -0.91,3.3957 -3.3691,2.81994 -3.3691,-0.78906 0,-3.98684 -3.3827,-10.50905 -6.5137,-12.56055 -2.4881,-1.6303 -3.3007,-3.40039 -1.5625,-3.40039 1.7448,0 7.3421,5.40439 8.7539,8.45117 l 1.4141,3.04883 -0.4824,-4.5 c -0.2651,-2.475 -0.7879,-5.5125 -1.1621,-6.75 -0.4644,-1.53538 -0.2919,-2.2408 0.1542,-2.24805 z"
         id="path3839" />
      <path
         style="fill:#ffffff;fill-opacity:1"
         d="m 1337.2811,430.28967 c 1.56,0 6.7266,6.09353 6.7266,7.93359 0,1.57376 -2.5649,1.29563 -4,-0.43359 -2.5572,-3.08119 -8.0196,-1.46319 -7.959,2.35742 0.043,2.67845 3.8408,10.75009 3.918,8.32617 0.023,-0.72366 -0.4499,-2.23453 -1.0508,-3.35742 -0.7755,-1.44895 -0.7841,-2.35069 -0.025,-3.10937 1.366,-1.36597 4.8376,1.59336 6.7832,5.7832 l 1.3926,3 -0.6172,-4.25 c -0.7503,-5.16276 0.9159,-5.73033 2.5234,-0.85938 1.5648,4.74128 -1.3427,16.14895 -3.2812,12.875 -0.2496,-0.42146 -0.787,-2.78271 -1.1953,-5.24804 l -0.7422,-4.48242 -1.7539,4.48242 c -2.073,5.30187 -4.3267,5.88641 -4.7051,1.2207 -0.1455,-1.79359 -1.4408,-5.58185 -2.8789,-8.41992 -2.4816,-4.89717 -2.5368,-5.32527 -1.0723,-8.39648 1.0594,-2.22159 2.4851,-3.44365 4.5469,-3.89649 2.054,-0.45113 2.8292,-1.11172 2.4531,-2.0918 -0.3256,-0.84851 0.056,-1.43359 0.9375,-1.43359 z"
         id="path3837" />
      <path
         style="fill:#ffffff;fill-opacity:1"
         d="m 1255.0135,422.45178 c 0.4002,0.0107 0.8436,0.0863 1.3555,0.21484 1.4508,0.36413 2.6387,1.33711 2.6387,2.16211 0,1.10066 -0.6656,1.33152 -2.5,0.8711 -2.9368,-0.73708 -3.1133,0.18461 -1.0059,5.22851 2.2988,5.50165 -0.1612,7.70002 -2.9218,2.61133 -1.3737,-2.53213 -1.4944,-2.57599 -1.5313,-0.55859 -0.063,3.45743 -1.6891,3.57404 -3.0781,0.2207 -0.6978,-1.6847 -2.5851,-4.37997 -4.1934,-5.98828 -2.3889,-2.38891 -3.7701,-2.92383 -7.5469,-2.92383 -3.3957,0 -4.3275,-0.29555 -3.5097,-1.11328 0.655,-0.65503 2.6938,-0.87733 4.9511,-0.53906 8.9675,1.34378 11.3896,1.92972 11.9883,2.89843 0.37,0.59867 1.35,0.0765 2.3535,-1.2539 1.0009,-1.32694 1.7995,-1.86225 3,-1.83008 z"
         id="path3835" />
      <path
         style="fill:#ffffff;fill-opacity:1"
         d="m 1308.3046,411.32287 c 4.4653,-0.0826 11.3285,11.84762 12.3066,21.39453 0.7789,7.60226 -0.4954,8.68918 -3.3066,2.82227 l -1.7969,-3.75 -0.5,3.48828 c -0.7364,5.1377 -3.0001,4.82685 -6.7695,-0.93164 -1.9776,-3.02112 -5.1053,-6.07037 -7.918,-7.71875 -2.5573,-1.49866 -4.1543,-2.88999 -3.5488,-3.0918 1.8968,-0.63228 7.5806,2.85924 11.4863,7.05664 l 3.75,4.0293 v -3.10742 c 0,-4.14819 1.8248,-5.06505 4.2187,-2.11914 l 1.9453,2.39453 -0.5859,-3.39648 c -0.6765,-3.91593 -5.7565,-12.59209 -8.9199,-15.23438 -1.9237,-1.60683 -1.9636,-1.80629 -0.3613,-1.83594 z"
         id="path3833" />
      <path
         style="fill:#ffffff;fill-opacity:1"
         d="m 1083.4061,409.66272 c 0.6934,-0.15759 0.2037,3.28253 -1.5215,8.375 -1.6236,4.79279 -2.2798,9.00133 -2.2597,14.50195 0.016,4.2625 -0.3422,7.75 -0.7949,7.75 -0.4528,0 -0.8791,-1.2375 -0.9473,-2.75 -0.459,-10.17368 0.8414,-18.70032 3.8496,-25.25 0.7994,-1.74055 1.3586,-2.55532 1.6738,-2.62695 z"
         id="path3831" />
      <path
         style="fill:#ffffff;fill-opacity:1"
         d="m 1384.9803,406.67444 c -0.5688,0.0334 -1.0937,0.2952 -1.6992,0.79492 -1.4033,1.15821 -1.1812,1.39663 1.8145,1.93945 1.8769,0.3401 3.5246,0.6776 3.6621,0.75 0.1375,0.0724 0.25,-0.30333 0.25,-0.83398 0,-0.53065 -0.9293,-1.4628 -2.0645,-2.07032 -0.7817,-0.41835 -1.394,-0.61344 -1.9629,-0.58007 z"
         id="path3829" />
      <path
         style="fill:#ffffff;fill-opacity:1"
         d="m 1133.9686,398.37756 c 0.5641,-0.0679 -0.4571,2.83672 -3.0293,8.19727 -2.2296,4.64665 -4.2454,10.57553 -4.5918,13.5 -0.3397,2.86802 -1.0631,5.21484 -1.6074,5.21484 -0.6112,0 -0.7323,-1.94103 -0.3164,-5.07617 0.7788,-5.87063 3.552,-13.36058 6.8105,-18.39063 1.4861,-2.29389 2.396,-3.40454 2.7344,-3.44531 z"
         id="path3827" />
      <path
         style="fill:#ffffff;fill-opacity:1"
         d="m 1204.121,394.76428 c -0.041,-0.004 -0.086,0.01 -0.1368,0.041 -1.0751,0.6645 -1.9271,4.48438 -1,4.48438 0.4344,0 1.0021,-1.11234 1.2618,-2.4707 0.2272,-1.18856 0.1648,-2.02985 -0.125,-2.05469 z"
         id="path3825" />
      <path
         style="fill:#80cbc4;fill-opacity:1"
         d="m 1171.871,379.54553 c -1.3259,0.0431 -2.0502,2.83927 -2.4649,8.83984 -0.8466,12.25146 -2.0363,15.39357 -7.7832,20.56055 -9.9153,8.91473 -22.5507,38.0407 -22.5996,52.09375 -0.01,2.48726 -0.4843,4.25 -1.1465,4.25 -1.7262,0 -0.4535,-13.3681 1.9727,-20.71484 2.4006,-7.26926 9.5688,-23.15054 12.8789,-28.53516 2.2504,-3.66083 2.2557,-3.75 0.291,-3.75 -2.1427,0 -2.6765,-1.93482 -0.998,-3.61328 0.9792,-0.97928 -0.5099,-7.38672 -1.7168,-7.38672 -0.2796,0 -1.4364,1.17944 -2.5704,2.62109 -3.4133,4.33935 -12.7265,7.22818 -12.7265,3.94727 0,-0.78794 0.8993,-1.71964 1.998,-2.06836 2.6023,-0.82592 3.39,-4.2388 2.543,-11.01758 -0.7608,-6.08962 -1.4819,-6.45932 -8.6836,-4.45898 -4.4695,1.24145 -6.0096,2.98692 -6.3652,7.21875 -0.1506,1.79133 -0.3225,3.75213 -0.3828,4.35547 -0.5223,5.22571 -14.1094,9.7792 -14.1094,4.72851 0,-1.00532 0.6232,-1.26314 2,-0.82617 1.6789,0.53285 1.9972,0.18337 1.9844,-2.18164 -0.015,-2.74565 -1.499,-6.2316 -2.252,-5.28906 -0.8309,1.04012 -5.6136,18.8817 -6.6934,24.9707 -0.6339,3.575 -1.2392,9.08659 -1.3457,12.24805 -0.19,5.64292 -1.847,7.46748 -2.5312,2.78711 -0.7128,-4.8755 4.6835,-30.75239 8.4336,-40.44141 0.6893,-1.78105 0.352,-1.8691 -5.0977,-1.30664 -3.2095,0.33125 -6.6486,0.16865 -7.6425,-0.36328 -1.5036,-0.80469 -1.9026,-0.5017 -2.375,1.80469 -1.0497,5.12366 -2.9257,7.75778 -5.7618,8.08789 -2.183,0.2541 -2.7187,-0.0906 -2.7187,-1.75 0,-3.04833 -1.9908,-2.53326 -6.6445,1.7207 -3.2468,2.96787 -4.612,5.295 -6.3028,10.75 -3.7618,12.13649 -2.5515,21.69045 3.6094,28.50977 3.7441,4.14431 7.1792,5.51024 17.5742,6.98437 3.1549,0.4474 7.0493,1.74779 8.6543,2.89063 2.9082,2.07078 7.6224,2.70814 9.707,1.3125 0.6036,-0.40409 1.3844,-3.55848 1.7364,-7.00977 0.3519,-3.45129 1.354,-7.65448 2.2265,-9.3418 1.856,-3.58899 2.935,-3.31755 1.5274,0.38477 -0.5323,1.39999 -1.2728,5.24949 -1.6465,8.55273 -0.6698,5.91986 -0.6366,6.02724 2.2832,7.53711 1.9778,1.02278 3.5358,3.03663 4.6914,6.0625 2.2671,5.93644 1.229,7.5715 -2.5254,3.97461 -1.5897,-1.523 -2.8906,-2.41086 -2.8906,-1.97461 0,0.43624 1.125,1.67623 2.5,2.75781 1.7847,1.40389 2.5,2.93333 2.5,5.34375 v 3.37696 l 3.6504,-1.52539 c 3.4581,-1.4449 3.8093,-1.4081 6.6543,0.69531 2.9043,2.14725 3.1084,2.16448 6.1738,0.51367 3.9312,-2.11707 8.0177,-1.28229 10.2285,2.0918 0.8752,1.33569 1.9034,2.06769 2.2871,1.62695 0.3838,-0.44074 1.4955,-4.40078 2.4688,-8.80078 4.3368,-19.60543 9.3491,-34.5 11.6094,-34.5 0.7044,0 0.8564,0.67104 0.3984,1.75 -4.2728,10.06643 -8.5974,25.52258 -11.5918,41.43164 -1.1305,6.00628 -2.0862,6.48272 -6.1035,3.03516 -1.5284,-1.3116 -2.0177,-1.28749 -4.3106,0.21484 -1.6632,1.08981 -2.4755,2.42302 -2.2754,3.73438 0.2753,1.80376 1.1199,2.06491 7.3106,2.25781 3.85,0.11996 8.5992,0.56799 10.5547,0.99609 l 3.5566,0.7793 2.1211,-9.84961 c 2.3035,-10.69282 4.005,-15.94616 4.8809,-15.07031 0.3064,0.30644 -0.3427,4.30633 -1.4414,8.88867 -1.0988,4.58233 -2.2617,9.85632 -2.586,11.71875 l -0.5898,3.38476 4.7519,-0.74218 c 2.6138,-0.40868 5.8587,-0.69294 7.211,-0.63086 3.1435,0.14433 9.4648,6.07812 8.0175,7.52539 -0.7025,0.70254 -1.6463,0.63882 -2.9882,-0.19922 -1.0788,-0.67373 -2.9797,-1.21009 -4.2246,-1.19336 -2.1926,0.0294 -2.201,0.0634 -0.2637,1.12305 3.0477,1.66696 4.5,3.93856 4.5,7.03711 0,3.04851 -2.6108,3.98731 -3.6387,1.30859 -1.0008,-2.60803 -3.9194,-1.63376 -7.1504,2.38672 -2.8099,3.49662 -3.0111,4.18315 -2.0039,6.85156 0.6158,1.63129 0.814,3.76612 0.4395,4.74219 -0.6104,1.59064 -0.9421,1.49231 -3.2012,-0.94531 -1.5329,-1.65398 -3.1255,-2.48725 -4.0645,-2.12696 -0.8491,0.32584 -2.1975,0.5918 -2.996,0.5918 -0.7986,0 -2.3983,1.60444 -3.5547,3.56445 -2.3705,4.01758 -3.5373,3.56131 -4.0078,-1.56445 -0.2721,-2.964 -0.6989,-3.5 -2.7813,-3.5 -1.9726,0 -2.5903,0.64557 -3.125,3.25977 -1.1537,5.64109 -1.1312,24.24023 0.029,24.24023 0.5806,0 1.0609,-1.9125 1.0684,-4.25 0.033,-10.18981 2.7578,-11.89752 3.1914,-2 0.2686,6.1332 0.5005,6.77996 2.5449,7.07031 2.2045,0.31309 2.25,0.11577 2.25,-9.66992 0,-5.49327 0.2736,-10.69838 0.6074,-11.56836 1.3459,-3.50737 2.0248,-1.12679 2.1602,7.57422 0.1971,12.67159 0.6061,13.97198 5.1933,16.47461 l 3.9063,2.12891 0.6367,-6.62891 c 0.3511,-3.64669 0.7959,-7.75586 0.9863,-9.13086 0.1905,-1.375 0.3825,-2.91185 0.4278,-3.41602 0.045,-0.50416 0.3584,-0.63963 0.6972,-0.30078 0.3389,0.33885 0.6772,6.1507 0.752,12.91602 0.1316,11.90347 0.2635,12.6004 4.0351,21.56836 2.1436,5.09692 4.0296,9.13449 4.1914,8.97265 0.1619,-0.16184 -0.1024,-2.08249 -0.5859,-4.26757 -1.7202,-7.77386 -3.0089,-24.04237 -2.25,-28.39454 1.2738,-7.30482 3.047,-6.15964 2.5293,1.63282 -0.5121,7.70913 0.6582,17.65735 3.2402,27.54883 l 1.7637,6.75781 7.1055,3.40039 c 7.3991,3.54141 11.6035,5.06927 11.6035,4.2168 0,-0.27455 -1.3961,-4.24139 -3.1016,-8.81641 -4.0482,-10.85944 -6.3271,-19.26218 -8.2265,-30.31836 -2.4803,-14.43777 -2.9197,-19.22923 -1.8242,-19.90625 0.6058,-0.37443 1.2578,1.66943 1.6425,5.14258 1.9841,17.90988 7.2362,35.14093 15.625,51.26367 3.4697,6.66845 4.4294,7.7315 8.6446,9.5957 2.6074,1.15316 4.9021,1.9676 5.0996,1.8086 0.1975,-0.159 -0.5336,-1.5535 -1.625,-3.09766 -6.9868,-9.88478 -15.8506,-34.66497 -18.1914,-50.86133 -0.5521,-3.81981 -1.0126,-14.64942 -1.0235,-24.0664 -0.017,-14.85131 0.2987,-18.36538 2.3828,-26.5 1.3216,-5.15802 3.7984,-12.46211 5.5039,-16.23047 3.3337,-7.3656 13.3478,-23.34949 15.9122,-25.39844 1.337,-1.0683 1.1187,-1.25 -1.504,-1.25 -3.7275,0 -5.7123,-2.137 -5.0761,-5.46484 1.6608,-8.68799 -15.655,18.3704 -19.1758,29.96484 -0.6681,2.2 -1.4206,4.6385 -1.6719,5.41797 -0.3092,0.95938 -0.7851,1.08794 -1.4726,0.40039 -2.2759,-2.27589 8.1994,-24.56106 15.6445,-33.2832 2.4408,-2.85947 4.4375,-5.2746 4.4375,-5.36719 0,-0.0926 -1.4625,-0.22242 -3.25,-0.28906 -6.1068,-0.22769 -7.8225,-0.76212 -7.5215,-2.34375 0.1607,-0.84413 1.2842,-1.67648 2.4961,-1.84961 1.2119,-0.17313 3.5683,-1.59231 5.2383,-3.15235 2.3845,-2.22747 3.0371,-3.67891 3.0371,-6.76172 0,-3.78959 -0.1033,-3.90974 -2.9883,-3.48632 -3.746,0.5498 -4.8176,-1.62757 -2.5234,-5.12891 1.5011,-2.29105 1.5075,-2.76398 0.066,-5.55078 -0.8665,-1.6756 -2.528,-3.55509 -3.6914,-4.17774 -1.8998,-1.01673 -2.822,-0.38508 -9.0489,6.19727 -10.1451,10.72433 -20.8183,28.40955 -24.3379,40.32422 -0.6414,2.17161 -1.7501,4.14132 -2.4628,4.3789 -2.1178,0.70594 -0.4835,-4.23467 5.5019,-16.6289 6.1922,-12.82244 9.9694,-18.78656 15.875,-25.06836 2.7869,-2.9644 3.3782,-3.99624 1.8379,-3.20508 -2.2359,1.14849 -4.2285,0.74192 -4.2285,-0.86328 0,-0.45081 1.3212,-1.36649 2.9355,-2.03516 4.4273,-1.83381 6.7325,-11.04275 4.0293,-16.09375 -1.2312,-2.3006 -3.7945,-2.54172 -4.6035,-0.43359 -0.3166,0.825 -1.1111,1.5 -1.7656,1.5 -2.8287,0 -14.7916,15.43941 -18.1016,23.36133 -1.4928,3.57289 -3.4941,4.90726 -3.4941,2.33008 0,-1.91555 6.3247,-12.13368 12.5664,-20.30274 4.2417,-5.55152 5.4336,-7.89737 5.4336,-10.6914 0,-1.9686 -0.45,-3.85735 -1,-4.19727 -0.55,-0.33992 -1,-0.17416 -1,0.36914 0,0.5433 -1.5148,2.59639 -3.3672,4.56055 -3.4465,3.65432 -7.6328,4.7893 -7.6328,2.07031 0,-0.825 0.675,-1.5 1.5,-1.5 2.0706,0 1.8766,-2.31619 -0.4297,-5.13867 -0.8787,-1.0754 -1.6044,-1.62505 -2.207,-1.60547 z"
         id="path3823" />
      <path
         style="fill:#ffffff;fill-opacity:1"
         d="m 1252.4413,374.651 c 0.3849,0.0231 0.9173,0.35672 1.5371,1.10351 1.7562,2.11611 4.0326,10.30633 4.0137,14.44336 -0.023,5.11229 -3.7979,11.17392 -8.6094,13.82813 -2.2353,1.23303 -4.3641,1.94059 -4.7324,1.57226 -0.3684,-0.36834 0.5114,-1.90523 1.957,-3.41406 3.3705,-3.51801 4.2992,-10.25755 2.0195,-14.66601 -1.9447,-3.76069 -4.1379,-5.44016 -3.1855,-2.43946 0.9678,3.04929 -0.3863,7.21094 -2.3457,7.21094 -0.9921,0 -2.5783,-1.76192 -3.8281,-4.25 l -2.1348,-4.25 -0.062,4.25 c -0.045,3.08354 -0.4742,4.25 -1.5625,4.25 -1.1496,0 -1.5,-1.27165 -1.5,-5.44141 0,-8.15863 2.8092,-8.40816 7.1113,-0.63086 l 1.9746,3.57227 -0.4277,-4.82617 c -0.5567,-6.26187 1.4706,-7.33373 5.4492,-2.88086 3.729,4.17343 5.4229,10.54434 4.0371,15.18164 l -1.0547,3.52539 2.0684,-2.5 c 1.7992,-2.17483 2.0106,-3.49738 1.625,-10.16602 -0.2776,-4.80007 -1.0627,-8.61168 -2.1016,-10.19726 -1.2271,-1.87277 -1.0949,-3.3262 -0.248,-3.27539 z"
         id="path3821" />
      <path
         style="fill:#ffffff;fill-opacity:1"
         d="m 1154.3417,357.24865 c 2.4436,0.13538 7.5477,3.40434 9.2832,6.62696 l 1.875,3.48242 1.7129,-4.03516 c 0.9423,-2.21872 2.2259,-4.0332 2.8535,-4.0332 0.6275,0 2.695,1.55441 4.5937,3.45312 2.52,2.52001 3.2801,2.91002 2.8164,1.44922 -0.6159,-1.94071 1.7876,-6.93746 3.3047,-6.87109 1.8874,0.0826 4.2079,2.85349 3.6367,4.3418 -0.7839,2.04287 -2.4101,2.12849 -2.4101,0.12695 0,-0.825 -0.45,-1.5 -1,-1.5 -0.55,0 -1,1.83025 -1,4.06641 0,4.70694 -1.438,7.93359 -3.5352,7.93359 -0.9348,0 -1.4648,-1.00478 -1.4648,-2.77734 0,-2.71256 -2.3951,-7.22266 -3.836,-7.22266 -0.3977,0 -1.5927,2.23721 -2.6542,4.97266 -1.8315,4.71963 -3.5896,6.61362 -4.9122,5.29101 -0.3287,-0.32877 -0.5976,-1.77108 -0.5976,-3.20703 0,-3.5831 -2.607,-6.99452 -6.6309,-8.67578 -1.8531,-0.77429 -3.3691,-1.85191 -3.3691,-2.39453 0,-0.76906 0.5194,-1.07247 1.334,-1.02735 z"
         id="path3819" />
      <path
         style="fill:#ffffff;fill-opacity:1"
         d="m 1114.2635,341.2467 c 0.7597,-10e-4 1.901,1.14847 2.9981,3.44922 1.9263,4.03955 4.0998,15.22969 3.3418,17.20508 -1.2415,3.23532 -2.6003,1.01259 -2.666,-4.36133 -0.039,-3.1625 -0.4259,-6.65 -0.8594,-7.75 -0.6922,-1.75655 -0.8723,-1.61206 -1.4922,1.18164 -0.7975,3.59428 -2.6213,5.5419 -4.2226,4.51172 -0.5924,-0.38104 -1.8924,-2.26836 -2.8887,-4.19336 l -1.8106,-3.5 -1.7422,6.84375 c -1.8122,7.12187 -4.9579,11.65625 -8.0878,11.65625 -1.0042,0 -1.8262,-0.41871 -1.8262,-0.93164 0,-0.51294 0.8598,-1.2057 1.9101,-1.53906 3.0657,-0.97299 4.2912,-3.149 6.0918,-10.81641 2.0013,-8.52162 4.0245,-9.82257 6.6661,-4.2832 0.9363,1.96351 2.0381,3.57031 2.4492,3.57031 1.322,0 2.0907,-4.07481 1.4316,-7.58789 -0.4318,-2.30195 -0.053,-3.45363 0.707,-3.45508 z"
         id="path3817" />
      <path
         style="fill:#ffffff;fill-opacity:1"
         d="m 1146.8065,306.34631 c 0.3404,0.0292 0.8938,0.50014 1.6426,1.51563 4.7348,6.42145 7.0791,24.51085 3.2715,25.24414 -1.3802,0.26579 -1.582,-0.21733 -1.0996,-2.62891 0.8067,-4.03387 -1.8164,-9.19926 -7.1856,-14.14844 -8.286,-7.63777 -12.0075,-4.60133 -12.8867,10.51367 -0.4878,8.38595 -2.2058,13.44727 -4.5645,13.44727 -0.5373,0 -0.9765,-1.71078 -0.9765,-3.80078 0,-2.09 -0.5328,-4.33159 -1.1836,-4.98242 -0.6508,-0.65084 -0.8373,-1.52756 -0.4141,-1.94922 0.4232,-0.42167 1.631,0.29532 2.6836,1.59375 l 1.9141,2.35937 0.043,-5.35937 c 0.1042,-12.82278 3.6017,-19.48317 9.6015,-18.28321 3.4349,0.68696 8.498,4.65017 11.5274,9.02149 l 2.0117,2.90039 -0.6504,-3 c -0.3575,-1.65 -1.5763,-4.93653 -2.707,-7.30273 -1.4955,-3.12955 -1.7763,-5.20492 -1.0274,-5.14063 z"
         id="path3815" />
      <path
         style="fill:#ffffff;fill-opacity:1"
         d="m 1208.7401,291.27405 c 1.5619,-0.10408 3.616,0.54119 6.0664,2.03515 4.401,2.68326 3.1993,4.27417 -1.4414,1.90821 -2.0095,-1.02452 -4.0372,-1.62558 -4.5059,-1.33594 -1.4757,0.91203 -0.9271,5.83673 1.0899,9.79297 1.8193,3.56841 2.4315,6.24489 2.1699,9.48828 -0.1509,1.8715 -3.1113,-0.52766 -3.1113,-2.52149 0,-1.82607 -8.5255,-10.35156 -10.3516,-10.35156 -0.7721,0 -1.9809,0.69741 -2.6875,1.54883 -1.5086,1.8178 -0.1862,4.88175 5.5332,12.81055 3.1262,4.33384 3.5059,5.54417 3.5059,11.1914 0,3.48249 -0.45,6.6093 -1,6.94922 -0.55,0.33992 -1.0592,0.47855 -1.1309,0.30859 -0.072,-0.16996 -0.1965,-2.38919 -0.2773,-4.93164 -0.3109,-9.77814 -10.0819,-19.33203 -19.7715,-19.33203 -2.4264,0 -3.8203,-0.46325 -3.8203,-1.27148 0,-2.06522 7.0128,-1.44946 12.1445,1.0664 l 4.6426,2.27539 -2.1367,-4.39843 -2.1387,-4.40039 2.7637,-2.37696 c 2.3369,-2.0101 3.1837,-2.21708 5.4941,-1.34179 1.5022,0.56911 3.8151,2.01789 5.1406,3.21875 2.2855,2.07044 2.3721,2.08012 1.6797,0.18359 -2.3476,-6.43053 -1.2937,-10.28666 2.1426,-10.51562 z"
         id="path3813" />
      <path
         style="fill:#ffffff;fill-opacity:1"
         d="m 1158.951,268.23303 c -10.1986,-0.003 -22.6624,1.0542 -31.4433,2.87305 -12.7699,2.64511 -45.6379,12.96905 -51.0957,16.04883 -1.0474,0.59103 -5.8123,2.6497 -10.5899,4.57421 -12.9127,5.20159 -33.116,15.66348 -43.3144,22.43164 -12.1793,8.08277 -22.481,16.78867 -38.2422,32.31836 -22.72851,22.39469 -37.18655,42.92765 -54.22461,77.00391 -7.67782,15.35569 -11.18445,23.83473 -15.92187,38.5 -10.10971,31.29584 -12.8299,46.72545 -13.83399,78.46875 -0.52144,16.48506 -0.25464,20.83789 1.2793,20.83789 0.34076,0 3.61122,-2.7 7.26758,-6 6.82986,-6.1642 11.13429,-7.64305 13.97656,-4.80078 0.93333,0.93333 1.19922,0.69779 1.19922,-1.06445 0,-2.52529 1.71665,-6.24488 3.40039,-7.36915 1.89025,-1.26215 6.29843,-0.83424 7.60352,0.73829 1.09984,1.32523 1.65329,1.25287 4.66015,-0.60547 2.23549,-1.38161 4.55324,-1.97593 6.72266,-1.72266 2.73583,0.31939 3.23421,0.0884 2.86328,-1.33008 -0.24693,-0.94426 -1.30445,-2.48968 -2.34961,-3.43554 -2.71143,-2.45381 -2.45069,-7.52292 0.55273,-10.76368 3.01907,-3.25763 7.06823,-3.44526 10.23243,-0.47265 l 2.31445,2.17383 v -2.93946 c 0,-2.63644 -0.53155,-3.1288 -5.16211,-4.77343 -2.89894,-1.02961 -7.08225,-3.65368 -9.53906,-5.98438 -13.57057,-12.87396 -6.33159,-40.27771 12.17773,-46.09961 7.03427,-2.21255 16.07611,-1.72716 22.74024,1.2207 4.85098,2.14582 11.41444,8.24807 15.52734,14.43555 1.50102,2.25814 3.79397,4.14586 5.86717,4.83008 1.8718,0.61776 3.9299,2.09951 4.5723,3.29297 1.4574,2.70782 1.1733,8.40433 -0.6797,13.65625 -1.1888,3.36933 -1.1964,4.01367 -0.049,4.01367 0.7517,0 2.5022,-1.35 3.8906,-3 3.5281,-4.19284 4.9481,-3.87269 4.4824,1.00977 -0.2102,2.205 -0.1454,3.8925 0.1446,3.75 0.29,-0.14251 3.4523,-1.90382 7.0273,-3.91211 12.0964,-6.79522 15.0986,-6.03272 16,4.05664 l 0.5,5.5957 3.6738,0.30664 c 4.4064,0.3668 5.8976,1.92836 6.1426,6.43555 0.159,2.924 0.4857,3.32033 2.4336,2.95117 1.2375,-0.23452 2.25,0.0443 2.25,0.61914 0,0.57484 0.7367,1.78161 1.6367,2.68164 1.3193,1.31924 2.8214,1.51081 7.75,0.99219 5.3655,-0.56457 6.3887,-0.38355 8.3633,1.47461 2.692,2.53314 2.7724,2.20126 0.5762,-2.4043 -1.579,-3.31119 -1.5738,-3.62584 0.098,-5.47266 0.975,-1.07738 1.4739,-2.44133 1.1094,-3.03125 -0.3646,-0.58991 0.7295,-2.75526 2.4316,-4.8125 l 3.0957,-3.74023 -2.7812,-0.33789 c -7.6392,-0.93016 -6.6666,-8.39068 1.2207,-9.36523 2.5869,-0.31966 2.0399,-0.68096 -3.9747,-2.6211 -11.3263,-3.65357 -14.0946,-7.9684 -8.998,-14.02539 3.2202,-3.82695 7.3406,-4.78762 11.4434,-2.66601 3.5813,1.85198 7.0199,6.92942 7.0253,10.37304 0,1.85991 0.373,2.20019 1.754,1.61524 3.9675,-1.6806 10.8006,-2.25726 13.25,-1.11914 1.9041,0.88476 2.5741,2.05351 2.8105,4.90429 0.3691,4.45101 1.8349,4.75347 6.0078,1.24219 3.8574,-3.24574 5.8975,-3.15637 7.9063,0.34375 1.4507,2.52769 2.1617,2.83258 6.4179,2.75 l 4.7871,-0.0937 -2.4082,-2.41992 c -2.0952,-2.10587 -2.6232,-2.24164 -4.0722,-1.03906 -1.4592,1.21101 -1.9113,1.0441 -3.6621,-1.35938 -1.0989,-1.50853 -3.5258,-3.38212 -5.3926,-4.16211 -1.867,-0.78002 -3.3946,-1.89074 -3.3946,-2.4688 0,-1.65257 2.1964,-1.23392 6,1.14453 1.925,1.20372 4.2238,2.08433 5.1094,1.95703 2.6554,-0.38176 10.9508,7.89717 11.8711,11.84766 l 0.8144,3.5 0.1035,-3.25 c 0.1451,-4.60492 3.3396,-4.32662 7.9668,0.69336 3.6304,3.9386 3.6419,3.94118 9.7403,3.37305 5.5597,-0.51795 6.2476,-0.36405 7.705,1.71679 1.3291,1.89755 1.8585,2.07131 3.1211,1.02344 0.8921,-0.74038 3.3508,-1.11704 5.9492,-0.91016 2.4357,0.19393 4.2199,0.016 3.9649,-0.39648 -0.255,-0.4125 -1.3106,-0.75 -2.3457,-0.75 -3.2155,0 -3.3022,-1.99936 -0.1348,-3.10352 1.6582,-0.57806 4.1834,-2.58292 5.6113,-4.45507 1.428,-1.87214 4.043,-3.82109 5.8106,-4.33203 l 3.2129,-0.92969 -3.75,-0.0899 c -3.0378,-0.0731 -3.75,-0.4656 -3.75,-2.0664 0,-1.26489 1.3496,-2.6879 3.75,-3.95508 4.5929,-2.4247 3.3643,-2.5216 -6.3945,-0.50586 -5.7026,1.1779 -8.3103,1.3008 -10.6075,0.5 -1.6752,-0.58393 -6.2998,-1.06245 -10.2754,-1.06245 -8.0691,0 -9.8253,-1.07247 -9.2949,-5.67578 0.2146,-1.86224 1.395,-3.46993 3.5332,-4.81055 1.7663,-1.10743 3.2288,-2.40421 3.25,-2.88086 0.041,-0.92231 -1.5639,-0.56833 -6.5644,1.44531 -3.168,1.27572 -4.3758,1.04724 -7.8965,-1.49218 -1.7477,-1.26057 -2.5046,-1.24855 -6,0.0918 -6.4098,2.45799 -10.2369,2.72575 -13.0078,0.91016 -4.4229,-2.89798 -2.2281,-9.83789 3.1113,-9.83789 2.1784,0 2.3816,-0.17796 1.0488,-0.92383 -0.9088,-0.50855 -1.6523,-1.74858 -1.6523,-2.75391 0,-2.30012 2.5312,-4.48042 4.0859,-3.51954 0.7372,0.45558 0.9923,0.20855 0.6875,-0.66406 -0.3624,-1.03749 -2.1752,-1.32014 -7.1601,-1.11523 -5.5971,0.23008 -7.3562,-0.12338 -10.8946,-2.19336 -2.3421,-1.37015 -7.3334,-2.95512 -11.2187,-3.5625 -7.9996,-1.25055 -14.8551,-4.93612 -18.0781,-9.71875 -3.4909,-5.18012 -4.9924,-14.4742 -3.5059,-21.70117 2.4001,-11.66806 5.9125,-17.35444 13.9746,-22.63086 l 2.3438,-1.53516 -2.7051,-3.21484 c -1.4884,-1.76887 -3.6189,-3.2168 -4.7324,-3.2168 -1.8269,0 -1.9602,0.43172 -1.3633,4.41211 0.8051,5.36913 -0.7411,6.82804 -2.8711,2.70898 -3.4703,-6.71088 -10.612,-9.30059 -12.7442,-4.62109 -0.6265,1.375 -1.7418,2.5 -2.4785,2.5 -1.8168,0 -1.6934,-0.69445 0.7285,-4.0957 1.4646,-2.05673 2.9103,-2.9043 4.9532,-2.9043 3.2984,0 7.9785,1.88723 7.9785,3.2168 0,0.49239 1.0196,-0.28975 2.2656,-1.73828 1.8343,-2.13254 2.793,-2.50123 5.0391,-1.9375 3.0917,0.77596 7.1116,5.48483 8.789,10.29687 2.0205,5.7959 3.4166,1.91503 4.7735,-13.26367 0.5642,-6.31131 0.8718,-7.10771 2.8476,-7.38867 1.6696,-0.23741 2.3734,0.31376 2.8575,2.24218 0.3531,1.4069 1.0877,2.28141 1.6347,1.94336 0.547,-0.33805 3.3127,-0.89653 6.1445,-1.24218 5.1384,-0.62717 5.1527,-0.63912 6.8008,-5.62891 1.8678,-5.65497 4.6577,-7.03677 7.1172,-3.52539 1.4443,2.06199 1.4768,2.04994 2.711,-0.92969 1.1989,-2.89447 1.0574,-5.83162 -0.5293,-10.89648 -0.609,-1.94389 -0.4159,-2.28744 1.1171,-1.99219 2.703,0.52053 7.4852,8.83494 7.7266,13.43359 0.2807,5.34774 -1.666,5.50922 -2.332,0.19336 -0.2951,-2.35538 -1.0681,-5.1832 -1.7188,-6.2832 -1.039,-1.75666 -1.1862,-1.4777 -1.2129,2.29883 -0.031,4.39717 -2.3257,10.20117 -4.0332,10.20117 -0.5232,0 -1.6861,-1.12192 -2.584,-2.49219 -1.9159,-2.92412 -2.9257,-2.59623 -3.7617,1.22071 -1.1829,5.40123 -3.518,6.96845 -11.4023,7.65429 -5.9524,0.51778 -7.25,0.3724 -7.25,-0.8164 0,-0.79638 -0.3786,-1.68247 -0.8418,-1.96875 -1.2241,-0.75656 -1.177,8.67162 0.051,10.15234 0.6569,0.79229 3.7235,1.25 8.375,1.25 8.3354,0 10.8807,1.62632 12.0156,7.67578 0.7125,3.79777 1.0477,3.95464 3.5723,1.66992 1.2429,-1.12485 1.8281,-3.06317 1.8281,-6.04882 0,-3.47653 0.5571,-4.90929 2.6719,-6.86915 2.7955,-2.59079 3.9195,-2.96788 11.3867,-3.81835 l 4.5586,-0.51954 1.3008,7.31836 c 0.9864,5.55185 1.0245,7.83079 0.1562,9.45313 -1.2864,2.40375 -0.8525,2.62597 2.0762,1.05859 1.1104,-0.59427 2.6614,-2.61927 3.4473,-4.5 0.7858,-1.88073 1.7609,-3.41634 2.166,-3.41211 1.1124,0.0116 5.2346,7.63116 5.2422,9.68946 0.01,1.33749 0.5193,1.02955 1.9941,-1.19727 1.0928,-1.65 1.9887,-4.125 1.9902,-5.5 0,-3.82595 -3.6401,-8.95659 -7.5117,-10.57422 -2.9588,-1.23627 -4.7989,-3.42578 -2.8789,-3.42578 2.113,0 7.7039,3.70865 9.8672,6.54492 3.5509,4.6555 4.0273,8.19441 1.707,12.67383 -1.7472,3.37315 -1.7648,3.63311 -0.1914,2.79102 2.6655,-1.42654 5.2641,-5.98928 5.6641,-9.94336 1.7806,-17.6051 2.8339,-21.06641 6.4082,-21.06641 1.8525,0 5.9453,4.83794 5.9453,7.02734 0,1.86454 2.8228,-0.78323 4.6953,-4.40429 l 1.5625,-3.02344 2.3711,2.75586 c 1.3609,1.58215 2.3711,4.04034 2.3711,5.77148 0,2.74152 0.1437,2.87389 1.5723,1.44532 0.8642,-0.86429 2.2142,-1.57227 3,-1.57227 2.3287,0 5.2694,3.63461 5.9726,7.38281 l 0.6543,3.4961 2.2363,-2.59961 c 2.8563,-3.3206 4.5645,-2.28097 4.5645,2.77929 0,2.57176 0.6768,4.61824 1.9473,5.88868 1.0707,1.07075 2.6195,3.2466 3.4414,4.83593 1.2855,2.4859 1.3002,3.26318 0.1093,5.5586 -1.3252,2.55436 -1.2865,2.64264 0.9082,2.09179 1.8707,-0.46951 2.5307,-8.7e-4 3.586,2.54688 1.7718,4.27759 -0.028,10.0269 -4.2598,13.60351 l -3.2324,2.73243 4.084,-0.54102 c 5.8195,-0.77023 7.7603,0.57519 6.9629,4.82617 -0.6267,3.34049 -0.577,3.39844 2.873,3.39844 4.5018,0 6.2315,2.69138 4.6484,7.23242 -1.3817,3.96352 -0.5127,4.95772 1.002,1.14649 1.929,-4.85385 2.6034,-5.88321 3.7891,-5.7793 0.6275,0.055 3.6048,0.1675 6.6171,0.25 4.6069,0.12617 5.7312,0.53625 7.0704,2.58008 1.4624,2.23188 1.4531,2.6392 -0.094,5 -2.2625,3.45304 -1.4418,3.2382 3.5468,-0.92969 4.9634,-4.14674 5.9995,-4.26463 9.6836,-1.0957 2.3658,2.03498 2.7983,3.17687 2.8067,7.41797 l 0.01,5.01171 2.8222,-3.41601 c 3.8114,-4.61364 9.0006,-4.78776 13.6387,-0.45508 2.9755,2.77951 3.1299,3.2608 2.4785,7.75 -0.382,2.63255 -1.0867,5.54436 -1.5664,6.4707 -1.3811,2.667 -1.0648,2.83297 2.0235,1.06055 2.4871,-1.42743 3.1312,-1.46613 4.5683,-0.27344 0.9204,0.76384 1.4608,2.20861 1.1992,3.20899 -0.6984,2.67096 0.9789,3.17742 3.1914,0.96484 1.0987,-1.09865 2.2248,-4.09138 2.6192,-6.95898 0.9079,-6.60137 2.4435,-8.67319 5.8027,-7.83008 1.4676,0.36835 2.8887,1.62234 3.2793,2.89648 1.4013,4.57092 2.4835,4.91552 5.4551,1.73438 3.0681,-3.28442 4.6948,-3.65276 7.3984,-1.67578 2.2216,1.62448 3.2744,9.54137 1.668,12.54297 -0.6318,1.18054 -0.8819,2.14648 -0.5566,2.14648 0.3252,0 1.4607,-1.96485 2.5234,-4.36719 2.2519,-5.09073 4.1493,-6.93285 6.6562,-6.45703 1.3525,0.25668 1.9228,1.55979 2.2989,5.25586 0.781,7.67513 2.57,6.86013 7.2031,-3.2832 3.3145,-7.25648 4.7182,-9.28771 7.1074,-10.27735 2.5527,-1.05737 3.4902,-0.95818 6.5723,0.69727 4.4175,2.37275 6.9123,6.92727 5.2519,9.58594 -1.6617,2.66082 -1.4332,2.90921 1.6055,1.7539 4.2933,-1.6323 9.075,-0.26035 11.1836,3.20703 l 1.8281,3.00586 1.8711,-4.52343 c 2.485,-6.00818 5.3873,-7.58738 9.6817,-5.26758 3.1211,1.68601 5.6628,5.51214 5.7265,8.61914 0.025,1.23176 0.3338,1.15132 1.5,-0.39063 1.7826,-2.35681 1.9002,-10.16082 0.2032,-13.46093 -0.6794,-1.32112 -2.9219,-3.46429 -4.9844,-4.76368 l -3.7502,-2.36328 v 4.01563 c 0,2.90183 -0.4158,4.01367 -1.5,4.01367 -0.8655,0 -1.5326,-0.95175 -1.5781,-2.25 -0.043,-1.2375 -0.3066,-1.6875 -0.584,-1 -0.8929,2.21287 -2.6185,1.35553 -7.2774,-3.61719 -2.5082,-2.67719 -5.2355,-5.09078 -6.0605,-5.36328 -0.825,-0.27251 -1.2052,-0.81618 -0.8438,-1.20703 1.0452,-1.13038 6.351,2.06571 9.3848,5.65234 l 2.7793,3.28516 -0.6133,-5.25 c -0.656,-5.61644 0.6343,-7.11381 2.3164,-2.68945 0.5354,1.4081 1.4287,2.27825 1.9864,1.93359 1.2336,-0.76244 11.9902,5.23523 11.9902,6.68555 0,0.5678 1.3047,-0.36606 2.9004,-2.07422 3.505,-3.75211 7.7643,-4.09388 12.7324,-1.02344 3.793,2.34422 3.9228,2.18301 1.9824,-2.46094 -2.06,-4.93037 -7.5154,-7.92485 -13.3867,-7.3457 -2.6005,0.25652 -5.8494,0.831 -7.2187,1.27539 l -2.4903,0.8086 2.8653,-3.4043 c 2.6776,-3.18218 2.824,-3.81258 2.2734,-9.70899 -0.3503,-3.75108 -0.1454,-7.27761 0.5058,-8.70703 1.4168,-3.10953 5.7302,-4.85502 10.8047,-4.37109 2.2176,0.21148 4.0313,0.2367 4.0313,0.0566 0,-0.1801 -1.6875,-1.05678 -3.75,-1.94922 -2.5539,-1.10508 -6.8604,-1.64722 -13.5,-1.69922 -11.7636,-0.0921 -13.143,-1.85917 -2.0117,-2.57617 7.6586,-0.49331 7.7283,-0.52268 5.2617,-2.18359 -1.9483,-1.31191 -4.5965,-1.65426 -12,-1.55469 -9.5417,0.12832 -14,-0.6097 -14,-2.31445 0,-0.52247 2.5415,-0.65031 5.9043,-0.29883 l 5.9043,0.61718 2.5508,-4.04492 c 2.709,-4.29144 7.7698,-6.49183 9.9394,-4.32226 2.7739,2.77385 3.7487,-0.0849 1.0469,-3.07032 -1.9307,-2.13337 -10.2132,-2.56224 -12.1465,-0.6289 -0.9333,0.93333 -1.4651,0.93333 -2.3984,0 -1.6453,-1.64524 -5.2998,-1.50768 -6.7618,0.2539 -0.6632,0.79922 -1.0564,3.11993 -0.873,5.15626 0.3786,4.20285 -1.5968,5.80935 -2.6992,2.19531 -1.1237,-3.68355 -3.5544,-5.80465 -6.6524,-5.80465 -4.1515,0 -4.5305,2.41942 -1.0078,6.43164 3.5282,4.01832 5.0107,7.79592 3.2852,8.37109 -0.797,0.26567 -0.8549,0.77779 -0.1778,1.59375 1.7465,2.10434 2.2411,8.93518 0.8399,11.60352 -1.4428,2.74751 -4.1759,3.37026 -4.3887,1 -0.074,-0.825 -0.1865,-2.08478 -0.25,-2.79883 -0.1808,-2.03471 -6.2348,-4.20814 -8.4375,-3.02929 -2.501,1.33849 -3.44,0.16073 -1.4551,-1.82422 2.0366,-2.03655 8.0355,-1.08952 10.834,1.70898 1.9257,1.92563 1.9434,1.92173 1.9434,-0.33398 0,-1.25263 -0.6593,-3.21901 -1.4649,-4.36914 -0.8055,-1.15013 -1.1678,-2.38879 -0.8046,-2.75196 1.6394,-1.63949 0.8345,-3.83196 -2.2793,-6.20703 -3.7011,-2.82296 -10.765,-4.31534 -11.8809,-2.50976 -0.7823,1.26573 -3.5703,1.52352 -3.5703,0.33007 0,-0.80575 4.9225,-4.01088 6.2324,-4.05859 0.4023,-0.0147 2.1113,0.36954 3.7988,0.85352 2.7303,0.78302 3.0036,0.67406 2.4766,-0.98633 -0.728,-2.29357 2.9619,-6.02344 5.959,-6.02344 1.1489,0 3.1726,0.75914 4.498,1.6875 1.7367,1.21643 2.5229,1.35138 2.8125,0.48242 0.2211,-0.66319 1.0677,-1.87232 1.8828,-2.6875 1.3096,-1.30952 1.0252,-1.48242 -2.4414,-1.48242 -2.6035,0 -5.0656,-0.83684 -7.3203,-2.48828 -13.0998,-9.59488 -15.1583,-10.09351 -37.332,-9.02344 -15.4156,0.74393 -25.976,-0.40485 -31.0371,-3.37695 -1.6666,-0.97868 -3.8168,-1.59498 -4.7793,-1.3711 -1.888,0.43915 -2.4906,-2.16447 -0.75,-3.24023 0.55,-0.33992 0.9613,-2.05355 0.914,-3.80859 l -0.086,-3.19141 -0.8164,2.70898 c -1.1515,3.82003 -4.9997,8.96193 -6.3652,8.50586 -0.6418,-0.21438 -1.0018,-1.78755 -0.8184,-3.57226 0.7468,-7.26521 -6.2584,-15.41021 -11.7539,-13.66602 -2.6145,0.82983 -2.7493,-1.04545 -0.1738,-2.42383 4.3235,-2.31387 10.8603,2.97218 14.1543,11.44727 1.0703,2.75361 1.2321,2.83574 1.9844,1 0.4508,-1.1 0.852,-3.4625 0.8906,-5.25 0.1463,-6.76441 5.0528,-1.89566 5.0859,5.04688 0.012,2.43581 0.2472,2.84385 0.9844,1.70312 0.5332,-0.825 0.976,-3.841 0.9844,-6.70117 0.011,-3.80165 0.4638,-5.44931 1.6816,-6.13086 1.8243,-1.02091 6.651,0.0194 8.9551,1.93164 1.9817,1.64467 2.7689,0.49915 1.4063,-2.04688 -0.6238,-1.16549 -3.9066,-3.46216 -7.295,-5.10351 -6.7151,-3.25288 -11.1251,-6.94481 -13.3222,-11.15039 -1.9118,-3.65948 -1.8516,-3.79883 1.6387,-3.79883 3.4387,0 8.5092,2.30986 9.2812,4.22852 0.2813,0.69907 0.5484,-0.0107 0.5918,-1.57813 0.1234,-4.45313 -5.3323,-9.2955 -11.4824,-10.19141 -7.6034,-1.1076 -10.1061,-2.85464 -13.3848,-9.3496 -3.0842,-6.10976 -6.855,-9.92479 -12.9375,-13.08399 -1.989,-1.0331 -7.2172,-4.75993 -11.6172,-8.2832 -9.2961,-7.44377 -24.4313,-17.84319 -32.9258,-22.62305 -7.6667,-4.31409 -27.9588,-11.03793 -37.6855,-12.48633 -3.1416,-0.4678 -7.3096,-0.68802 -11.9453,-0.68945 z"
         id="path3811" />
    </g>
    <rect
       y="992.9295"
       x="2597.8525"
       height="50.15184"
       width="68.054436"
       id="rect4030"
       style="fill:#292d3e;fill-opacity:1;stroke:#000000;stroke-opacity:0" />
  </g>
</svg>
